<svg xmlns="http://www.w3.org/2000/svg" viewBox="0 0 500 500"><g id="freepik--background-simple--inject-157"><path d="M156.87,466.82s-89.36-33.92-130.73-139S133.7,149.1,132,133.38s-105.9-24-43.85-74.47S367.85,2.65,447.29,111,444,255,435.7,274s73.64,26.47,16.55,124.11S222.23,493.3,156.87,466.82Z" style="fill:#92E3A9"></path><path d="M156.87,466.82s-89.36-33.92-130.73-139S133.7,149.1,132,133.38s-105.9-24-43.85-74.47S367.85,2.65,447.29,111,444,255,435.7,274s73.64,26.47,16.55,124.11S222.23,493.3,156.87,466.82Z" style="fill:#fff;opacity:0.8"></path></g><g id="freepik--Clouds--inject-157"><g style="opacity:0.5"><path d="M280.93,74.5c-28.25-40.79-70.49-26.58-92.84,10.67-5.8,9.67-13.53-3.87-30,1S137.83,106.43,133,110.3s-8.7-4.83-21.27-3.87-20.29,10.64-20.29,10.64l-37.7,7.73h318s-13.54-30-30-37.7-30.92,4.84-44.46,1C289.57,85.86,285.05,80.46,280.93,74.5Z" style="fill:none;stroke:#000;stroke-miterlimit:10"></path><path d="M279.91,88.07c-7.31-4.88-11.83-12.56-17.83-18.79-9.22-9.58-26.75-6.47-33.53,4.38-8.69,13.91-2.78,20.86-7,23.3s-11.82-2.78-18.08,2.43-4.52,10.43-7.65,12.52-3.82-1.4-9,1.73-5.91,5.91-5.91,5.91" style="fill:none;stroke:#000;stroke-miterlimit:10"></path></g><g style="opacity:0.5"><path d="M282.67,348.58c-10-14.42-24.92-9.4-32.82,3.77-2,3.42-4.78-1.36-10.59.35s-7.18,7.17-8.89,8.54-3.07-1.71-7.51-1.37a11.07,11.07,0,0,0-7.18,3.76l-13.33,2.73H314.78S310,355.77,304.18,353s-10.93,1.71-15.72.34C285.73,352.6,284.13,350.69,282.67,348.58Z" style="fill:none;stroke:#000;stroke-miterlimit:10"></path><path d="M282.31,353.38c-2.58-1.73-4.18-4.44-6.3-6.64-3.26-3.39-9.45-2.29-11.85,1.55-3.08,4.91-1,7.37-2.46,8.23s-4.18-1-6.39.86-1.6,3.69-2.71,4.43-1.35-.5-3.19.61-2.09,2.09-2.09,2.09" style="fill:none;stroke:#000;stroke-miterlimit:10"></path></g><g style="opacity:0.5"><path d="M431.67,281c-10-14.42-24.92-9.39-32.82,3.78-2.05,3.41-4.79-1.37-10.6.34s-7.17,7.18-8.88,8.54-3.08-1.71-7.52-1.36a11.07,11.07,0,0,0-7.17,3.75l-13.33,2.74H463.77s-4.78-10.6-10.59-13.33-10.93,1.71-15.72.34C434.73,285,433.13,283.11,431.67,281Z" style="fill:none;stroke:#000;stroke-miterlimit:10"></path><path d="M431.31,285.8c-2.58-1.72-4.18-4.44-6.3-6.64-3.26-3.39-9.46-2.29-11.86,1.55-3.07,4.92-1,7.37-2.46,8.23s-4.17-1-6.39.86-1.59,3.69-2.7,4.43-1.35-.49-3.2.61-2.09,2.09-2.09,2.09" style="fill:none;stroke:#000;stroke-miterlimit:10"></path></g></g><g id="freepik--Flowers--inject-157"><path d="M295.07,384.33q12.06,8.52,24,17.29c7.95,5.86,15.84,11.76,23.59,18.07l-5.09,5.47c-6.7-7-13.79-13.89-20.9-20.68S302.33,391,295.07,384.33Z" style="fill:#263238"></path><path d="M293.81,374.36a10,10,0,1,1-8.71,11.22A10,10,0,0,1,293.81,374.36Z" style="fill:#92E3A9;stroke:#263238;stroke-miterlimit:10"></path><path d="M289,392.52a35,35,0,0,0,7.07,2,29,29,0,0,0,8.34.27c7.83-1,2.08-13.51-2.3-18.25,0,0,.94,7.45-.36,9.13s-6.63-1.29-6.63-1.29a8.82,8.82,0,0,1,1.56,6.09C296.33,394.29,289,392.52,289,392.52Z" style="fill:#263238;stroke:#263238;stroke-miterlimit:10"></path><path d="M294,424q12.53.44,25.05,1.1c8.36.46,16.7,1,25.13,1.84l-1.07,6.24c-8-1.87-16.23-3.43-24.43-4.94S302.26,425.34,294,424Z" style="fill:#263238"></path><circle cx="294.02" cy="424" r="8.52" transform="translate(-13.04 9.35) rotate(-1.78)" style="fill:#92E3A9;stroke:#263238;stroke-miterlimit:10"></circle><path d="M293.49,432.66a30,30,0,0,0,5.92-1.91,24.72,24.72,0,0,0,6-3.69c5.08-4.34-4.81-10.54-10.12-11.87,0,0,4.13,4.85,4,6.64S294,424,294,424a7.47,7.47,0,0,1,3.94,3.59C299.54,430.48,293.49,432.66,293.49,432.66Z" style="fill:#263238;stroke:#263238;stroke-miterlimit:10"></path><path d="M432.19,467q-11.62-4.68-23.18-9.57c-7.7-3.28-15.37-6.6-23-10.3l3.14-5.5c6.9,4.5,14.09,8.76,21.28,13S424.89,462.92,432.19,467Z" style="fill:#263238"></path><path d="M435.18,475a8.52,8.52,0,1,1,5-11A8.53,8.53,0,0,1,435.18,475Z" style="fill:#92E3A9;stroke:#263238;stroke-miterlimit:10"></path><path d="M435.63,459a29.82,29.82,0,0,0-6.21-.22,24.63,24.63,0,0,0-6.94,1.41c-6.26,2.34.93,11.54,5.47,14.6,0,0-2.23-6-1.49-7.6s5.73-.23,5.73-.23a7.42,7.42,0,0,1-2.48-4.72C429.2,459,435.63,459,435.63,459Z" style="fill:#263238;stroke:#263238;stroke-miterlimit:10"></path><path d="M413.46,405.86q-10,7.51-20.22,14.84c-6.81,4.87-13.63,9.7-20.74,14.3l-3.08-5.54c7.43-3.56,14.81-7.48,22.14-11.45S406.19,410,413.46,405.86Z" style="fill:#263238"></path><circle cx="413.46" cy="405.86" r="8.52" transform="translate(-47.6 55.01) rotate(-7.2)" style="fill:#92E3A9;stroke:#263238;stroke-miterlimit:10"></circle><path d="M408.45,398.79A29.54,29.54,0,0,0,405,404a24.57,24.57,0,0,0-2.4,6.66c-1.25,6.56,10.35,5.21,15.32,2.91,0,0-6.25-1.19-7.27-2.68s2.78-5,2.78-5a7.45,7.45,0,0,1-5.32-.33C405.09,404.27,408.45,398.79,408.45,398.79Z" style="fill:#263238;stroke:#263238;stroke-miterlimit:10"></path><path d="M360.7,387.44s-2.86,6.09,6.63,13.89,32.17,8.89,32.17,8.89-1.44-21.05-9.28-30-21.93-12.11-25.75-11.67S357.63,379.11,360.7,387.44Z" style="fill:#92E3A9;stroke:#263238;stroke-miterlimit:10"></path><path d="M339.4,384.36a8,8,0,0,0-5.37,8.79c.72,7,5.27,22.44,5.27,22.44s15.48-6.33,23.11-11.82,5.92-21.82,2.87-25.55-8.8-10-14.53-7S339.4,384.36,339.4,384.36Z" style="fill:#92E3A9;stroke:#263238;stroke-miterlimit:10"></path><path d="M345.18,362.8a40.67,40.67,0,0,1-2.93-18c.57-10.52,8.67-18,12.36-17.94s14.17,10.86,18.64,14.87,5,13.9,1.67,20.88-5.84,12.77-12.42,11.42S345.18,362.8,345.18,362.8Z" style="fill:#92E3A9;stroke:#263238;stroke-miterlimit:10"></path><path d="M358.81,371.43c-3.28-5.74-13.51-11.53-19.91-13.16a49.42,49.42,0,0,0-9.67-1.58,41,41,0,0,0-15.34,2.58s7.19,20.59,13.2,25.6,12.61,3.33,15.4,2.86,16.72-6.65,18.43-11.82C361.49,374.19,360.08,373.64,358.81,371.43Z" style="fill:#92E3A9;stroke:#263238;stroke-miterlimit:10"></path><path d="M367.09,373.09s1.26-16.17,11-23.58,26.64-1.44,30-1.11-1.94,14.08-9.91,23S369.71,377.6,367.09,373.09Z" style="fill:#92E3A9;stroke:#263238;stroke-miterlimit:10"></path><polygon points="368.55 369.01 367.62 359.03 364.47 368.57 357.42 372.7 350.75 371.22 356.79 377.27 354.94 382.68 360.12 381.62 363.81 382.54 368.14 386.33 366.58 381.56 370.07 379.3 374.68 379.05 369.63 375.28 368.55 369.01" style="fill:#263238"></polygon><path d="M361.07,352.24c.51,1.77-.08,3.49-1.32,3.84s-2.66-.78-3.17-2.54.09-3.48,1.33-3.84S360.57,350.48,361.07,352.24Z" style="fill:#263238"></path><path d="M359.75,356.08s5.55,9.05,2.75,18" style="fill:none;stroke:#263238;stroke-miterlimit:10"></path><path d="M351.29,365.33c1.17.6,1.78,1.75,1.37,2.57s-1.71,1-2.89.43-1.78-1.75-1.36-2.58S350.11,364.74,351.29,365.33Z" style="fill:#263238"></path><path d="M352.66,367.9s7.45,1.5,10.77,7.33" style="fill:none;stroke:#263238;stroke-miterlimit:10"></path><path d="M346.34,377.37c1.27-.36,2.5.07,2.75,1s-.57,1.9-1.83,2.26-2.5-.07-2.75-1S345.07,377.73,346.34,377.37Z" style="fill:#263238"></path><path d="M349.09,378.34s6.5-4,12.89-1.92" style="fill:none;stroke:#263238;stroke-miterlimit:10"></path><path d="M352,388.26c1-1.55,2.67-2.25,3.76-1.56s1.18,2.51.19,4.06-2.66,2.25-3.75,1.56S351.05,389.81,352,388.26Z" style="fill:#263238"></path><path d="M355.79,386.7s3.08-10.15,11.63-14" style="fill:none;stroke:#263238;stroke-miterlimit:10"></path><path d="M377.37,363.4c-1.52,1-3.34,1-4.07-.06s-.09-2.77,1.43-3.8,3.33-1,4.06,0S378.88,362.36,377.37,363.4Z" style="fill:#263238"></path><path d="M365.39,375.21a17.55,17.55,0,0,1,9.53-12.57" style="fill:none;stroke:#263238;stroke-miterlimit:10"></path><path d="M379.13,374.33c-1.84-.1-3.27-1.22-3.2-2.51s1.6-2.26,3.44-2.16,3.26,1.21,3.2,2.5S381,374.42,379.13,374.33Z" style="fill:#263238"></path><path d="M362.44,376.47a17.57,17.57,0,0,1,15.2-4.23" style="fill:none;stroke:#263238;stroke-miterlimit:10"></path><path d="M373.73,384.38c-1.4-1.18-1.85-2.94-1-3.93s2.65-.82,4.05.37,1.86,2.94,1,3.93S375.14,385.57,373.73,384.38Z" style="fill:#263238"></path><path d="M359.17,376a17.54,17.54,0,0,1,14.65,5.85" style="fill:none;stroke:#263238;stroke-miterlimit:10"></path><path d="M426.05,361.9s-18.56-14.63-19.42-21.1S408.31,324,408.31,324s10.51-2.93,18.47,4.5,10.11,21.59,4.69,27.51-2.32,13-2.32,13Z" style="fill:#92E3A9;stroke:#263238;stroke-miterlimit:10"></path><path d="M426.05,361.9s1.51-13.38,12.21-17.73,21.64-4,26.15,1.2,2.3,8.69-6.15,15.65-26.28,6.3-29.11,8S426.05,361.9,426.05,361.9Z" style="fill:#92E3A9;stroke:#263238;stroke-miterlimit:10"></path><path d="M417.85,373.52a60.11,60.11,0,0,1-23.72-2c-12.8-3.74-23.86-18.24-14.6-24.8s22.65-5.05,32.2-.88,20.85,21.29,17.42,23.15A106.47,106.47,0,0,1,417.85,373.52Z" style="fill:#92E3A9;stroke:#263238;stroke-miterlimit:10"></path><path d="M417.85,373.52s-17.2,3.19-16.54,9.06,18.13,11.39,28.85,9.07,5.76-12.81,6.13-17.68-7.14-5-7.14-5Z" style="fill:#92E3A9;stroke:#263238;stroke-miterlimit:10"></path><path d="M433.14,380.45s3.26,3.8,10.32,5,18.6,1.69,26.22-3.53-9.22-19.75-20.13-20.89-20.4,8-20.4,8S429.29,379.86,433.14,380.45Z" style="fill:#92E3A9;stroke:#263238;stroke-miterlimit:10"></path><path d="M429.15,369s4.23,3,6.49.25,5.93-8.46,5.93-8.46l-6.49-.18-3.61-4.6-2.58-2.92-3.33,4.35-6.49-.18L424,365.6l-.21,4.09-2.27,1.58Z" style="fill:#263238;stroke:#263238;stroke-miterlimit:10"></path><path d="M419.48,341.78c1,1.78.79,3.8-.46,4.5s-3.09-.17-4.09-1.95-.79-3.8.47-4.51S418.48,340,419.48,341.78Z" style="fill:#263238"></path><path d="M419,346.28s8.31,8.4,7.54,18.81" style="fill:none;stroke:#263238;stroke-miterlimit:10"></path><path d="M449.26,355.83c-1.72,1.12-3.74,1-4.53-.16s0-3.09,1.69-4.2,3.74-1,4.52.16S451,354.72,449.26,355.83Z" style="fill:#263238"></path><path d="M444.73,355.67s-7.83,8.84-18.27,8.76" style="fill:none;stroke:#263238;stroke-miterlimit:10"></path><path d="M426.41,344.67c.18,1.17,1,2,1.81,1.89s1.35-1.18,1.17-2.34-1-2-1.81-1.9S426.23,343.5,426.41,344.67Z" style="fill:#263238"></path><path d="M428.22,346.56s-.82,6.79,3.23,11.26" style="fill:none;stroke:#263238;stroke-miterlimit:10"></path><path d="M415,365.23c1.18,0,2.13-.69,2.12-1.52s-1-1.5-2.15-1.49-2.14.69-2.13,1.52S413.84,365.24,415,365.23Z" style="fill:#263238"></path><path d="M417.15,363.71s6.61,1.77,11.61-1.6" style="fill:none;stroke:#263238;stroke-miterlimit:10"></path><path d="M440.77,368.48c-1-.56-2.21-.42-2.6.31s.13,1.78,1.18,2.34,2.2.42,2.6-.31S441.81,369,440.77,368.48Z" style="fill:#263238"></path><path d="M438.17,368.79s-4.95-4.72-10.95-4.16" style="fill:none;stroke:#263238;stroke-miterlimit:10"></path><path d="M438,348.41c-.79.88-.93,2-.31,2.6a1.91,1.91,0,0,0,2.55-.6c.79-.88.93-2,.31-2.6S438.77,347.53,438,348.41Z" style="fill:#263238"></path><path d="M437.68,351s-5.74,3.7-6.61,9.67" style="fill:none;stroke:#263238;stroke-miterlimit:10"></path><path d="M426.82,414.61s-5.43-4-14.91,3.84S397,448.3,397,448.3s20.93,2.64,31.21-3.33,16.1-19.19,16.4-23S435.59,413.21,426.82,414.61Z" style="fill:#92E3A9;stroke:#263238;stroke-miterlimit:10"></path><path d="M433.94,394.31a8,8,0,0,0-7.59-7c-7.05-.66-23,.84-23,.84s3.24,16.41,7.16,25,20.27,10,24.52,7.73,11.47-6.71,9.66-12.9S433.94,394.31,433.94,394.31Z" style="fill:#92E3A9;stroke:#263238;stroke-miterlimit:10"></path><path d="M454,404.13a40.72,40.72,0,0,1,18.21.58c10.2,2.59,16,12,15.22,15.59S474,432.12,469.22,435.72s-14.6,2.22-20.8-2.37S437,425.16,439.6,419,454,404.13,454,404.13Z" style="fill:#92E3A9;stroke:#263238;stroke-miterlimit:10"></path><path d="M442.89,415.84c6.26-2.11,13.92-11,16.75-17a50.74,50.74,0,0,0,3.42-9.18,41.08,41.08,0,0,0,.42-15.56s-21.6,3.1-27.67,8-5.7,11.73-5.77,14.56,3.31,17.69,8,20.36C439.66,417.94,440.48,416.66,442.89,415.84Z" style="fill:#92E3A9;stroke:#263238;stroke-miterlimit:10"></path><path d="M439.67,423.65s15.62,4.35,21,15.31S457,465.38,456,468.64,442.56,464,435.38,454.5,434.74,425.35,439.67,423.65Z" style="fill:#92E3A9;stroke:#263238;stroke-miterlimit:10"></path><polygon points="443.39 425.87 453.36 426.88 444.6 421.95 441.91 414.24 444.65 407.98 437.55 412.74 432.59 409.88 432.63 415.17 431.03 418.61 426.47 422.13 431.45 421.52 433 425.38 432.36 429.95 437.03 425.72 443.39 425.87" style="fill:#263238"></polygon><path d="M461.28,421.76c-1.82.16-3.4-.75-3.51-2s1.28-2.46,3.11-2.62,3.4.76,3.51,2S463.11,421.6,461.28,421.76Z" style="fill:#263238"></path><path d="M457.77,419.72s-9.94,3.7-18.17-.77" style="fill:none;stroke:#263238;stroke-miterlimit:10"></path><path d="M450.32,409.63c-.81,1-2.05,1.42-2.78.85s-.67-1.87.14-2.91,2.05-1.41,2.78-.84S451.13,408.6,450.32,409.63Z" style="fill:#263238"></path><path d="M447.54,410.48s-2.91,7-9.27,9.17" style="fill:none;stroke:#263238;stroke-miterlimit:10"></path><path d="M439.46,402.46c.11,1.31-.55,2.44-1.47,2.51s-1.76-.92-1.87-2.23.55-2.44,1.47-2.51S439.35,401.15,439.46,402.46Z" style="fill:#263238"></path><path d="M438,405s2.62,7.14-.6,13" style="fill:none;stroke:#263238;stroke-miterlimit:10"></path><path d="M427.68,406c1.34,1.26,1.69,3.05.81,4s-2.69.68-4-.59-1.7-3-.81-4S426.35,404.69,427.68,406Z" style="fill:#263238"></path><path d="M428.49,409.93s9.36,5,11.47,14.11" style="fill:none;stroke:#263238;stroke-miterlimit:10"></path><path d="M447.2,435.6c-.73-1.69-.35-3.47.84-4s2.73.45,3.46,2.13.34,3.47-.84,4S447.92,437.28,447.2,435.6Z" style="fill:#263238"></path><path d="M437.92,421.57a17.58,17.58,0,0,1,10.5,11.78" style="fill:none;stroke:#263238;stroke-miterlimit:10"></path><path d="M436.14,435.22c.44-1.78,1.82-3,3.07-2.65s1.91,2,1.46,3.79-1.82,3-3.07,2.65S435.69,437,436.14,435.22Z" style="fill:#263238"></path><path d="M437.25,418.44a17.55,17.55,0,0,1,1.22,15.73" style="fill:none;stroke:#263238;stroke-miterlimit:10"></path><path d="M427.3,428c1.44-1.14,3.25-1.25,4.06-.24s.3,2.75-1.14,3.9-3.25,1.25-4.05.24S425.87,429.14,427.3,428Z" style="fill:#263238"></path><path d="M438.36,415.32a17.54,17.54,0,0,1-8.56,13.25" style="fill:none;stroke:#263238;stroke-miterlimit:10"></path><path d="M347.15,439.63s-5.43-4-14.91,3.84-14.92,29.85-14.92,29.85,20.93,2.65,31.2-3.33,16.11-19.18,16.41-23S355.91,438.23,347.15,439.63Z" style="fill:#92E3A9;stroke:#263238;stroke-miterlimit:10"></path><path d="M354.27,419.33a8,8,0,0,0-7.6-7c-7-.65-23,.84-23,.84s3.23,16.41,7.15,25,20.28,10,24.52,7.74S366.79,439.19,365,433,354.27,419.33,354.27,419.33Z" style="fill:#92E3A9;stroke:#263238;stroke-miterlimit:10"></path><path d="M374.31,429.16a40.68,40.68,0,0,1,18.2.58c10.21,2.59,16,12,15.23,15.58s-13.39,11.82-18.19,15.43S375,463,368.74,458.37s-11.41-8.19-8.81-14.39S374.31,429.16,374.31,429.16Z" style="fill:#92E3A9;stroke:#263238;stroke-miterlimit:10"></path><path d="M363.22,440.87c6.26-2.12,13.92-11,16.75-17a49.7,49.7,0,0,0,3.41-9.18,41,41,0,0,0,.42-15.55s-21.59,3.09-27.66,8-5.7,11.74-5.77,14.56,3.3,17.69,8,20.37C360,443,360.81,441.68,363.22,440.87Z" style="fill:#92E3A9;stroke:#263238;stroke-miterlimit:10"></path><path d="M360,448.67S375.62,453,381,464s-3.71,26.43-4.7,29.69-13.43-4.61-20.62-14.14S355.07,450.37,360,448.67Z" style="fill:#92E3A9;stroke:#263238;stroke-miterlimit:10"></path><polygon points="363.72 450.89 373.69 451.9 364.93 446.97 362.24 439.26 364.98 433 357.87 437.76 352.92 434.9 352.96 440.19 351.35 443.63 346.8 447.15 351.78 446.54 353.33 450.4 352.69 454.97 357.35 450.75 363.72 450.89" style="fill:#263238"></polygon><path d="M381.61,446.78c-1.83.16-3.4-.75-3.51-2s1.28-2.46,3.11-2.62,3.4.76,3.51,2.05S383.44,446.62,381.61,446.78Z" style="fill:#263238"></path><path d="M378.1,444.74s-10,3.71-18.17-.76" style="fill:none;stroke:#263238;stroke-miterlimit:10"></path><path d="M370.65,434.66c-.81,1-2.06,1.42-2.79.85s-.66-1.87.15-2.91,2.05-1.42,2.78-.85S371.46,433.62,370.65,434.66Z" style="fill:#263238"></path><path d="M367.86,435.51s-2.9,7-9.27,9.16" style="fill:none;stroke:#263238;stroke-miterlimit:10"></path><path d="M359.79,427.49c.11,1.31-.55,2.43-1.47,2.51s-1.76-.93-1.87-2.24.55-2.43,1.47-2.51S359.68,426.17,359.79,427.49Z" style="fill:#263238"></path><path d="M358.32,430s2.62,7.13-.61,13" style="fill:none;stroke:#263238;stroke-miterlimit:10"></path><path d="M348,431c1.33,1.27,1.69,3,.8,4s-2.69.67-4-.59-1.69-3.05-.8-4S346.68,429.71,348,431Z" style="fill:#263238"></path><path d="M348.81,435s9.37,5,11.48,14.11" style="fill:none;stroke:#263238;stroke-miterlimit:10"></path><path d="M367.53,460.62c-.73-1.68-.35-3.46.83-4s2.74.44,3.46,2.13.35,3.46-.83,4S368.25,462.31,367.53,460.62Z" style="fill:#263238"></path><path d="M358.25,446.6a17.52,17.52,0,0,1,10.49,11.77" style="fill:none;stroke:#263238;stroke-miterlimit:10"></path><path d="M356.46,460.24c.45-1.78,1.83-3,3.08-2.65s1.91,2,1.46,3.79-1.82,3-3.08,2.66S356,462,356.46,460.24Z" style="fill:#263238"></path><path d="M357.58,443.46a17.59,17.59,0,0,1,1.22,15.73" style="fill:none;stroke:#263238;stroke-miterlimit:10"></path><path d="M347.63,453c1.44-1.15,3.25-1.26,4.06-.25s.3,2.75-1.14,3.9-3.25,1.26-4.05.25S346.2,454.16,347.63,453Z" style="fill:#263238"></path><path d="M358.69,440.34a17.56,17.56,0,0,1-8.56,13.25" style="fill:none;stroke:#263238;stroke-miterlimit:10"></path></g><g id="freepik--cherry-blossom--inject-157"><path d="M297.59,244.77a84.87,84.87,0,0,0,12.16-18.5c2.14-4.31,9.21-19.15,17.41-37.15l74.93-64.47-68.85,51c12.48-28,19.58-53.23,21-64C356.81,91.72,362.34,62,362.34,62s-1.7,8.59-4.35,20.49c-4.16,18.61-10.67,45.29-16.67,59.72C336.58,153.58,327.37,175,317,195.55l-14.53-69.66,10,78.45c-9.9,18.7-20.4,35.33-28.83,41.13-9,6.18-34.71,26-63,48.19L204,209.12l9.51,90.12c-28.8,22.57-59,46.47-76.16,60.08l1.44-16.66-12.22-57,2.66-57.75-5.91,59.66s9.14,49,9.37,55.62c.17,4.63-5.16,18.62-8.35,26.57-35.32,28.47-87.5,72.36-86.18,79l5.13,29.35s35.85-46.16,40.57-50c1.51-1.24,9.21-8.43,19.1-17.67l47.15-3.94,35.4-4.38,27.13-12.82-26.59,6-36.39,3.83-36.37,1.65c19.6-18.31,42-39.09,43.75-39.6,3.08-.89,9.26,9,12.9,12.94s4.49-4.63,4.49-4.63-12-15.7-7.52-20.32S286,256.46,286,256.46s67.29-3.58,76.74-5.47,56.94-10.59,56.94-10.59-7.59-.31-23.86,1S297.59,244.77,297.59,244.77Z" style="fill:#263238"></path><path d="M207,197.33s3.63-4-1.8-12.23S186,179.15,186,179.15s-7.26,8-3.36,16.7,13.95,14.49,17,15.05S207.41,204.45,207,197.33Z" style="fill:#92E3A9;stroke:#263238;stroke-miterlimit:10"></path><path d="M222.64,204.74a6.41,6.41,0,0,0,6.2-5.47,31.88,31.88,0,0,0,.2-10.67s-15.68-3.34-22.84-.94-6.32,12.07-4.87,15.66,4.39,9.73,9.48,8.81S222.64,204.74,222.64,204.74Z" style="fill:#92E3A9;stroke:#263238;stroke-miterlimit:10"></path><path d="M213.09,219.9a32.79,32.79,0,0,1-2,14.49c-2.93,7.92-10.92,11.77-13.73,10.82s-8.3-11.69-10.77-15.82-.53-11.84,3.66-16.41,7.51-8.41,12.24-5.82S213.09,219.9,213.09,219.9Z" style="fill:#92E3A9;stroke:#263238;stroke-miterlimit:10"></path><path d="M204.63,217.09s4.43,7.2,9.43,11.35a32.94,32.94,0,0,0,11.07,5.8s5.39-16.66,4-22.78-6.44-8.25-8.46-9.3-10.64-1.22-14.24,1.25S204.63,217.09,204.63,217.09Z" style="fill:#92E3A9;stroke:#263238;stroke-miterlimit:10"></path><path d="M198.73,206.82s-4.8,12.1-14,15.48-17.17-5.4-19.69-6.47,1.21-10.13,9.43-15.05S197.79,202.74,198.73,206.82Z" style="fill:#92E3A9;stroke:#263238;stroke-miterlimit:10"></path><polygon points="196.64 209.61 194.99 217.47 199.66 210.9 206.05 209.41 210.81 212.13 207.62 206.05 210.32 202.34 206.09 201.93 203.48 200.35 201.06 196.41 201.12 200.44 197.91 201.35 194.32 200.45 197.3 204.53 196.64 209.61" style="fill:#263238"></polygon><path d="M198.4,224.24c0-1.48.89-2.66,1.93-2.64s1.85,1.23,1.82,2.71-.89,2.65-1.92,2.63S198.37,225.71,198.4,224.24Z" style="fill:#263238"></path><path d="M200.33,221.6s-2.12-8.25,2.15-14.44" style="fill:none;stroke:#263238;stroke-miterlimit:10"></path><ellipse cx="209.94" cy="215.55" rx="1.35" ry="1.91" transform="translate(-90.95 216.84) rotate(-46)" style="fill:#263238"></ellipse><path d="M208.57,214.22S203.21,211.3,202,206" style="fill:none;stroke:#263238;stroke-miterlimit:10"></path><path d="M215.66,208.45c-1.06,0-1.9-.64-1.88-1.39s.88-1.32,1.94-1.3,1.9.65,1.88,1.39S216.71,208.48,215.66,208.45Z" style="fill:#263238"></path><path d="M213.78,207.06s-5.92,1.49-10.35-1.58" style="fill:none;stroke:#263238;stroke-miterlimit:10"></path><path d="M213.87,198.75c-1.12,1-2.57,1.1-3.25.31s-.31-2.21.82-3.16,2.57-1.09,3.24-.31S215,197.8,213.87,198.75Z" style="fill:#263238"></path><path d="M210.62,199.06s-4.77,7.05-12.23,8" style="fill:none;stroke:#263238;stroke-miterlimit:10"></path><path d="M188.55,211.82c1.41-.44,2.79,0,3.1,1s-.59,2.15-2,2.58-2.8,0-3.11-1S187.14,212.25,188.55,211.82Z" style="fill:#263238"></path><path d="M200.53,205.6A14.06,14.06,0,0,1,190.24,213" style="fill:none;stroke:#263238;stroke-miterlimit:10"></path><path d="M189.79,203c1.38.5,2.21,1.7,1.86,2.68s-1.77,1.35-3.15.84-2.22-1.71-1.86-2.68S188.41,202.51,189.79,203Z" style="fill:#263238"></path><path d="M203.09,205.33a14.08,14.08,0,0,1-12.66-.36" style="fill:none;stroke:#263238;stroke-miterlimit:10"></path><path d="M196.31,196.58c.79,1.24.72,2.7-.15,3.26s-2.22,0-3-1.24-.72-2.7.15-3.26S195.51,195.34,196.31,196.58Z" style="fill:#263238"></path><path d="M205.49,206.48a14.06,14.06,0,0,1-9.85-8" style="fill:none;stroke:#263238;stroke-miterlimit:10"></path><path d="M296.1,145.35s-2.29,4.88,5.33,11.14,20.09,0,20.09,0,4.58-9.77-1.72-16.94-17.6-9.73-20.67-9.37S293.64,138.66,296.1,145.35Z" style="fill:#92E3A9;stroke:#263238;stroke-miterlimit:10"></path><path d="M279,142.88a6.38,6.38,0,0,0-4.31,7.05,31.86,31.86,0,0,0,2.95,10.25s16-1.44,22.1-5.85,2.48-13.39,0-16.39-7.06-8-11.66-5.62S279,142.88,279,142.88Z" style="fill:#92E3A9;stroke:#263238;stroke-miterlimit:10"></path><path d="M283.65,125.57a32.69,32.69,0,0,1-2.36-14.43c.46-8.44,7-14.47,9.92-14.4s11.38,8.72,15,11.94,4,11.15,1.34,16.75-4.68,10.26-10,9.18S283.65,125.57,283.65,125.57Z" style="fill:#92E3A9;stroke:#263238;stroke-miterlimit:10"></path><path d="M292.57,125.75s-6.37-5.56-12.37-8.06a33.08,33.08,0,0,0-12.28-2.27s-.24,17.51,2.91,22.94,8.6,6,10.83,6.39,10.53-2,13.24-5.4S292.57,125.75,292.57,125.75Z" style="fill:#92E3A9;stroke:#263238;stroke-miterlimit:10"></path><path d="M301.24,133.82s1-13,8.81-18.92,18,.09,20.71.37,1.84,10-4.56,17.17S303.34,137.45,301.24,133.82Z" style="fill:#92E3A9;stroke:#263238;stroke-miterlimit:10"></path><polygon points="302.41 130.55 301.66 122.54 299.13 130.2 293.48 133.51 288.12 132.32 292.97 137.19 291.48 141.53 295.64 140.68 298.6 141.41 302.08 144.46 300.83 140.63 303.63 138.81 307.33 138.61 303.28 135.59 302.41 130.55" style="fill:#263238"></polygon><path d="M296.41,117.09c.4,1.42-.07,2.8-1.07,3.08s-2.13-.62-2.54-2,.07-2.8,1.06-3.08S296,115.67,296.41,117.09Z" style="fill:#263238"></path><path d="M295.34,120.17s4.46,7.26,2.21,14.44" style="fill:none;stroke:#263238;stroke-miterlimit:10"></path><path d="M288.55,127.6c.94.48,1.43,1.4,1.1,2.06s-1.37.82-2.32.34-1.43-1.4-1.1-2.06A1.71,1.71,0,0,1,288.55,127.6Z" style="fill:#263238"></path><path d="M289.65,129.66s6,1.21,8.65,5.89" style="fill:none;stroke:#263238;stroke-miterlimit:10"></path><path d="M284.58,137.27c1-.29,2,0,2.2.77s-.45,1.53-1.47,1.81-2,0-2.2-.77S283.56,137.55,284.58,137.27Z" style="fill:#263238"></path><path d="M286.78,138s5.22-3.18,10.35-1.54" style="fill:none;stroke:#263238;stroke-miterlimit:10"></path><path d="M289.15,146c.79-1.24,2.13-1.8,3-1.24s.95,2,.16,3.25-2.14,1.81-3,1.25S288.36,147.25,289.15,146Z" style="fill:#263238"></path><path d="M292.16,144.76s2.48-8.15,9.34-11.23" style="fill:none;stroke:#263238;stroke-miterlimit:10"></path><path d="M309.48,126.05c-1.21.83-2.67.81-3.26,0s-.07-2.22,1.15-3,2.67-.82,3.26,0S310.7,125.21,309.48,126.05Z" style="fill:#263238"></path><path d="M299.87,135.53a14.12,14.12,0,0,1,7.65-10.1" style="fill:none;stroke:#263238;stroke-miterlimit:10"></path><path d="M310.9,134.82c-1.47-.08-2.62-1-2.57-2s1.29-1.82,2.76-1.74,2.62,1,2.57,2S312.37,134.9,310.9,134.82Z" style="fill:#263238"></path><path d="M297.51,136.54a14.08,14.08,0,0,1,12.2-3.4" style="fill:none;stroke:#263238;stroke-miterlimit:10"></path><path d="M306.57,142.89c-1.12-.95-1.49-2.36-.82-3.15s2.12-.66,3.25.29,1.49,2.36.82,3.16S307.69,143.85,306.57,142.89Z" style="fill:#263238"></path><path d="M294.88,136.14a14.09,14.09,0,0,1,11.76,4.7" style="fill:none;stroke:#263238;stroke-miterlimit:10"></path><path d="M261.34,235.27s-2.86,6.09,6.63,13.89,25,0,25,0,5.7-12.17-2.14-21.1S268.94,216,265.11,216.41,258.27,226.94,261.34,235.27Z" style="fill:#92E3A9;stroke:#263238;stroke-miterlimit:10"></path><path d="M240,232.2a8,8,0,0,0-5.36,8.79,39.61,39.61,0,0,0,3.68,12.76s19.89-1.79,27.52-7.28,3.09-16.69,0-20.42-8.8-10-14.53-7S240,232.2,240,232.2Z" style="fill:#92E3A9;stroke:#263238;stroke-miterlimit:10"></path><path d="M245.83,210.64a40.65,40.65,0,0,1-2.94-18c.57-10.51,8.67-18,12.36-17.94s14.17,10.86,18.64,14.88,5,13.9,1.67,20.87-5.83,12.78-12.42,11.43S245.83,210.64,245.83,210.64Z" style="fill:#92E3A9;stroke:#263238;stroke-miterlimit:10"></path><path d="M256.93,210.87s-7.92-6.93-15.4-10a41,41,0,0,0-15.3-2.83s-.3,21.81,3.63,28.58,10.71,7.44,13.49,8,13.11-2.47,16.49-6.73S256.93,210.87,256.93,210.87Z" style="fill:#92E3A9;stroke:#263238;stroke-miterlimit:10"></path><path d="M267.73,220.92s1.26-16.16,11-23.57,22.42.12,25.8.45,2.29,12.51-5.68,21.39S270.35,225.43,267.73,220.92Z" style="fill:#92E3A9;stroke:#263238;stroke-miterlimit:10"></path><polygon points="269.19 216.84 268.26 206.87 265.11 216.41 258.06 220.54 251.39 219.05 257.43 225.11 255.58 230.52 260.76 229.46 264.45 230.38 268.78 234.16 267.23 229.4 270.71 227.13 275.32 226.88 270.27 223.12 269.19 216.84" style="fill:#263238"></polygon><path d="M261.72,200.08c.5,1.76-.09,3.48-1.33,3.84s-2.66-.78-3.17-2.55.09-3.48,1.33-3.84S261.21,198.31,261.72,200.08Z" style="fill:#263238"></path><path d="M260.39,203.92s5.55,9,2.75,18" style="fill:none;stroke:#263238;stroke-miterlimit:10"></path><path d="M251.93,213.17c1.17.59,1.78,1.74,1.37,2.57s-1.71,1-2.89.42-1.78-1.74-1.36-2.57S250.75,212.58,251.93,213.17Z" style="fill:#263238"></path><path d="M253.3,215.74s7.45,1.5,10.78,7.33" style="fill:none;stroke:#263238;stroke-miterlimit:10"></path><path d="M247,225.21c1.27-.36,2.5.07,2.75,1s-.57,1.9-1.83,2.26-2.5-.07-2.75-1S245.72,225.57,247,225.21Z" style="fill:#263238"></path><path d="M249.73,226.17s6.5-3.95,12.89-1.92" style="fill:none;stroke:#263238;stroke-miterlimit:10"></path><path d="M252.67,236.09c1-1.55,2.67-2.24,3.76-1.55s1.18,2.51.19,4.06-2.66,2.24-3.75,1.55S251.69,237.64,252.67,236.09Z" style="fill:#263238"></path><path d="M256.43,234.54s3.09-10.15,11.63-14" style="fill:none;stroke:#263238;stroke-miterlimit:10"></path><path d="M278,211.23c-1.52,1-3.34,1-4.07,0s-.09-2.77,1.43-3.81,3.33-1,4.06.06S279.52,210.2,278,211.23Z" style="fill:#263238"></path><path d="M266,223a17.56,17.56,0,0,1,9.53-12.57" style="fill:none;stroke:#263238;stroke-miterlimit:10"></path><path d="M279.77,222.16c-1.84-.09-3.27-1.22-3.2-2.5s1.61-2.26,3.44-2.17,3.26,1.22,3.2,2.51S281.6,222.26,279.77,222.16Z" style="fill:#263238"></path><path d="M263.09,224.3a17.52,17.52,0,0,1,15.19-4.22" style="fill:none;stroke:#263238;stroke-miterlimit:10"></path><path d="M274.38,232.22c-1.4-1.19-1.86-2.95-1-3.93s2.65-.83,4,.36,1.86,2.95,1,3.93S275.78,233.41,274.38,232.22Z" style="fill:#263238"></path><path d="M259.81,223.81a17.54,17.54,0,0,1,14.65,5.85" style="fill:none;stroke:#263238;stroke-miterlimit:10"></path><path d="M123.43,239.79s-17.15-6.55-19.29-11.15-2.65-12.87-2.65-12.87,7.11-4.6,14.74-.94,12.49,13.67,9.85,19.32a9.75,9.75,0,0,0,1.28,10.16Z" style="fill:#92E3A9;stroke:#263238;stroke-miterlimit:10"></path><path d="M123.43,239.79s-2-10.27,4.95-16,15.11-8,19.66-5.16,3.72,5.91-.94,13-18,10.76-19.74,12.63S123.43,239.79,123.43,239.79Z" style="fill:#92E3A9;stroke:#263238;stroke-miterlimit:10"></path><path d="M120,250.31a46.74,46.74,0,0,1-18.06,4c-10.35.18-21.91-8-16.56-15s15.62-9,23.68-8.11,20.38,11,18.27,13.13A82.4,82.4,0,0,1,120,250.31Z" style="fill:#92E3A9;stroke:#263238;stroke-miterlimit:10"></path><path d="M120,250.31s-12,6.34-10.16,10.54,16.07,4.25,23.49,0,1.31-10.83.45-14.53-6.45-2.06-6.45-2.06Z" style="fill:#92E3A9;stroke:#263238;stroke-miterlimit:10"></path><path d="M133,251.9s3.29,2.07,8.8,1.32,14.18-3.05,18.63-8.69S149,232,140.65,233.7s-13.29,10.61-13.29,10.61S130,252.36,133,251.9Z" style="fill:#92E3A9;stroke:#263238;stroke-miterlimit:10"></path><path d="M127.36,244.31s3.84,1.28,4.87-1.31,2.44-7.65,2.44-7.65l-4.86,1.37-3.73-2.57-2.6-1.57-1.46,4-4.86,1.36,5.56,5.08.79,3.08-1.31,1.7Z" style="fill:#263238;stroke:#263238;stroke-miterlimit:10"></path><path d="M113.89,226.39c1.16,1.09,1.47,2.64.7,3.45s-2.32.58-3.48-.51-1.46-2.63-.7-3.44S112.74,225.3,113.89,226.39Z" style="fill:#263238"></path><path d="M114.59,229.84s8.11,4.3,10,12.2" style="fill:none;stroke:#263238;stroke-miterlimit:10"></path><path d="M139.23,229.92c-1,1.23-2.53,1.64-3.39.93s-.74-2.29.27-3.51,2.54-1.64,3.4-.92S140.24,228.7,139.23,229.92Z" style="fill:#263238"></path><path d="M135.84,230.85s-3.77,8.37-11.52,10.72" style="fill:none;stroke:#263238;stroke-miterlimit:10"></path><path d="M119.7,226.93c.4.83,1.2,1.27,1.78,1a1.48,1.48,0,0,0,.33-2c-.4-.83-1.2-1.27-1.78-1A1.49,1.49,0,0,0,119.7,226.93Z" style="fill:#263238"></path><path d="M121.48,227.91s1,5.22,5,7.61" style="fill:none;stroke:#263238;stroke-miterlimit:10"></path><path d="M116,244.82c.87-.29,1.42-1,1.23-1.63s-1.07-.88-2-.6-1.42,1-1.22,1.62S115.15,245.1,116,244.82Z" style="fill:#263238"></path><path d="M117.25,243.19s5.3-.22,8.23-3.87" style="fill:none;stroke:#263238;stroke-miterlimit:10"></path><path d="M135.86,241.26c-.9-.17-1.73.2-1.85.84s.51,1.29,1.41,1.46,1.73-.2,1.85-.84S136.76,241.43,135.86,241.26Z" style="fill:#263238"></path><path d="M134,242.1s-4.76-2.36-9.09-.55" style="fill:none;stroke:#263238;stroke-miterlimit:10"></path><path d="M129.15,227c-.38.84-.21,1.74.38,2s1.37-.19,1.75-1a1.5,1.5,0,0,0-.37-2C130.32,225.73,129.53,226.19,129.15,227Z" style="fill:#263238"></path><path d="M129.53,229s-3.4,4.08-2.66,8.71" style="fill:none;stroke:#263238;stroke-miterlimit:10"></path><path d="M150.77,279.7q-4.38,8.87-9,17.65c-3,5.86-6.13,11.7-9.51,17.47l-4.14-2.8c4-5.16,7.76-10.55,11.51-16S147.12,285.19,150.77,279.7Z" style="fill:#263238"></path><path d="M157.23,277.83a6.72,6.72,0,1,1-8.32-4.59A6.73,6.73,0,0,1,157.23,277.83Z" style="fill:#92E3A9;stroke:#263238;stroke-miterlimit:10"></path><path d="M144.72,276.5a23.28,23.28,0,0,0-.55,4.88,19,19,0,0,0,.68,5.54c1.46,5.07,9.14,0,11.83-3.41,0,0-4.83,1.39-6.07.71s.16-4.52.16-4.52a5.89,5.89,0,0,1-3.86,1.66C144.31,281.56,144.72,276.5,144.72,276.5Z" style="fill:#263238;stroke:#263238;stroke-miterlimit:10"></path><path d="M337.48,215.11q-9,4.2-18,8.25c-6,2.69-12.08,5.34-18.31,7.76l-1.5-4.77c6.31-1.57,12.64-3.43,18.94-5.33S331.21,217.14,337.48,215.11Z" style="fill:#263238"></path><path d="M343.7,217.67a6.73,6.73,0,1,1-3.66-8.78A6.73,6.73,0,0,1,343.7,217.67Z" style="fill:#92E3A9;stroke:#263238;stroke-miterlimit:10"></path><path d="M334.73,208.84a23.61,23.61,0,0,0-3.46,3.47,19.34,19.34,0,0,0-2.92,4.77c-2,4.88,7.17,5.67,11.38,4.69,0,0-4.64-1.92-5.19-3.23s2.94-3.43,2.94-3.43a5.93,5.93,0,0,1-4.06-1.1C331.26,212.55,334.73,208.84,334.73,208.84Z" style="fill:#263238;stroke:#263238;stroke-miterlimit:10"></path><path d="M387.07,179.38q-9.37-3.16-18.69-6.5c-6.22-2.24-12.42-4.51-18.59-7.08l2.22-4.48c5.64,3.23,11.5,6.27,17.36,9.26S381.14,176.5,387.07,179.38Z" style="fill:#263238"></path><circle cx="387.07" cy="179.38" r="6.72" transform="translate(-39.35 192.13) rotate(-26.58)" style="fill:#92E3A9;stroke:#263238;stroke-miterlimit:10"></circle><path d="M389.43,173a23.79,23.79,0,0,0-4.91.11,19.24,19.24,0,0,0-5.4,1.42c-4.83,2.13,1.25,9.06,5,11.26,0,0-2-4.6-1.52-5.92s4.5-.44,4.5-.44a5.9,5.9,0,0,1-2.16-3.61C384.36,173.23,389.43,173,389.43,173Z" style="fill:#263238;stroke:#263238;stroke-miterlimit:10"></path><path d="M278.15,167.88q8.7,4.71,17.33,9.58c5.74,3.27,11.46,6.56,17.11,10.14l-.23,5.89c-5-4.14-13-10-18.25-13.93S283.51,171.73,278.15,167.88Z" style="fill:#263238"></path><path d="M276.52,161.36a6.73,6.73,0,1,1-4.89,8.15A6.73,6.73,0,0,1,276.52,161.36Z" style="fill:#92E3A9;stroke:#263238;stroke-miterlimit:10"></path><path d="M274.74,173.82a23.81,23.81,0,0,0,4.85.73,19.13,19.13,0,0,0,5.57-.49c5.12-1.27.31-9.14-3-11.94,0,0,1.21,4.88.48,6.09s-4.51-.33-4.51-.33a5.93,5.93,0,0,1,1.53,3.93C279.78,174.41,274.74,173.82,274.74,173.82Z" style="fill:#263238;stroke:#263238;stroke-miterlimit:10"></path><path d="M306.55,114.26q9.06,8.51,18,17.17c5.93,5.8,11.82,11.62,17.54,17.77l-4.87,4c-4.76-6.63-9.87-13.16-15-19.63S311.83,120.64,306.55,114.26Z" style="fill:#263238"></path><path d="M306.66,105.82a8.44,8.44,0,1,1-8.55,8.34A8.44,8.44,0,0,1,306.66,105.82Z" style="fill:#92E3A9;stroke:#263238;stroke-miterlimit:10"></path><path d="M300.51,120.38a29.13,29.13,0,0,0,5.66,2.43,24.5,24.5,0,0,0,6.91,1.2c6.62.08,3.29-11,.2-15.46,0,0-.08,6.31-1.36,7.56s-5.37-1.85-5.37-1.85a7.43,7.43,0,0,1,.6,5.26C306.44,122.7,300.51,120.38,300.51,120.38Z" style="fill:#263238;stroke:#263238;stroke-miterlimit:10"></path><path d="M371.74,267q-9.37-3.16-18.7-6.5c-6.22-2.24-12.41-4.51-18.59-7.08l2.23-4.48c5.64,3.23,11.49,6.27,17.35,9.26S365.81,264.14,371.74,267Z" style="fill:#263238"></path><path d="M374.45,273.17a6.73,6.73,0,1,1,3.44-8.87A6.72,6.72,0,0,1,374.45,273.17Z" style="fill:#92E3A9;stroke:#263238;stroke-miterlimit:10"></path><path d="M374.09,260.59a23.7,23.7,0,0,0-4.9.11,19.07,19.07,0,0,0-5.4,1.42c-4.83,2.13,1.24,9.06,5,11.26,0,0-2-4.6-1.51-5.92s4.5-.44,4.5-.44a5.94,5.94,0,0,1-2.17-3.61C369,260.86,374.09,260.59,374.09,260.59Z" style="fill:#263238;stroke:#263238;stroke-miterlimit:10"></path><path d="M282.81,298q-9.37-3.17-18.7-6.5c-6.22-2.24-12.41-4.51-18.59-7.08l2.23-4.48c5.64,3.24,11.49,6.27,17.35,9.27S276.88,295.11,282.81,298Z" style="fill:#263238"></path><path d="M285.52,304.14a6.72,6.72,0,1,1,3.44-8.86A6.71,6.71,0,0,1,285.52,304.14Z" style="fill:#92E3A9;stroke:#263238;stroke-miterlimit:10"></path><path d="M285.16,291.56a23.7,23.7,0,0,0-4.9.11,19.22,19.22,0,0,0-5.41,1.42c-4.82,2.13,1.25,9.06,5,11.26,0,0-2-4.59-1.51-5.92s4.5-.44,4.5-.44a5.89,5.89,0,0,1-2.17-3.61C280.1,291.84,285.16,291.56,285.16,291.56Z" style="fill:#263238;stroke:#263238;stroke-miterlimit:10"></path><path d="M216.15,419.64q-8.61-4.86-17.15-9.88c-5.69-3.36-11.35-6.75-16.94-10.43l3-4c4.94,4.23,10.12,8.31,15.32,12.34S210.86,415.71,216.15,419.64Z" style="fill:#263238"></path><path d="M217.67,426.19a6.72,6.72,0,1,1,5-8.06A6.72,6.72,0,0,1,217.67,426.19Z" style="fill:#92E3A9;stroke:#263238;stroke-miterlimit:10"></path><path d="M219.67,413.77a23.32,23.32,0,0,0-4.84-.81,19,19,0,0,0-5.58.38c-5.14,1.19-.46,9.13,2.78,12,0,0-1.14-4.89-.38-6.1s4.5.41,4.5.41a5.91,5.91,0,0,1-1.45-3.95C214.64,413.09,219.67,413.77,219.67,413.77Z" style="fill:#263238;stroke:#263238;stroke-miterlimit:10"></path><path d="M185.26,251.57q8.09,5.7,16.06,11.57c5.32,3.92,10.61,7.87,15.79,12.09l-3.41,3.66c-4.48-4.71-9.23-9.29-14-13.84S190.12,256,185.26,251.57Z" style="fill:#263238"></path><path d="M184.42,244.9a6.72,6.72,0,1,1-5.83,7.51A6.71,6.71,0,0,1,184.42,244.9Z" style="fill:#92E3A9;stroke:#263238;stroke-miterlimit:10"></path><path d="M181.17,257.05a22.89,22.89,0,0,0,4.73,1.3,19.31,19.31,0,0,0,5.58.19c5.24-.67,1.39-9-1.54-12.22,0,0,.63,5-.24,6.11s-4.44-.86-4.44-.86a5.89,5.89,0,0,1,1.05,4.07C186.1,258.24,181.17,257.05,181.17,257.05Z" style="fill:#263238;stroke:#263238;stroke-miterlimit:10"></path><path d="M156.32,301.73q-6,4.68-12.06,9.25c-4,3-8.12,6-12.37,8.93L130,316.6c4.46-2.25,8.87-4.73,13.26-7.22S152,304.32,156.32,301.73Z" style="fill:#263238"></path><path d="M161.4,302.59a5.16,5.16,0,1,1-4.23-5.94A5.15,5.15,0,0,1,161.4,302.59Z" style="fill:#92E3A9;stroke:#263238;stroke-miterlimit:10"></path><path d="M153.19,297.51a18.07,18.07,0,0,0-2,3.19,14.54,14.54,0,0,0-1.37,4.07c-.67,4,6.34,3,9.32,1.56,0,0-3.81-.64-4.44-1.53s1.62-3.07,1.62-3.07a4.54,4.54,0,0,1-3.23-.13C151.23,300.88,153.19,297.51,153.19,297.51Z" style="fill:#263238;stroke:#263238;stroke-miterlimit:10"></path><path d="M105.28,326.54q7.38,1.77,14.74,3.68c4.9,1.28,9.79,2.59,14.69,4.13l-1.39,3.58c-4.54-2.09-9.22-4-13.9-5.89S110,328.33,105.28,326.54Z" style="fill:#263238"></path><path d="M102.78,322a5.16,5.16,0,1,1-2,7A5.16,5.16,0,0,1,102.78,322Z" style="fill:#92E3A9;stroke:#263238;stroke-miterlimit:10"></path><path d="M103.92,331.61a18.16,18.16,0,0,0,3.74-.42,14.59,14.59,0,0,0,4-1.46c3.55-2-1.57-6.83-4.57-8.26,0,0,1.87,3.37,1.57,4.42s-3.41.65-3.41.65a4.51,4.51,0,0,1,1.9,2.6C107.78,331.05,103.92,331.61,103.92,331.61Z" style="fill:#263238;stroke:#263238;stroke-miterlimit:10"></path><path d="M90.17,274.85q9.17,3.7,18.28,7.59c6.08,2.6,12.12,5.23,18.14,8.15l-.25,4.48c-5.44-3.56-13.34-7.07-19-10.4S95.92,278.07,90.17,274.85Z" style="fill:#263238"></path><path d="M87.82,268.55a6.72,6.72,0,1,1-4,8.65A6.72,6.72,0,0,1,87.82,268.55Z" style="fill:#92E3A9;stroke:#263238;stroke-miterlimit:10"></path><path d="M87.44,281.13a23.33,23.33,0,0,0,4.9.18,19.53,19.53,0,0,0,5.48-1.1c4.94-1.84-.72-9.12-4.3-11.54,0,0,1.75,4.71,1.16,6s-4.51.18-4.51.18a5.93,5.93,0,0,1,2,3.73C92.51,281.15,87.44,281.13,87.44,281.13Z" style="fill:#263238;stroke:#263238;stroke-miterlimit:10"></path><path d="M304.93,276s12.07-13.84,17.13-14.27,13,1.95,13,1.95,1.86,8.27-4.21,14.17-17.14,7-21.52,2.58a9.78,9.78,0,0,0-10-2.3Z" style="fill:#92E3A9;stroke:#263238;stroke-miterlimit:10"></path><path d="M304.93,276s10.33,1.68,13.29,10.15,2.3,16.94-1.93,20.24-6.83,1.45-11.91-5.37-3.88-20.64-5.05-22.89S304.93,276,304.93,276Z" style="fill:#92E3A9;stroke:#263238;stroke-miterlimit:10"></path><path d="M296.23,269.13a46.88,46.88,0,0,1,2.49-18.32c3.39-9.79,15.06-17.81,19.8-10.38s3.05,17.77-.56,25-17.32,15.36-18.63,12.63A84.31,84.31,0,0,1,296.23,269.13Z" style="fill:#92E3A9;stroke:#263238;stroke-miterlimit:10"></path><path d="M296.23,269.13s-1.81-13.46-6.38-13.18-9.54,13.63-8.15,22,9.72,5,13.48,5.43,4.15-5.34,4.15-5.34Z" style="fill:#92E3A9;stroke:#263238;stroke-miterlimit:10"></path><path d="M290.27,280.73s-3.07,2.38-4.27,7.81-2,14.37,1.74,20.48,15.67-6.39,17-14.81-5.39-16.13-5.39-16.13S290.88,277.77,290.27,280.73Z" style="fill:#92E3A9;stroke:#263238;stroke-miterlimit:10"></path><path d="M299.33,278.08s-2.52,3.16-.45,5,6.34,4.93,6.34,4.93l.4-5,3.7-2.62,2.37-1.9-3.25-2.75.39-5-6.68,3.47-3.17-.32L297.84,272Z" style="fill:#263238;stroke:#263238;stroke-miterlimit:10"></path><path d="M320.8,271.62c-1.42.71-3,.47-3.48-.53s.26-2.39,1.68-3.1,3-.46,3.47.54S322.22,270.91,320.8,271.62Z" style="fill:#263238"></path><path d="M317.32,271.09s-6.83,6.12-14.88,5.13" style="fill:none;stroke:#263238;stroke-miterlimit:10"></path><path d="M308.75,294.18c-.8-1.37-.66-2.94.3-3.5s2.4.09,3.2,1.47.66,2.94-.31,3.5S309.55,295.55,308.75,294.18Z" style="fill:#263238"></path><path d="M309.05,290.68s-6.56-6.42-6.09-14.51" style="fill:none;stroke:#263238;stroke-miterlimit:10"></path><path d="M318.29,276.89c-.91.09-1.6.68-1.53,1.33s.85,1.09,1.77,1,1.6-.68,1.54-1.33S319.21,276.79,318.29,276.89Z" style="fill:#263238"></path><path d="M316.76,278.22s-5.24-.9-8.87,2.07" style="fill:none;stroke:#263238;stroke-miterlimit:10"></path><path d="M302.77,267.26c0,.92.46,1.68,1.1,1.71s1.2-.69,1.24-1.61-.45-1.69-1.1-1.71S302.81,266.34,302.77,267.26Z" style="fill:#263238"></path><path d="M303.87,269s-1.62,5.06.8,9.07" style="fill:none;stroke:#263238;stroke-miterlimit:10"></path><path d="M299.27,287.11a1.48,1.48,0,0,0-.15-2c-.55-.33-1.38,0-1.86.82s-.41,1.7.15,2S298.79,287.9,299.27,287.11Z" style="fill:#263238"></path><path d="M299.12,285.08s3.85-3.65,3.65-8.34" style="fill:none;stroke:#263238;stroke-miterlimit:10"></path><path d="M314.94,285.72a1.48,1.48,0,0,0-2-.33c-.46.46-.29,1.35.36,2a1.49,1.49,0,0,0,2,.33C315.76,287.26,315.6,286.37,314.94,285.72Z" style="fill:#263238"></path><path d="M312.94,285.39s-2.65-4.6-7.25-5.5" style="fill:none;stroke:#263238;stroke-miterlimit:10"></path><path d="M134.46,413.45s2.93,3.11,9.76-.69S150.07,398,150.07,398s-5.87-6.22-13-3.66-12.28,10.14-12.91,12.51S128.81,413.32,134.46,413.45Z" style="fill:#92E3A9;stroke:#263238;stroke-miterlimit:10"></path><path d="M127.67,425.33a5.07,5.07,0,0,0,4,5.23,25.2,25.2,0,0,0,8.41.8s3.58-12.19,2.11-18-9.15-5.71-12.07-4.78-7.95,2.88-7.53,7S127.67,425.33,127.67,425.33Z" style="fill:#92E3A9;stroke:#263238;stroke-miterlimit:10"></path><path d="M116.26,416.88A25.77,25.77,0,0,1,105,414.42c-6.09-2.79-8.64-9.33-7.73-11.49s9.73-5.85,13.14-7.56,9.39.29,12.74,3.88,6.2,6.43,3.86,10S116.26,416.88,116.26,416.88Z" style="fill:#92E3A9;stroke:#263238;stroke-miterlimit:10"></path><path d="M119,410.36s-5.95,3.07-9.53,6.77a26,26,0,0,0-5.24,8.39S117.05,430.79,122,430s6.9-4.59,7.85-6.12,1.6-8.33-.13-11.33S119,410.36,119,410.36Z" style="fill:#92E3A9;stroke:#263238;stroke-miterlimit:10"></path><path d="M127.46,406.32s-9.27-4.52-11.39-12,5.3-13.24,6.29-15.16,7.94,1.56,11.33,8.35S130.74,405.83,127.46,406.32Z" style="fill:#92E3A9;stroke:#263238;stroke-miterlimit:10"></path><polygon points="125.38 404.51 119.27 402.73 124.18 406.82 124.97 411.95 122.54 415.55 127.53 413.39 130.3 415.75 130.88 412.43 132.28 410.47 135.54 408.79 132.35 408.6 131.83 406.01 132.75 403.22 129.35 405.33 125.38 404.51" style="fill:#263238"></polygon><path d="M113.72,405c1.17.11,2,.86,2,1.68s-1.09,1.39-2.25,1.28-2-.87-2-1.68S112.56,404.91,113.72,405Z" style="fill:#263238"></path><path d="M115.69,406.7s6.64-1.18,11.27,2.57" style="fill:none;stroke:#263238;stroke-miterlimit:10"></path><path d="M119.19,413.86a1.33,1.33,0,0,1,1.83-.21c.4.44.21,1.25-.42,1.8a1.35,1.35,0,0,1-1.84.21C118.37,415.22,118.56,414.42,119.19,413.86Z" style="fill:#263238"></path><path d="M121,413.65s2.63-4.06,6.86-4.67" style="fill:none;stroke:#263238;stroke-miterlimit:10"></path><path d="M125.15,419.6c.09-.84.63-1.46,1.21-1.41s1,.78.91,1.62-.62,1.46-1.21,1.4S125.07,420.43,125.15,419.6Z" style="fill:#263238"></path><path d="M126.36,418.19s-.82-4.76,1.88-8.07" style="fill:none;stroke:#263238;stroke-miterlimit:10"></path><path d="M132.92,418.77c-.69-.95-.71-2.1,0-2.59s1.75-.11,2.44.84a1.88,1.88,0,0,1,.05,2.58C134.7,420.08,133.61,419.71,132.92,418.77Z" style="fill:#263238"></path><path d="M132.88,416.18S127.59,412,127.32,406" style="fill:none;stroke:#263238;stroke-miterlimit:10"></path><path d="M124.12,398c.26,1.14-.18,2.21-1,2.39s-1.66-.59-1.92-1.73.18-2.21,1-2.39S123.87,396.84,124.12,398Z" style="fill:#263238"></path><path d="M128.32,407.82a11.15,11.15,0,0,1-5.22-8.57" style="fill:none;stroke:#263238;stroke-miterlimit:10"></path><path d="M131,399.49c-.48,1.06-1.48,1.65-2.23,1.31s-1-1.48-.48-2.54,1.49-1.65,2.23-1.31S131.48,398.43,131,399.49Z" style="fill:#263238"></path><path d="M128.37,409.86a11.19,11.19,0,0,1,1-10" style="fill:none;stroke:#263238;stroke-miterlimit:10"></path><path d="M135.69,405c-1,.55-2.18.41-2.56-.32s.13-1.75,1.16-2.3a1.87,1.87,0,0,1,2.56.31C137.24,403.44,136.72,404.47,135.69,405Z" style="fill:#263238"></path><path d="M127.32,411.68a11.15,11.15,0,0,1,6.88-7.3" style="fill:none;stroke:#263238;stroke-miterlimit:10"></path><path d="M164.25,398.77S149,394,146.93,390.06s-3-11-3-11,5.94-4.36,12.75-1.56,11.54,11.24,9.53,16.27a8.49,8.49,0,0,0,1.63,8.76Z" style="fill:#92E3A9;stroke:#263238;stroke-miterlimit:10"></path><path d="M164.25,398.77S162,390,167.73,384.65s12.72-7.72,16.82-5.48,3.52,4.94-.16,11.36-15.11,10.25-16.5,12S164.25,398.77,164.25,398.77Z" style="fill:#92E3A9;stroke:#263238;stroke-miterlimit:10"></path><path d="M161.83,408.07a40.7,40.7,0,0,1-15.48,4.38c-9,.69-19.43-5.84-15.14-12.19s13.11-8.6,20.15-8.24,18.26,8.48,16.53,10.47A71.47,71.47,0,0,1,161.83,408.07Z" style="fill:#92E3A9;stroke:#263238;stroke-miterlimit:10"></path><path d="M161.83,408.07s-10.11,6.11-8.29,9.67,14.17,2.88,20.4-1.15.58-9.47-.35-12.64-5.7-1.46-5.7-1.46Z" style="fill:#92E3A9;stroke:#263238;stroke-miterlimit:10"></path><path d="M173.15,408.8a12.13,12.13,0,0,0,7.71.7c4.75-.94,12.16-3.38,15.74-8.5s-10.54-10.28-17.71-8.4-11,9.89-11,9.89S170.58,409.34,173.15,408.8Z" style="fill:#92E3A9;stroke:#263238;stroke-miterlimit:10"></path><path d="M167.89,402.49s3.39.92,4.16-1.38,1.73-6.77,1.73-6.77l-4.14,1.44-3.38-2-2.33-1.23-1.07,3.55-4.15,1.43,5.09,4.13.84,2.63-1.06,1.54Z" style="fill:#263238;stroke:#263238;stroke-miterlimit:10"></path><path d="M155.29,387.61c1.06.89,1.41,2.22.78,3s-2,.63-3-.26-1.4-2.22-.78-3S154.23,386.72,155.29,387.61Z" style="fill:#263238"></path><path d="M156.07,390.57s7.26,3.33,9.26,10.09" style="fill:none;stroke:#263238;stroke-miterlimit:10"></path><path d="M177.47,389.4c-.82,1.11-2.12,1.54-2.9,1s-.76-1.95.06-3.06,2.12-1.55,2.9-1S178.28,388.28,177.47,389.4Z" style="fill:#263238"></path><path d="M174.57,390.37s-2.85,7.46-9.46,9.89" style="fill:none;stroke:#263238;stroke-miterlimit:10"></path><path d="M160.36,387.79c.39.69,1.11,1,1.6.76s.57-1.06.18-1.76-1.11-1-1.6-.76S160,387.09,160.36,387.79Z" style="fill:#263238"></path><path d="M162,388.55s1.1,4.49,4.72,6.35" style="fill:none;stroke:#263238;stroke-miterlimit:10"></path><path d="M158.07,403.5c.74-.28,1.18-.94,1-1.47s-1-.71-1.72-.43-1.18.95-1,1.48S157.32,403.79,158.07,403.5Z" style="fill:#263238"></path><path d="M159.05,402s4.6-.46,7-3.78" style="fill:none;stroke:#263238;stroke-miterlimit:10"></path><path d="M175.12,399.41c-.8-.1-1.5.26-1.57.82s.51,1.1,1.3,1.2,1.49-.26,1.57-.82S175.91,399.52,175.12,399.41Z" style="fill:#263238"></path><path d="M173.55,400.23s-4.25-1.8-7.92,0" style="fill:none;stroke:#263238;stroke-miterlimit:10"></path><path d="M168.57,387.39a1.3,1.3,0,0,0,.43,1.72c.52.2,1.18-.24,1.47-1a1.29,1.29,0,0,0-.43-1.71C169.52,386.2,168.86,386.64,168.57,387.39Z" style="fill:#263238"></path><path d="M169,389.11s-2.75,3.71-1.87,7.69" style="fill:none;stroke:#263238;stroke-miterlimit:10"></path><path d="M426.47,234.72s12.06-13.83,17.12-14.26,13,1.95,13,1.95,1.87,8.27-4.2,14.16-17.14,7-21.53,2.59a9.73,9.73,0,0,0-10-2.3Z" style="fill:#92E3A9;stroke:#263238;stroke-miterlimit:10"></path><path d="M426.47,234.72s10.32,1.69,13.28,10.16,2.3,16.94-1.93,20.23-6.83,1.46-11.91-5.37-3.88-20.63-5-22.88S426.47,234.72,426.47,234.72Z" style="fill:#92E3A9;stroke:#263238;stroke-miterlimit:10"></path><path d="M417.77,227.91a46.81,46.81,0,0,1,2.48-18.33c3.4-9.78,15.06-17.81,19.8-10.37s3.05,17.77-.55,25-17.33,15.36-18.63,12.63A82,82,0,0,1,417.77,227.91Z" style="fill:#92E3A9;stroke:#263238;stroke-miterlimit:10"></path><path d="M417.77,227.91s-1.81-13.46-6.39-13.18-9.54,13.63-8.15,22,9.72,5,13.48,5.44,4.16-5.34,4.16-5.34Z" style="fill:#92E3A9;stroke:#263238;stroke-miterlimit:10"></path><path d="M411.8,239.51s-3.07,2.38-4.27,7.81-2,14.37,1.74,20.48,15.67-6.39,17-14.81-5.38-16.13-5.38-16.13S412.41,236.55,411.8,239.51Z" style="fill:#92E3A9;stroke:#263238;stroke-miterlimit:10"></path><path d="M420.87,236.86s-2.53,3.16-.45,5,6.34,4.93,6.34,4.93l.39-5,3.7-2.62,2.37-1.9L430,234.51l.39-5L423.68,233l-3.16-.32-1.14-1.82Z" style="fill:#263238;stroke:#263238;stroke-miterlimit:10"></path><path d="M442.33,230.4c-1.42.7-3,.46-3.47-.54s.25-2.38,1.67-3.09,3-.47,3.48.53S443.75,229.69,442.33,230.4Z" style="fill:#263238"></path><path d="M438.86,229.86S432,236,424,235" style="fill:none;stroke:#263238;stroke-miterlimit:10"></path><path d="M430.28,253c-.8-1.37-.66-2.94.31-3.5s2.39.09,3.19,1.47.66,2.94-.3,3.5S431.08,254.33,430.28,253Z" style="fill:#263238"></path><path d="M430.59,249.46s-6.57-6.43-6.1-14.52" style="fill:none;stroke:#263238;stroke-miterlimit:10"></path><path d="M439.83,235.66c-.92.1-1.61.69-1.54,1.33s.86,1.09,1.77,1,1.6-.69,1.54-1.33S440.74,235.57,439.83,235.66Z" style="fill:#263238"></path><path d="M438.29,237s-5.24-.89-8.87,2.08" style="fill:none;stroke:#263238;stroke-miterlimit:10"></path><path d="M424.31,226c0,.92.45,1.68,1.1,1.71s1.2-.7,1.24-1.61-.46-1.69-1.11-1.71S424.34,225.12,424.31,226Z" style="fill:#263238"></path><path d="M425.41,227.75s-1.63,5.05.79,9.07" style="fill:none;stroke:#263238;stroke-miterlimit:10"></path><path d="M420.8,245.89c.47-.79.41-1.7-.14-2s-1.39,0-1.86.82a1.48,1.48,0,0,0,.14,2C419.49,247,420.33,246.68,420.8,245.89Z" style="fill:#263238"></path><path d="M420.66,243.86s3.85-3.66,3.64-8.34" style="fill:none;stroke:#263238;stroke-miterlimit:10"></path><path d="M436.48,244.5c-.66-.64-1.56-.79-2-.33a1.49,1.49,0,0,0,.36,2c.66.64,1.56.79,2,.33A1.49,1.49,0,0,0,436.48,244.5Z" style="fill:#263238"></path><path d="M434.47,244.17s-2.65-4.6-7.25-5.51" style="fill:none;stroke:#263238;stroke-miterlimit:10"></path><path d="M356.41,68.59s-16.32-8.42-17.94-13.23-1.21-13.08-1.21-13.08,7.59-3.79,14.76.7,10.9,15,7.64,20.29a9.77,9.77,0,0,0,.15,10.24Z" style="fill:#92E3A9;stroke:#263238;stroke-miterlimit:10"></path><path d="M356.41,68.59s-.83-10.43,6.68-15.33S379,47,383.21,50.31s3,6.29-2.37,12.84-19.12,8.69-21,10.36S356.41,68.59,356.41,68.59Z" style="fill:#92E3A9;stroke:#263238;stroke-miterlimit:10"></path><path d="M351.87,78.66a46.79,46.79,0,0,1-18.39,2c-10.31-1-20.89-10.38-14.8-16.75s16.52-7.2,24.43-5.43,19,13.16,16.7,15.07A83.51,83.51,0,0,1,351.87,78.66Z" style="fill:#92E3A9;stroke:#263238;stroke-miterlimit:10"></path><path d="M351.87,78.66s-12.65,5-11.28,9.35,15.51,6,23.34,2.65S366.44,80,366,76.28s-6.18-2.77-6.18-2.77Z" style="fill:#92E3A9;stroke:#263238;stroke-miterlimit:10"></path><path d="M364.55,81.68s3.05,2.42,8.61,2.29,14.43-1.47,19.47-6.58-9.95-13.69-18.43-13-14.39,9.07-14.39,9.07S361.53,81.8,364.55,81.68Z" style="fill:#92E3A9;stroke:#263238;stroke-miterlimit:10"></path><path d="M359.81,73.51s3.67,1.7,5-.76,3.27-7.33,3.27-7.33l-5,.82-3.43-3-2.4-1.85-1.89,3.81-5,.82,5,5.67.44,3.14-1.49,1.55Z" style="fill:#263238;stroke:#263238;stroke-miterlimit:10"></path><path d="M348.42,54.21c1,1.21,1.16,2.78.31,3.5s-2.38.33-3.4-.89-1.17-2.78-.31-3.5S347.39,53,348.42,54.21Z" style="fill:#263238"></path><path d="M348.73,57.71s7.58,5.18,8.53,13.23" style="fill:none;stroke:#263238;stroke-miterlimit:10"></path><path d="M373.21,60.53c-1.15,1.1-2.7,1.34-3.48.54s-.48-2.35.66-3.45,2.7-1.35,3.48-.54S374.35,59.43,373.21,60.53Z" style="fill:#263238"></path><path d="M369.73,61.07s-4.67,7.9-12.64,9.38" style="fill:none;stroke:#263238;stroke-miterlimit:10"></path><path d="M354.13,55.39c.31.86,1.05,1.39,1.66,1.17s.85-1.09.55-2-1-1.39-1.66-1.17A1.48,1.48,0,0,0,354.13,55.39Z" style="fill:#263238"></path><path d="M355.79,56.56s.38,5.3,4.13,8.12" style="fill:none;stroke:#263238;stroke-miterlimit:10"></path><path d="M348.49,72.76c.9-.19,1.52-.85,1.4-1.48s-1-1-1.87-.82-1.52.84-1.39,1.48S347.59,72.94,348.49,72.76Z" style="fill:#263238"></path><path d="M349.89,71.28s5.29.37,8.61-2.94" style="fill:none;stroke:#263238;stroke-miterlimit:10"></path><path d="M368.6,71.42c-.88-.27-1.74,0-1.93.63s.36,1.34,1.24,1.61,1.74,0,1.93-.63S369.48,71.69,368.6,71.42Z" style="fill:#263238"></path><path d="M366.67,72.05s-4.47-2.87-9-1.56" style="fill:none;stroke:#263238;stroke-miterlimit:10"></path><path d="M363.51,56.53a1.48,1.48,0,0,0,.16,2c.55.33,1.38,0,1.85-.83a1.49,1.49,0,0,0-.15-2C364.81,55.37,364,55.74,363.51,56.53Z" style="fill:#263238"></path><path d="M363.67,58.56s-3.84,3.67-3.62,8.35" style="fill:none;stroke:#263238;stroke-miterlimit:10"></path><path d="M351.74,132.78s-2.29,4.89,5.33,11.15,20.09,0,20.09,0,4.58-9.78-1.72-16.95-17.6-9.72-20.67-9.36S349.28,126.09,351.74,132.78Z" style="fill:#92E3A9;stroke:#263238;stroke-miterlimit:10"></path><path d="M334.65,130.31a6.4,6.4,0,0,0-4.31,7.06,31.86,31.86,0,0,0,3,10.25s16-1.44,22.1-5.85,2.48-13.4,0-16.39-7.07-8-11.66-5.62S334.65,130.31,334.65,130.31Z" style="fill:#92E3A9;stroke:#263238;stroke-miterlimit:10"></path><path d="M339.29,113a32.69,32.69,0,0,1-2.36-14.43c.46-8.44,7-14.47,9.92-14.4s11.38,8.72,15,11.94,4,11.16,1.34,16.76-4.68,10.26-10,9.17S339.29,113,339.29,113Z" style="fill:#92E3A9;stroke:#263238;stroke-miterlimit:10"></path><path d="M348.2,113.19s-6.36-5.56-12.36-8.06a32.84,32.84,0,0,0-12.28-2.27s-.24,17.51,2.91,22.94,8.6,6,10.83,6.39,10.53-2,13.24-5.4S348.2,113.19,348.2,113.19Z" style="fill:#92E3A9;stroke:#263238;stroke-miterlimit:10"></path><path d="M356.87,121.26s1-13,8.82-18.92,18,.09,20.71.36,1.84,10-4.56,17.17S359,124.88,356.87,121.26Z" style="fill:#92E3A9;stroke:#263238;stroke-miterlimit:10"></path><polygon points="358.05 117.98 357.3 109.98 354.77 117.64 349.11 120.95 343.76 119.76 348.61 124.62 347.12 128.97 351.28 128.12 354.24 128.85 357.72 131.89 356.47 128.06 359.27 126.25 362.96 126.05 358.92 123.02 358.05 117.98" style="fill:#263238"></polygon><path d="M352.05,104.53c.4,1.41-.07,2.79-1.07,3.08s-2.13-.63-2.54-2,.07-2.8,1.06-3.09S351.64,103.11,352.05,104.53Z" style="fill:#263238"></path><path d="M351,107.61s4.46,7.26,2.21,14.43" style="fill:none;stroke:#263238;stroke-miterlimit:10"></path><path d="M344.19,115c.94.47,1.43,1.4,1.1,2.06a1.72,1.72,0,0,1-2.32.34c-.94-.48-1.43-1.4-1.1-2.06A1.71,1.71,0,0,1,344.19,115Z" style="fill:#263238"></path><path d="M345.29,117.1s6,1.2,8.65,5.89" style="fill:none;stroke:#263238;stroke-miterlimit:10"></path><path d="M340.22,124.7c1-.29,2,.06,2.2.77S342,127,341,127.29a1.72,1.72,0,0,1-2.21-.77C338.54,125.8,339.2,125,340.22,124.7Z" style="fill:#263238"></path><path d="M342.42,125.47s5.22-3.17,10.35-1.54" style="fill:none;stroke:#263238;stroke-miterlimit:10"></path><path d="M344.79,133.44c.78-1.24,2.13-1.8,3-1.25s.95,2,.16,3.26-2.14,1.8-3,1.25S344,134.69,344.79,133.44Z" style="fill:#263238"></path><path d="M347.8,132.19s2.48-8.15,9.34-11.22" style="fill:none;stroke:#263238;stroke-miterlimit:10"></path><path d="M365.12,113.48c-1.21.83-2.67.81-3.26,0s-.07-2.23,1.15-3.06,2.67-.81,3.26.05S366.34,112.65,365.12,113.48Z" style="fill:#263238"></path><path d="M355.51,123a14.11,14.11,0,0,1,7.65-10.09" style="fill:none;stroke:#263238;stroke-miterlimit:10"></path><path d="M366.54,122.26c-1.47-.08-2.62-1-2.57-2s1.29-1.81,2.76-1.73,2.62,1,2.57,2S368,122.33,366.54,122.26Z" style="fill:#263238"></path><path d="M353.15,124a14.09,14.09,0,0,1,12.2-3.39" style="fill:none;stroke:#263238;stroke-miterlimit:10"></path><path d="M362.21,130.33c-1.13-1-1.49-2.36-.82-3.16s2.12-.66,3.25.3,1.49,2.36.82,3.15S363.33,131.28,362.21,130.33Z" style="fill:#263238"></path><path d="M350.52,123.58a14.09,14.09,0,0,1,11.76,4.7" style="fill:none;stroke:#263238;stroke-miterlimit:10"></path><path d="M392.23,240.53s3.77,3.86,12.31-1.08,7.08-18.8,7.08-18.8-7.54-7.72-16.47-4.35-15.29,13.07-16,16.06S385.11,240.48,392.23,240.53Z" style="fill:#92E3A9;stroke:#263238;stroke-miterlimit:10"></path><path d="M383.91,255.66a6.41,6.41,0,0,0,5.1,6.52,31.73,31.73,0,0,0,10.63.83s4.27-15.46,2.29-22.74-11.67-7-15.34-5.79-10,3.8-9.36,8.94S383.91,255.66,383.91,255.66Z" style="fill:#92E3A9;stroke:#263238;stroke-miterlimit:10"></path><path d="M369.34,245.23A32.62,32.62,0,0,1,355,242.37c-7.74-3.4-11.1-11.61-10-14.35s12.16-7.59,16.43-9.81,11.86.17,16.17,4.63,7.95,8,5.08,12.56S369.34,245.23,369.34,245.23Z" style="fill:#92E3A9;stroke:#263238;stroke-miterlimit:10"></path><path d="M372.65,237s-7.45,4-11.9,8.75a33,33,0,0,0-6.44,10.7s16.31,6.37,22.51,5.33,8.61-6,9.78-7.89,1.85-10.56-.4-14.3S372.65,237,372.65,237Z" style="fill:#92E3A9;stroke:#263238;stroke-miterlimit:10"></path><path d="M383.25,231.67s-11.79-5.51-14.62-14.9S375,200,376.25,197.5s10.05,1.81,14.48,10.31S387.38,231,383.25,231.67Z" style="fill:#92E3A9;stroke:#263238;stroke-miterlimit:10"></path><polygon points="380.59 229.42 372.84 227.31 379.12 232.37 380.23 238.83 377.23 243.42 383.49 240.59 387.04 243.51 387.7 239.31 389.43 236.81 393.5 234.62 389.48 234.44 388.76 231.18 389.87 227.65 385.62 230.38 380.59 229.42" style="fill:#263238"></polygon><path d="M365.89,230.31c1.46.12,2.59,1.05,2.51,2.08s-1.34,1.78-2.81,1.66-2.59-1-2.51-2.08S364.42,230.2,365.89,230.31Z" style="fill:#263238"></path><path d="M368.4,232.39s8.36-1.62,14.29,3" style="fill:none;stroke:#263238;stroke-miterlimit:10"></path><ellipse cx="373.87" cy="242.35" rx="1.91" ry="1.35" transform="translate(-65.37 317.03) rotate(-42.6)" style="fill:#263238"></ellipse><path d="M375.28,241.06s3.23-5.18,8.55-6" style="fill:none;stroke:#263238;stroke-miterlimit:10"></path><path d="M380.62,248.48c.08-1.06.76-1.86,1.5-1.8s1.27,1,1.18,2-.76,1.85-1.5,1.79S380.53,249.53,380.62,248.48Z" style="fill:#263238"></path><path d="M382.12,246.68s-1.14-6,2.19-10.23" style="fill:none;stroke:#263238;stroke-miterlimit:10"></path><path d="M390.4,247.27c-.88-1.18-.93-2.64-.11-3.26s2.22-.18,3.11,1,.94,2.63.11,3.26S391.29,248.44,390.4,247.27Z" style="fill:#263238"></path><path d="M390.29,244s-6.75-5.19-7.22-12.69" style="fill:none;stroke:#263238;stroke-miterlimit:10"></path><path d="M378.87,221.21c.35,1.44-.18,2.8-1.19,3s-2.11-.71-2.46-2.14.18-2.79,1.19-3S378.52,219.78,378.87,221.21Z" style="fill:#263238"></path><path d="M384.36,233.55a14.1,14.1,0,0,1-6.75-10.71" style="fill:none;stroke:#263238;stroke-miterlimit:10"></path><path d="M387.58,223c-.59,1.36-1.84,2.11-2.79,1.7s-1.24-1.84-.65-3.19,1.83-2.11,2.78-1.7S388.17,221.62,387.58,223Z" style="fill:#263238"></path><path d="M384.48,236.12a14.12,14.12,0,0,1,1.11-12.62" style="fill:none;stroke:#263238;stroke-miterlimit:10"></path><path d="M393.62,229.86c-1.29.72-2.74.57-3.25-.34s.13-2.22,1.42-2.93,2.74-.57,3.24.33S394.9,229.15,393.62,229.86Z" style="fill:#263238"></path><path d="M383.19,238.44a14.08,14.08,0,0,1,8.53-9.36" style="fill:none;stroke:#263238;stroke-miterlimit:10"></path><path d="M232.57,385.58s3.78,3.86,12.31-1.07,7.08-18.8,7.08-18.8-7.54-7.73-16.47-4.35-15.28,13.06-16,16.06S225.45,385.53,232.57,385.58Z" style="fill:#92E3A9;stroke:#263238;stroke-miterlimit:10"></path><path d="M224.25,400.72a6.4,6.4,0,0,0,5.1,6.51,31.73,31.73,0,0,0,10.63.83s4.27-15.45,2.29-22.74-11.67-7-15.33-5.79-10,3.8-9.37,9S224.25,400.72,224.25,400.72Z" style="fill:#92E3A9;stroke:#263238;stroke-miterlimit:10"></path><path d="M209.68,390.28a32.62,32.62,0,0,1-14.34-2.86c-7.74-3.4-11.1-11.6-10-14.35s12.16-7.59,16.43-9.81,11.86.17,16.17,4.63,8,8,5.08,12.56S209.68,390.28,209.68,390.28Z" style="fill:#92E3A9;stroke:#263238;stroke-miterlimit:10"></path><path d="M213,382s-7.45,4-11.89,8.75a32.93,32.93,0,0,0-6.45,10.7s16.31,6.37,22.51,5.33,8.61-5.94,9.78-7.89,1.85-10.55-.4-14.29S213,382,213,382Z" style="fill:#92E3A9;stroke:#263238;stroke-miterlimit:10"></path><path d="M223.59,376.72s-11.79-5.51-14.62-14.9,6.41-16.81,7.62-19.27,10,1.81,14.48,10.31S227.72,376,223.59,376.72Z" style="fill:#92E3A9;stroke:#263238;stroke-miterlimit:10"></path><polygon points="220.94 374.48 213.18 372.36 219.46 377.42 220.57 383.88 217.57 388.48 223.83 385.64 227.38 388.56 228.04 384.37 229.77 381.86 233.84 379.67 229.82 379.49 229.1 376.24 230.21 372.7 225.96 375.43 220.94 374.48" style="fill:#263238"></polygon><path d="M206.23,375.36c1.47.12,2.59,1.05,2.51,2.08s-1.34,1.78-2.81,1.67-2.59-1.05-2.51-2.08S204.76,375.25,206.23,375.36Z" style="fill:#263238"></path><path d="M208.74,377.44s8.36-1.62,14.29,3" style="fill:none;stroke:#263238;stroke-miterlimit:10"></path><path d="M213.31,386.41a1.7,1.7,0,0,1,2.31-.3c.51.55.28,1.57-.49,2.28a1.43,1.43,0,1,1-1.82-2Z" style="fill:#263238"></path><path d="M215.62,386.11s3.23-5.18,8.55-6" style="fill:none;stroke:#263238;stroke-miterlimit:10"></path><path d="M221,393.53c.09-1,.76-1.86,1.5-1.8s1.27,1,1.18,2-.76,1.86-1.5,1.79S220.87,394.58,221,393.53Z" style="fill:#263238"></path><path d="M222.46,391.73s-1.14-6,2.19-10.23" style="fill:none;stroke:#263238;stroke-miterlimit:10"></path><path d="M230.75,392.32c-.89-1.17-.94-2.63-.11-3.26s2.21-.18,3.1,1,.94,2.63.11,3.26S231.63,393.5,230.75,392.32Z" style="fill:#263238"></path><path d="M230.64,389.06s-6.76-5.18-7.23-12.69" style="fill:none;stroke:#263238;stroke-miterlimit:10"></path><path d="M219.21,366.27c.35,1.43-.18,2.79-1.19,3s-2.11-.71-2.46-2.14.18-2.79,1.19-3S218.86,364.84,219.21,366.27Z" style="fill:#263238"></path><path d="M224.71,378.6A14.09,14.09,0,0,1,218,367.89" style="fill:none;stroke:#263238;stroke-miterlimit:10"></path><path d="M227.92,368c-.59,1.35-1.84,2.11-2.79,1.69s-1.24-1.84-.65-3.19,1.83-2.11,2.78-1.7S228.51,366.68,227.92,368Z" style="fill:#263238"></path><path d="M224.82,381.17a14.12,14.12,0,0,1,1.11-12.62" style="fill:none;stroke:#263238;stroke-miterlimit:10"></path><path d="M234,374.92c-1.29.71-2.74.56-3.25-.34s.13-2.22,1.42-2.94,2.74-.57,3.24.34S235.24,374.2,234,374.92Z" style="fill:#263238"></path><path d="M223.53,383.49a14.08,14.08,0,0,1,8.53-9.36" style="fill:none;stroke:#263238;stroke-miterlimit:10"></path></g></svg>
