<svg xmlns="http://www.w3.org/2000/svg" viewBox="0 0 750 500"><g id="freepik--background-complete--inject-408"><path d="M58.85,331.79a25.06,25.06,0,0,1-1.25-2.55,35.12,35.12,0,0,0-8.19-10.8,25.11,25.11,0,0,1-2.12-1.89,10.86,10.86,0,0,1,2.36,1.61,28.93,28.93,0,0,1,8.29,10.92A10.84,10.84,0,0,1,58.85,331.79Z" style="fill:#e0e0e0"></path><path d="M63.39,330.43a10.86,10.86,0,0,1-1.17-2.35,48,48,0,0,1-3.34-12.17,10.41,10.41,0,0,1-.19-2.61,15.42,15.42,0,0,1,.56,2.55c.31,1.58.77,3.75,1.42,6.11s1.36,4.47,1.9,6A14.5,14.5,0,0,1,63.39,330.43Z" style="fill:#e0e0e0"></path><path d="M74,313.3c.06.06-.68.87-1.72,2.29a29.44,29.44,0,0,0-3.35,6,29.12,29.12,0,0,0-1.83,6.61c-.27,1.74-.31,2.84-.4,2.84a10.09,10.09,0,0,1,0-2.89,24.59,24.59,0,0,1,1.71-6.77,24.91,24.91,0,0,1,3.55-6A9.83,9.83,0,0,1,74,313.3Z" style="fill:#e0e0e0"></path><path d="M269.93,295.62a25.06,25.06,0,0,1-1.25-2.55,36.62,36.62,0,0,0-3.57-5.79,36.16,36.16,0,0,0-4.62-5,26.1,26.1,0,0,1-2.12-1.9,10.49,10.49,0,0,1,2.37,1.61A29,29,0,0,1,269,292.91,11,11,0,0,1,269.93,295.62Z" style="fill:#e0e0e0"></path><path d="M274.47,294.26a10.6,10.6,0,0,1-1.17-2.34A49.41,49.41,0,0,1,270,279.74a10.4,10.4,0,0,1-.19-2.61,15.42,15.42,0,0,1,.56,2.55c.31,1.58.77,3.75,1.42,6.12s1.36,4.46,1.9,6A14.5,14.5,0,0,1,274.47,294.26Z" style="fill:#e0e0e0"></path><path d="M285.09,277.13c.06.06-.68.87-1.72,2.3A28.57,28.57,0,0,0,278.19,292c-.27,1.75-.31,2.85-.4,2.84a10.09,10.09,0,0,1,0-2.89,24.5,24.5,0,0,1,5.26-12.77A10.09,10.09,0,0,1,285.09,277.13Z" style="fill:#e0e0e0"></path><path d="M417.48,353.85a25.06,25.06,0,0,1-1.25-2.55A35.44,35.44,0,0,0,408,340.5a25.11,25.11,0,0,1-2.12-1.89,10.86,10.86,0,0,1,2.36,1.61,28.93,28.93,0,0,1,8.29,10.92A10.84,10.84,0,0,1,417.48,353.85Z" style="fill:#e0e0e0"></path><path d="M422,352.49a10.86,10.86,0,0,1-1.17-2.35A48,48,0,0,1,417.51,338a10.4,10.4,0,0,1-.19-2.61,15.42,15.42,0,0,1,.56,2.55c.31,1.58.77,3.75,1.42,6.12s1.36,4.46,1.9,6A14.5,14.5,0,0,1,422,352.49Z" style="fill:#e0e0e0"></path><path d="M432.64,335.36c.06.06-.68.87-1.72,2.29a28.67,28.67,0,0,0-5.18,12.6c-.27,1.74-.31,2.84-.4,2.84a10.09,10.09,0,0,1,0-2.89,24.45,24.45,0,0,1,1.71-6.76,24.8,24.8,0,0,1,3.55-6A9.83,9.83,0,0,1,432.64,335.36Z" style="fill:#e0e0e0"></path><path d="M562.82,305.7a25.06,25.06,0,0,1-1.25-2.55,36.36,36.36,0,0,0-3.57-5.8,36.75,36.75,0,0,0-4.62-5,27.47,27.47,0,0,1-2.12-1.89,10.62,10.62,0,0,1,2.37,1.6A28.9,28.9,0,0,1,561.91,303,10.34,10.34,0,0,1,562.82,305.7Z" style="fill:#e0e0e0"></path><path d="M567.36,304.34a11.82,11.82,0,0,1-1.17-2.35,49.49,49.49,0,0,1-3.34-12.17,10.48,10.48,0,0,1-.19-2.62,16.09,16.09,0,0,1,.56,2.56c.31,1.58.77,3.75,1.42,6.11s1.36,4.47,1.9,6A14.41,14.41,0,0,1,567.36,304.34Z" style="fill:#e0e0e0"></path><path d="M578,287.2c.06.07-.68.88-1.72,2.3a28.67,28.67,0,0,0-5.18,12.6c-.27,1.74-.31,2.84-.4,2.84a10.12,10.12,0,0,1,0-2.89,24.59,24.59,0,0,1,1.71-6.77,24.91,24.91,0,0,1,3.55-6A10.09,10.09,0,0,1,578,287.2Z" style="fill:#e0e0e0"></path><path d="M717.76,345.63c-.08,0-.47-1-1.25-2.55a35.3,35.3,0,0,0-8.18-10.8,27.47,27.47,0,0,1-2.12-1.89,10.54,10.54,0,0,1,2.36,1.6,29.06,29.06,0,0,1,8.29,10.93A10.5,10.5,0,0,1,717.76,345.63Z" style="fill:#e0e0e0"></path><path d="M722.31,344.26a10.6,10.6,0,0,1-1.17-2.34,48,48,0,0,1-2.07-6,50.15,50.15,0,0,1-1.28-6.19,10.71,10.71,0,0,1-.18-2.62,17.21,17.21,0,0,1,.56,2.55c.3,1.58.77,3.75,1.42,6.12s1.36,4.47,1.9,6A16.1,16.1,0,0,1,722.31,344.26Z" style="fill:#e0e0e0"></path><path d="M732.92,327.13c.07.06-.67.87-1.71,2.3a29.51,29.51,0,0,0-3.36,6A29.18,29.18,0,0,0,726,342c-.26,1.74-.31,2.84-.39,2.84a10.12,10.12,0,0,1,0-2.89,24.48,24.48,0,0,1,5.26-12.78A10.23,10.23,0,0,1,732.92,327.13Z" style="fill:#e0e0e0"></path><rect x="162.74" y="217.42" width="12.45" height="42.8" transform="translate(337.92 477.65) rotate(180)" style="fill:#e0e0e0"></rect><path d="M216.18,217.28s-.61-.41.73-2.17-.73-2.72-.73-2.72c-5.89,3.4-14.1,0-14.1,0s9.69-3,10.91-5.84c.92-2.13-.7-2.37-1.57-2.35,1-.11,3.13-.46,3.78-1.59.86-1.5-2.51-3.26-2.51-3.26a2.64,2.64,0,0,0,0-2.31c-.56-1.5-13.18-3.67-13.18-3.67,3.67.4,5-3.26,5-3.26s6.25.13,7.73-2.31-1-3.13-5.15-5.17S193.74,173,193.74,173s5.77-.55,7.36-1.91.12-1.63.12-1.63c6.87.68,4.54-3,4.54-3a30.65,30.65,0,0,1-14.1-9.1s4.29-1,6.5-3-1.84-2.58-1.84-2.58,8.09-1.09,3.43-4.08c-3.54-2.27-9.2-5.33-11-6.24,1.93.7,6.31-.14,6.31-.14,5.15-2.31,0-5.71,0-5.71-6-3.4-14.83-12-14.83-12s4.41,2.31,6.62,1.63-2.45-3.39-2.45-3.39,2.33.67,3.31,0-2.58-3.81-2.58-3.81c-5.28-3.43-11.8-12.44-14.52-16.32-2.73,3.88-9.24,12.89-14.53,16.32,0,0-3.55,3.13-2.57,3.81s3.31,0,3.31,0-4.66,2.71-2.45,3.39,6.62-1.63,6.62-1.63-8.83,8.56-14.84,12c0,0-5.15,3.4,0,5.71,0,0,4.38.84,6.31.14-1.76.91-7.42,4-11,6.24-4.66,3,3.43,4.08,3.43,4.08s-4.05.54-1.84,2.58,6.5,3,6.5,3a30.72,30.72,0,0,1-14.1,9.1s-2.33,3.67,4.53,3c0,0-1.47.27.13,1.63s7.35,1.91,7.35,1.91-9.19,7.6-13.36,9.64-6.62,2.72-5.15,5.17,7.72,2.31,7.72,2.31,1.35,3.66,5,3.26c0,0-12.63,2.17-13.18,3.67a2.64,2.64,0,0,0,0,2.31s-3.37,1.76-2.51,3.26c.65,1.13,2.79,1.48,3.78,1.59-.88,0-2.49.22-1.57,2.35,1.22,2.85,10.91,5.84,10.91,5.84s-8.22,3.4-14.1,0c0,0-2.09,1-.74,2.72s.74,2.17.74,2.17S122,215,123.38,218.5s8.46,5.71,8.46,5.71-4,.68-2.82,2.85,6.38,4.76,12,5.3,13.24-1.49,13.24-1.49-5.14,2.72-1.59,4.21,7.6-1.9,7.6-1.9-.73,3.48,2.21,2.28a20,20,0,0,0,5.39-3.5s.92,5.12,2.76,3.89c1.84,1.23,2.75-3.89,2.75-3.89a20.11,20.11,0,0,0,5.4,3.5c2.94,1.2,2.2-2.28,2.2-2.28s4,3.4,7.61,1.9-1.6-4.21-1.6-4.21,7.6,2,13.24,1.49,10.79-3.12,12-5.3-2.82-2.85-2.82-2.85,7.11-2.17,8.46-5.71S216.18,217.28,216.18,217.28Z" style="fill:#e0e0e0"></path><rect x="52.72" y="224.33" width="10.44" height="35.89" transform="translate(115.88 484.56) rotate(180)" style="fill:#e0e0e0"></rect><path d="M97.53,224.22s-.51-.35.62-1.83a1.44,1.44,0,0,0-.62-2.28c-4.93,2.85-11.82,0-11.82,0s8.12-2.5,9.15-4.9c.77-1.78-.59-2-1.32-2,.83-.08,2.62-.38,3.17-1.33.72-1.25-2.11-2.73-2.11-2.73a2.23,2.23,0,0,0,0-1.94c-.46-1.25-11-3.08-11-3.08,3.09.34,4.22-2.73,4.22-2.73s5.24.11,6.47-1.94-.82-2.62-4.31-4.33-11.21-8.09-11.21-8.09,4.83-.45,6.17-1.59.1-1.37.1-1.37c5.76.57,3.8-2.51,3.8-2.51A25.72,25.72,0,0,1,77,174s3.6-.8,5.45-2.51-1.54-2.16-1.54-2.16,6.78-.91,2.88-3.42c-3-1.9-7.72-4.47-9.2-5.24,1.62.6,5.29-.11,5.29-.11,4.32-1.94,0-4.79,0-4.79-5-2.85-12.44-10-12.44-10s3.7,1.94,5.55,1.37-2-2.85-2-2.85,2,.57,2.77,0S71.52,141,71.52,141c-4.43-2.88-9.89-10.43-12.18-13.68-2.28,3.25-7.74,10.8-12.17,13.68,0,0-3,2.62-2.16,3.19s2.77,0,2.77,0-3.9,2.28-2.05,2.85,5.55-1.37,5.55-1.37-7.4,7.18-12.44,10c0,0-4.32,2.85,0,4.79,0,0,3.67.71,5.29.11-1.48.77-6.23,3.34-9.2,5.24-3.9,2.51,2.88,3.42,2.88,3.42s-3.39.45-1.54,2.16S41.72,174,41.72,174A25.72,25.72,0,0,1,29.9,181.6s-2,3.08,3.8,2.51c0,0-1.23.23.1,1.37S40,187.07,40,187.07s-7.71,6.38-11.2,8.09-5.56,2.28-4.32,4.33,6.47,1.94,6.47,1.94,1.13,3.07,4.22,2.73c0,0-10.59,1.83-11,3.08a2.23,2.23,0,0,0,0,1.94s-2.83,1.48-2.11,2.73c.55,1,2.34,1.25,3.17,1.33-.73,0-2.09.19-1.32,2,1,2.4,9.15,4.9,9.15,4.9s-6.89,2.85-11.82,0a1.44,1.44,0,0,0-.62,2.28c1.13,1.48.62,1.83.62,1.83s-2.57-1.94-1.44,1S26.81,230,26.81,230s-3.39.57-2.36,2.39,5.34,4,10.07,4.44,11.1-1.25,11.1-1.25-4.31,2.28-1.33,3.53,6.37-1.59,6.37-1.59-.62,2.91,1.85,1.91A16.66,16.66,0,0,0,57,236.52s.77,4.3,2.31,3.27c1.55,1,2.32-3.27,2.32-3.27a16.66,16.66,0,0,0,4.52,2.94c2.47,1,1.85-1.91,1.85-1.91s3.39,2.84,6.37,1.59-1.33-3.53-1.33-3.53,6.37,1.71,11.1,1.25,9-2.62,10.07-4.44S91.88,230,91.88,230s6-1.83,7.09-4.79S97.53,224.22,97.53,224.22Z" style="fill:#e0e0e0"></path><rect x="259.54" y="227.34" width="8.85" height="32.63" transform="translate(527.93 487.3) rotate(180)" style="fill:#e0e0e0"></rect><path d="M297.54,227.24s-.43-.29.53-1.55a1.22,1.22,0,0,0-.53-1.93c-4.18,2.42-10,0-10,0s6.89-2.13,7.76-4.16c.65-1.51-.5-1.68-1.12-1.67.7-.07,2.22-.32,2.69-1.13.61-1.06-1.79-2.32-1.79-2.32a1.87,1.87,0,0,0,0-1.64c-.39-1.06-9.37-2.61-9.37-2.61a3.56,3.56,0,0,0,3.57-2.32s4.45.1,5.5-1.64-.7-2.22-3.67-3.67-9.5-6.86-9.5-6.86,4.1-.39,5.23-1.36.09-1.16.09-1.16c4.88.49,3.22-2.12,3.22-2.12a21.84,21.84,0,0,1-10-6.48,12,12,0,0,0,4.62-2.12c1.57-1.45-1.31-1.84-1.31-1.84s5.76-.77,2.44-2.9c-2.52-1.61-6.54-3.79-7.8-4.44,1.38.51,4.49-.1,4.49-.1,3.66-1.64,0-4.06,0-4.06-4.27-2.41-10.55-8.5-10.55-8.5s3.14,1.64,4.71,1.16S275,159.4,275,159.4s1.66.49,2.36,0-1.83-2.7-1.83-2.7c-3.76-2.44-8.39-8.85-10.33-11.61-1.94,2.76-6.57,9.17-10.33,11.61,0,0-2.53,2.22-1.83,2.7s2.35,0,2.35,0-3.31,1.94-1.74,2.42,4.71-1.16,4.71-1.16-6.28,6.09-10.55,8.5c0,0-3.66,2.42,0,4.06,0,0,3.11.61,4.48.1-1.25.65-5.28,2.83-7.8,4.44-3.31,2.13,2.45,2.9,2.45,2.9s-2.88.39-1.31,1.84a12,12,0,0,0,4.62,2.12,21.84,21.84,0,0,1-10,6.48s-1.65,2.61,3.23,2.12c0,0-1,.2.09,1.16s5.23,1.36,5.23,1.36-6.54,5.41-9.51,6.86-4.7,1.93-3.66,3.67,5.49,1.64,5.49,1.64a3.56,3.56,0,0,0,3.58,2.32s-9,1.55-9.37,2.61a1.83,1.83,0,0,0,0,1.64s-2.4,1.26-1.79,2.32c.46.81,2,1.06,2.69,1.13-.62,0-1.77.16-1.12,1.67.87,2,7.76,4.16,7.76,4.16s-5.84,2.42-10,0a1.22,1.22,0,0,0-.52,1.93c1,1.26.52,1.55.52,1.55s-2.18-1.64-1.22.87,6,4.06,6,4.06-2.88.48-2,2,4.54,3.38,8.55,3.76,9.41-1.06,9.41-1.06-3.66,1.93-1.13,3,5.4-1.36,5.4-1.36-.52,2.48,1.57,1.63a14.31,14.31,0,0,0,3.84-2.5s.65,3.65,2,2.78c1.3.87,2-2.78,2-2.78a14.16,14.16,0,0,0,3.83,2.5c2.1.85,1.57-1.63,1.57-1.63s2.88,2.42,5.41,1.36-1.13-3-1.13-3,5.4,1.45,9.41,1.06,7.67-2.22,8.55-3.76-2-2-2-2,5.06-1.55,6-4.06S297.54,227.24,297.54,227.24Z" style="fill:#e0e0e0"></path><rect x="576.99" y="220.35" width="10.89" height="39.62" transform="translate(1164.86 480.31) rotate(180)" style="fill:#e0e0e0"></rect><path d="M623.72,220.22s-.53-.35.65-1.9a1.49,1.49,0,0,0-.65-2.37c-5.14,3-12.33,0-12.33,0s8.47-2.62,9.55-5.11c.8-1.87-.62-2.07-1.38-2.06.86-.09,2.73-.4,3.31-1.39.75-1.31-2.2-2.85-2.2-2.85a2.32,2.32,0,0,0,0-2c-.48-1.31-11.53-3.21-11.53-3.21,3.22.36,4.4-2.85,4.4-2.85s5.47.12,6.75-2-.86-2.74-4.5-4.52-11.69-8.43-11.69-8.43,5-.48,6.44-1.67.1-1.42.1-1.42c6,.59,4-2.62,4-2.62a26.81,26.81,0,0,1-12.33-8S606,167,608,165.21s-1.61-2.26-1.61-2.26,7.08-.95,3-3.57c-3.1-2-8.05-4.66-9.59-5.46,1.68.62,5.51-.12,5.51-.12,4.51-2,0-5,0-5-5.25-3-13-10.46-13-10.46s3.86,2,5.79,1.43-2.14-3-2.14-3,2,.59,2.89,0-2.25-3.33-2.25-3.33c-4.62-3-10.32-10.89-12.7-14.27-2.39,3.38-8.08,11.27-12.71,14.27,0,0-3.1,2.73-2.25,3.33s2.9,0,2.9,0-4.08,2.37-2.15,3,5.79-1.43,5.79-1.43-7.72,7.49-13,10.46c0,0-4.5,3,0,5,0,0,3.83.74,5.52.12-1.54.8-6.5,3.48-9.59,5.46-4.08,2.62,3,3.57,3,3.57s-3.54.47-1.61,2.26,5.68,2.61,5.68,2.61a26.81,26.81,0,0,1-12.33,8s-2,3.21,4,2.62c0,0-1.29.23.11,1.42s6.43,1.67,6.43,1.67-8,6.65-11.69,8.43-5.78,2.38-4.5,4.52,6.76,2,6.76,2,1.17,3.21,4.39,2.85c0,0-11,1.9-11.52,3.21a2.27,2.27,0,0,0,0,2s-3,1.54-2.2,2.85c.57,1,2.44,1.3,3.31,1.39-.77,0-2.18.19-1.38,2.06,1.07,2.49,9.54,5.11,9.54,5.11s-7.18,3-12.33,0a1.49,1.49,0,0,0-.64,2.37c1.18,1.55.64,1.9.64,1.9s-2.68-2-1.5,1.07,7.4,5,7.4,5-3.54.6-2.47,2.5,5.58,4.16,10.51,4.63,11.58-1.3,11.58-1.3-4.51,2.37-1.4,3.68,6.65-1.66,6.65-1.66-.64,3,1.93,2a17.56,17.56,0,0,0,4.72-3.06s.8,4.48,2.41,3.41c1.6,1.07,2.41-3.41,2.41-3.41a17.41,17.41,0,0,0,4.71,3.06c2.58,1,1.93-2,1.93-2s3.54,3,6.65,1.66-1.39-3.68-1.39-3.68,6.64,1.78,11.58,1.3,9.43-2.73,10.5-4.63-2.46-2.5-2.46-2.5,6.21-1.9,7.39-5S623.72,220.22,623.72,220.22Z" style="fill:#e0e0e0"></path><rect x="662.24" y="211.75" width="13.39" height="48.74" transform="translate(1337.87 472.24) rotate(180)" style="fill:#ebebeb"></rect><path d="M719.71,211.6s-.66-.44.79-2.34-.79-2.92-.79-2.92c-6.33,3.65-15.16,0-15.16,0s10.41-3.21,11.73-6.28c1-2.29-.75-2.55-1.69-2.53,1.06-.11,3.36-.49,4.06-1.71.93-1.61-2.7-3.51-2.7-3.51a2.83,2.83,0,0,0,0-2.48c-.59-1.61-14.17-4-14.17-4,4,.44,5.4-3.5,5.4-3.5s6.73.14,8.31-2.49-1.06-3.36-5.54-5.55S695.58,164,695.58,164s6.2-.59,7.91-2.05.13-1.75.13-1.75c7.39.73,4.88-3.21,4.88-3.21a33.07,33.07,0,0,1-15.16-9.79s4.62-1,7-3.22-2-2.77-2-2.77,8.7-1.17,3.69-4.39c-3.81-2.44-9.9-5.73-11.79-6.71,2.08.76,6.78-.15,6.78-.15,5.54-2.49,0-6.14,0-6.14-6.46-3.65-15.95-12.86-15.95-12.86s4.75,2.48,7.12,1.75-2.64-3.65-2.64-3.65,2.51.73,3.56,0-2.76-4.09-2.76-4.09c-5.69-3.69-12.69-13.38-15.62-17.54-2.93,4.16-9.94,13.85-15.62,17.54,0,0-3.82,3.36-2.77,4.09s3.56,0,3.56,0-5,2.92-2.64,3.65,7.12-1.75,7.12-1.75-9.49,9.21-15.95,12.86c0,0-5.54,3.65,0,6.14,0,0,4.71.91,6.78.15-1.89,1-8,4.27-11.79,6.71-5,3.22,3.69,4.39,3.69,4.39s-4.35.58-2,2.77,7,3.22,7,3.22A33,33,0,0,1,633,157s-2.5,3.94,4.88,3.21c0,0-1.58.29.13,1.75s7.91,2.05,7.91,2.05-9.89,8.18-14.37,10.37-7.12,2.92-5.53,5.55,8.3,2.49,8.3,2.49,1.45,3.94,5.41,3.5c0,0-13.58,2.34-14.18,4a2.83,2.83,0,0,0,0,2.48s-3.62,1.9-2.7,3.51c.7,1.22,3,1.6,4.07,1.71-.94,0-2.68.24-1.7,2.53,1.32,3.07,11.74,6.28,11.74,6.28s-8.84,3.65-15.16,0c0,0-2.24,1-.79,2.92s.79,2.34.79,2.34-3.3-2.48-1.85,1.32,9.1,6.13,9.1,6.13-4.35.73-3,3.07,6.85,5.11,12.91,5.7,14.24-1.61,14.24-1.61-5.54,2.92-1.71,4.53,8.17-2.05,8.17-2.05-.79,3.74,2.37,2.46a21.57,21.57,0,0,0,5.8-3.77s1,5.51,3,4.19c2,1.32,3-4.19,3-4.19a21.77,21.77,0,0,0,5.8,3.77c3.16,1.28,2.37-2.46,2.37-2.46s4.35,3.66,8.18,2.05-1.72-4.53-1.72-4.53,8.18,2.19,14.24,1.61,11.6-3.36,12.92-5.7-3-3.07-3-3.07,7.64-2.34,9.09-6.13S719.71,211.6,719.71,211.6Z" style="fill:#ebebeb"></path><rect x="616.46" y="231.87" width="7.54" height="25.91" transform="translate(1240.46 489.65) rotate(180)" style="fill:#e0e0e0"></rect><path d="M648.81,231.79s-.37-.25.44-1.32a1,1,0,0,0-.44-1.65c-3.56,2.06-8.53,0-8.53,0s5.86-1.8,6.6-3.53c.55-1.29-.42-1.43-1-1.42.59-.07,1.89-.28,2.28-1,.52-.9-1.52-2-1.52-2a1.57,1.57,0,0,0,0-1.4c-.33-.9-8-2.22-8-2.22a3,3,0,0,0,3-2s3.78.08,4.67-1.4-.59-1.89-3.11-3.13-8.09-5.84-8.09-5.84,3.49-.32,4.45-1.15.08-1,.08-1c4.15.41,2.74-1.81,2.74-1.81a18.62,18.62,0,0,1-8.53-5.51,10.33,10.33,0,0,0,3.93-1.81c1.34-1.24-1.11-1.57-1.11-1.57s4.89-.65,2.07-2.46c-2.14-1.38-5.57-3.23-6.63-3.78a10.41,10.41,0,0,0,3.82-.09c3.11-1.4,0-3.45,0-3.45-3.64-2.06-9-7.24-9-7.24s2.67,1.4,4,1-1.48-2.06-1.48-2.06,1.41.41,2,0-1.56-2.3-1.56-2.3c-3.19-2.08-7.14-7.54-8.79-9.88-1.65,2.34-5.59,7.8-8.79,9.88,0,0-2.15,1.89-1.56,2.3s2,0,2,0-2.82,1.65-1.49,2.06,4-1,4-1-5.34,5.18-9,7.24c0,0-3.12,2,0,3.45a10.41,10.41,0,0,0,3.82.09c-1.07.55-4.49,2.4-6.64,3.78-2.82,1.81,2.08,2.46,2.08,2.46s-2.45.33-1.11,1.57a10.26,10.26,0,0,0,3.93,1.81A18.62,18.62,0,0,1,600,201s-1.41,2.22,2.74,1.81c0,0-.89.16.08,1s4.45,1.15,4.45,1.15-5.57,4.61-8.09,5.84-4,1.65-3.12,3.13,4.68,1.4,4.68,1.4a3,3,0,0,0,3,2s-7.64,1.32-8,2.22a1.61,1.61,0,0,0,0,1.4s-2,1.07-1.52,2c.4.69,1.69.9,2.29,1-.53,0-1.51.13-.95,1.42.74,1.73,6.6,3.53,6.6,3.53s-5,2.06-8.53,0a1,1,0,0,0-.45,1.65c.82,1.07.45,1.32.45,1.32s-1.86-1.4-1,.74,5.12,3.45,5.12,3.45-2.45.41-1.71,1.73,3.86,2.88,7.27,3.2a27.78,27.78,0,0,0,8-.9s-3.12,1.64-1,2.55,4.6-1.15,4.6-1.15-.44,2.1,1.34,1.38a12.16,12.16,0,0,0,3.27-2.12s.55,3.1,1.66,2.36c1.12.74,1.67-2.36,1.67-2.36a12.16,12.16,0,0,0,3.27,2.12c1.78.72,1.33-1.38,1.33-1.38s2.45,2.05,4.6,1.15-1-2.55-1-2.55a27.75,27.75,0,0,0,8,.9c3.42-.32,6.53-1.89,7.27-3.2s-1.7-1.73-1.7-1.73,4.3-1.32,5.12-3.45S648.81,231.79,648.81,231.79Z" style="fill:#e0e0e0"></path><rect x="92.22" y="212.74" width="13.81" height="47.49" transform="translate(198.25 472.97) rotate(180)" style="fill:#ebebeb"></rect><path d="M151.5,212.59s-.68-.46.82-2.42-.82-3-.82-3c-6.52,3.77-15.64,0-15.64,0s10.75-3.32,12.11-6.48c1-2.37-.78-2.63-1.75-2.61,1.1-.11,3.47-.5,4.2-1.76,1-1.66-2.79-3.62-2.79-3.62a2.92,2.92,0,0,0,0-2.56c-.61-1.66-14.62-4.07-14.62-4.07,4.08.45,5.57-3.62,5.57-3.62s6.94.15,8.57-2.56-1.09-3.47-5.71-5.73-14.82-10.7-14.82-10.7,6.39-.61,8.16-2.11.13-1.81.13-1.81c7.62.75,5-3.32,5-3.32a34.09,34.09,0,0,1-15.64-10.1s4.76-1.05,7.21-3.31-2-2.87-2-2.87,9-1.2,3.81-4.52c-3.93-2.52-10.21-5.91-12.17-6.93,2.14.79,7-.16,7-.16,5.71-2.56,0-6.33,0-6.33-6.66-3.76-16.45-13.26-16.45-13.26s4.89,2.56,7.34,1.81-2.72-3.77-2.72-3.77,2.58.75,3.67,0-2.85-4.22-2.85-4.22C111.23,98.74,104,88.74,101,84.45c-3,4.29-10.25,14.29-16.11,18.1,0,0-3.94,3.47-2.86,4.22s3.68,0,3.68,0-5.17,3-2.72,3.77,7.34-1.81,7.34-1.81-9.79,9.5-16.46,13.26c0,0-5.71,3.77,0,6.33,0,0,4.86,1,7,.16-1.95,1-8.24,4.41-12.16,6.93-5.17,3.32,3.8,4.52,3.8,4.52s-4.48.6-2,2.87,7.21,3.31,7.21,3.31A34.09,34.09,0,0,1,62,156.21s-2.58,4.07,5,3.32c0,0-1.63.3.14,1.81s8.16,2.11,8.16,2.11-10.2,8.44-14.82,10.7-7.35,3-5.72,5.73,8.57,2.56,8.57,2.56,1.5,4.07,5.58,3.62c0,0-14,2.41-14.62,4.07a2.92,2.92,0,0,0,0,2.56s-3.74,2-2.79,3.62c.72,1.26,3.1,1.65,4.2,1.76-1,0-2.77.24-1.75,2.61,1.36,3.16,12.1,6.48,12.1,6.48s-9.11,3.77-15.64,0c0,0-2.31,1.05-.81,3s.81,2.42.81,2.42-3.4-2.57-1.9,1.35,9.38,6.33,9.38,6.33-4.49.76-3.13,3.17,7.08,5.27,13.33,5.88,14.69-1.66,14.69-1.66-5.71,3-1.77,4.67,8.43-2.11,8.43-2.11-.81,3.86,2.45,2.53a22.06,22.06,0,0,0,6-3.89s1,5.69,3,4.33c2,1.36,3.06-4.33,3.06-4.33a22.11,22.11,0,0,0,6,3.89c3.27,1.33,2.45-2.53,2.45-2.53s4.49,3.77,8.43,2.11-1.76-4.67-1.76-4.67,8.43,2.26,14.68,1.66,12-3.47,13.33-5.88-3.13-3.17-3.13-3.17,7.89-2.41,9.39-6.33S151.5,212.59,151.5,212.59Z" style="fill:#ebebeb"></path><rect x="448.47" y="217.42" width="12.45" height="42.8" transform="translate(909.39 477.65) rotate(180)" style="fill:#e0e0e0"></rect><path d="M501.91,217.28s-.61-.41.74-2.17-.74-2.72-.74-2.72c-5.88,3.4-14.1,0-14.1,0s9.69-3,10.91-5.84c.92-2.13-.69-2.37-1.57-2.35,1-.11,3.13-.46,3.78-1.59.86-1.5-2.51-3.26-2.51-3.26a2.64,2.64,0,0,0,0-2.31c-.55-1.5-13.18-3.67-13.18-3.67,3.68.4,5-3.26,5-3.26s6.25.13,7.72-2.31-1-3.13-5.15-5.17S479.48,173,479.48,173s5.76-.55,7.35-1.91.13-1.63.13-1.63c6.86.68,4.53-3,4.53-3a30.72,30.72,0,0,1-14.1-9.1s4.29-1,6.5-3-1.84-2.58-1.84-2.58,8.09-1.09,3.43-4.08c-3.54-2.27-9.2-5.33-11-6.24,1.93.7,6.31-.14,6.31-.14,5.14-2.31,0-5.71,0-5.71-6-3.4-14.84-12-14.84-12s4.42,2.31,6.62,1.63-2.45-3.39-2.45-3.39,2.33.67,3.31,0-2.57-3.81-2.57-3.81c-5.29-3.43-11.8-12.44-14.53-16.32-2.72,3.88-9.24,12.89-14.52,16.32,0,0-3.56,3.13-2.58,3.81s3.31,0,3.31,0-4.66,2.71-2.45,3.39,6.62-1.63,6.62-1.63-8.83,8.56-14.83,12c0,0-5.15,3.4,0,5.71,0,0,4.37.84,6.3.14-1.76.91-7.42,4-11,6.24-4.66,3,3.43,4.08,3.43,4.08s-4,.54-1.84,2.58,6.5,3,6.5,3a30.65,30.65,0,0,1-14.1,9.1s-2.33,3.67,4.54,3c0,0-1.47.27.12,1.63s7.36,1.91,7.36,1.91-9.2,7.6-13.37,9.64-6.62,2.72-5.15,5.17,7.73,2.31,7.73,2.31,1.35,3.66,5,3.26c0,0-12.62,2.17-13.18,3.67a2.64,2.64,0,0,0,0,2.31s-3.37,1.76-2.51,3.26c.65,1.13,2.79,1.48,3.78,1.59-.87,0-2.49.22-1.57,2.35,1.22,2.85,10.91,5.84,10.91,5.84s-8.21,3.4-14.1,0c0,0-2.08,1-.73,2.72s.73,2.17.73,2.17-3.06-2.31-1.72,1.22,8.46,5.71,8.46,5.71-4,.68-2.82,2.85,6.38,4.76,12,5.3S440,230.87,440,230.87s-5.15,2.72-1.6,4.21,7.6-1.9,7.6-1.9-.73,3.48,2.21,2.28a20.11,20.11,0,0,0,5.4-3.5s.91,5.12,2.75,3.89c1.84,1.23,2.76-3.89,2.76-3.89a20,20,0,0,0,5.39,3.5c2.94,1.2,2.21-2.28,2.21-2.28s4,3.4,7.6,1.9-1.6-4.21-1.6-4.21,7.61,2,13.24,1.49,10.79-3.12,12-5.3-2.82-2.85-2.82-2.85,7.11-2.17,8.46-5.71S501.91,217.28,501.91,217.28Z" style="fill:#e0e0e0"></path><rect x="338.27" y="222.13" width="11.08" height="38.09" transform="translate(687.61 482.36) rotate(180)" style="fill:#e0e0e0"></rect><path d="M385.83,222s-.55-.37.65-1.94a1.52,1.52,0,0,0-.65-2.42c-5.24,3-12.55,0-12.55,0s8.62-2.66,9.71-5.2c.82-1.89-.62-2.1-1.4-2.09.88-.09,2.78-.4,3.37-1.41.76-1.33-2.24-2.91-2.24-2.91a2.33,2.33,0,0,0,0-2c-.49-1.33-11.73-3.27-11.73-3.27,3.27.37,4.47-2.9,4.47-2.9s5.57.12,6.88-2-.88-2.79-4.59-4.6-11.89-8.58-11.89-8.58,5.13-.49,6.55-1.7.11-1.45.11-1.45c6.11.61,4-2.66,4-2.66a27.3,27.3,0,0,1-12.54-8.1s3.82-.85,5.78-2.66-1.64-2.3-1.64-2.3,7.2-1,3.06-3.63c-3.15-2-8.19-4.74-9.76-5.56,1.72.63,5.61-.12,5.61-.12,4.58-2.06,0-5.08,0-5.08-5.34-3-13.2-10.64-13.2-10.64s3.93,2.05,5.89,1.45-2.18-3-2.18-3,2.07.6,2.95,0-2.3-3.39-2.3-3.39c-4.7-3-10.5-11.08-12.92-14.52-2.43,3.44-8.22,11.47-12.93,14.52,0,0-3.16,2.78-2.29,3.39s2.95,0,2.95,0-4.15,2.42-2.19,3,5.9-1.45,5.9-1.45-7.86,7.62-13.21,10.64c0,0-4.58,3,0,5.08,0,0,3.9.75,5.62.12-1.57.82-6.61,3.54-9.76,5.56-4.15,2.66,3.05,3.63,3.05,3.63s-3.6.48-1.63,2.3,5.78,2.66,5.78,2.66a27.3,27.3,0,0,1-12.55,8.1s-2.07,3.27,4,2.66c0,0-1.31.24.11,1.45s6.55,1.7,6.55,1.7-8.19,6.77-11.9,8.58-5.89,2.42-4.58,4.6,6.87,2,6.87,2,1.2,3.27,4.48,2.9c0,0-11.24,1.94-11.73,3.27a2.33,2.33,0,0,0,0,2s-3,1.58-2.24,2.91c.58,1,2.49,1.32,3.37,1.41-.78,0-2.22.2-1.4,2.09,1.09,2.54,9.71,5.2,9.71,5.2s-7.31,3-12.55,0a1.53,1.53,0,0,0-.66,2.42c1.2,1.57.66,1.94.66,1.94S302,220,303.24,223.1s7.53,5.07,7.53,5.07-3.6.61-2.51,2.54,5.67,4.24,10.69,4.72,11.79-1.33,11.79-1.33-4.59,2.42-1.42,3.75,6.76-1.69,6.76-1.69-.65,3.09,2,2a18.18,18.18,0,0,0,4.8-3.12s.81,4.56,2.45,3.47c1.63,1.09,2.45-3.47,2.45-3.47a18,18,0,0,0,4.8,3.12c2.62,1.06,2-2,2-2s3.6,3,6.76,1.69-1.42-3.75-1.42-3.75,6.77,1.81,11.78,1.33,9.61-2.78,10.7-4.72-2.51-2.54-2.51-2.54,6.33-1.93,7.53-5.07S385.83,222,385.83,222Z" style="fill:#e0e0e0"></path><rect x="390.18" y="215.69" width="13.81" height="44.8" transform="translate(794.17 476.18) rotate(180)" style="fill:#ebebeb"></rect><path d="M449.46,215.53s-.68-.45.82-2.41-.82-3-.82-3c-6.52,3.76-15.64,0-15.64,0s10.75-3.32,12.11-6.49c1-2.36-.78-2.62-1.75-2.6,1.1-.12,3.47-.51,4.2-1.77.95-1.65-2.79-3.61-2.79-3.61a2.94,2.94,0,0,0,0-2.57C445,191.41,431,189,431,189c4.08.46,5.57-3.61,5.57-3.61s6.94.15,8.57-2.57-1.09-3.46-5.71-5.72-14.82-10.71-14.82-10.71,6.39-.6,8.16-2.11.13-1.81.13-1.81c7.62.76,5-3.31,5-3.31a34.09,34.09,0,0,1-15.64-10.1s4.76-1.06,7.21-3.32-2-2.86-2-2.86,9-1.21,3.81-4.52c-3.93-2.52-10.21-5.91-12.17-6.93,2.14.78,7-.16,7-.16,5.71-2.56,0-6.33,0-6.33-6.66-3.77-16.45-13.26-16.45-13.26s4.89,2.56,7.34,1.81-2.72-3.77-2.72-3.77,2.58.75,3.67,0-2.85-4.22-2.85-4.22c-5.87-3.81-13.09-13.81-16.12-18.1-3,4.29-10.25,14.29-16.11,18.1,0,0-3.94,3.46-2.86,4.22s3.68,0,3.68,0-5.17,3-2.72,3.77,7.34-1.81,7.34-1.81-9.79,9.49-16.46,13.26c0,0-5.71,3.77,0,6.33,0,0,4.86.94,7,.16-1.95,1-8.24,4.41-12.16,6.93-5.17,3.31,3.8,4.52,3.8,4.52s-4.48.6-2,2.86,7.21,3.32,7.21,3.32A34.09,34.09,0,0,1,360,159.16s-2.58,4.07,5,3.31c0,0-1.63.31.14,1.81s8.16,2.11,8.16,2.11-10.2,8.44-14.82,10.71-7.35,3-5.72,5.72,8.57,2.57,8.57,2.57,1.5,4.07,5.58,3.61c0,0-14,2.41-14.62,4.07a2.94,2.94,0,0,0,0,2.57s-3.74,2-2.79,3.61c.72,1.26,3.1,1.65,4.2,1.77-1,0-2.77.24-1.75,2.6,1.36,3.17,12.1,6.49,12.1,6.49s-9.11,3.76-15.64,0c0,0-2.31,1-.81,3s.81,2.41.81,2.41-3.4-2.56-1.9,1.36,9.38,6.33,9.38,6.33-4.49.75-3.13,3.17,7.08,5.27,13.33,5.87,14.69-1.65,14.69-1.65-5.71,3-1.77,4.67,8.43-2.11,8.43-2.11-.81,3.86,2.45,2.53a22.33,22.33,0,0,0,6-3.89s1,5.69,3.05,4.33c2,1.36,3.06-4.33,3.06-4.33a22.38,22.38,0,0,0,6,3.89c3.27,1.33,2.45-2.53,2.45-2.53s4.49,3.77,8.43,2.11-1.76-4.67-1.76-4.67,8.43,2.26,14.68,1.65,12-3.46,13.33-5.87-3.13-3.17-3.13-3.17,7.89-2.41,9.39-6.33S449.46,215.53,449.46,215.53Z" style="fill:#ebebeb"></path><path d="M713.69,260.23c0,.14-154,.26-344,.26s-344-.12-344-.26,154-.26,344.05-.26S713.69,260.08,713.69,260.23Z" style="fill:#ebebeb"></path><path d="M567.86,89.68a34.9,34.9,0,0,0-4.12-8.54,11.79,11.79,0,0,0-7.75-5c-3.14-.38-6.63,1.31-7.65,4.31-.45-6.76-1.41-13.69-4.79-19.56s-9.7-10.48-16.46-10.06c-6.37.39-11.83,5.12-14.87,10.74s-4.07,12.07-5.06,18.38c-2.42-3-7.52-2-10,.84s-3.17,6.9-3.7,10.68H568Z" style="fill:#f5f5f5"></path><path d="M287.27,82.69a35,35,0,0,0-4.11-8.53,11.75,11.75,0,0,0-7.75-5c-3.14-.39-6.63,1.31-7.66,4.31-.45-6.76-1.4-13.69-4.79-19.56s-9.69-10.48-16.45-10.07c-6.38.39-11.84,5.13-14.87,10.75s-4.07,12.07-5.07,18.38c-2.41-3-7.52-2-10,.84s-3.16,6.89-3.69,10.68H287.4Z" style="fill:#f5f5f5"></path><path d="M344.86,103.36a14.33,14.33,0,0,0-1.69-3.5A4.85,4.85,0,0,0,340,97.79a3,3,0,0,0-3.14,1.77,18.44,18.44,0,0,0-2-8c-1.39-2.4-4-4.29-6.75-4.12-2.62.16-4.86,2.1-6.1,4.4A23.23,23.23,0,0,0,320,99.35c-1-1.21-3.09-.83-4.12.35a8.16,8.16,0,0,0-1.52,4.38h31.21Z" style="fill:#f5f5f5"></path><path d="M403.66,59.58a14.5,14.5,0,0,0-1.69-3.5A4.85,4.85,0,0,0,398.79,54a3,3,0,0,0-3.14,1.77,18.23,18.23,0,0,0-2-8c-1.38-2.41-4-4.3-6.75-4.13-2.61.16-4.85,2.1-6.09,4.41a22.91,22.91,0,0,0-2.08,7.54c-1-1.22-3.09-.84-4.12.34a8.16,8.16,0,0,0-1.52,4.38h31.2Z" style="fill:#f5f5f5"></path><path d="M634.24,58.1a14.33,14.33,0,0,0-1.69-3.5,4.83,4.83,0,0,0-3.18-2.07,3,3,0,0,0-3.14,1.77,18.36,18.36,0,0,0-2-8c-1.39-2.41-4-4.3-6.75-4.13s-4.86,2.1-6.1,4.41a23.17,23.17,0,0,0-2.08,7.53c-1-1.21-3.09-.83-4.12.35a8.16,8.16,0,0,0-1.52,4.38h31.21Z" style="fill:#f5f5f5"></path><path d="M162.64,73.28a14,14,0,0,0-1.69-3.5,4.81,4.81,0,0,0-3.17-2.07,3,3,0,0,0-3.15,1.77,18.22,18.22,0,0,0-2-8c-1.39-2.41-4-4.3-6.75-4.13-2.62.16-4.86,2.1-6.1,4.41a23.17,23.17,0,0,0-2.08,7.53c-1-1.21-3.09-.83-4.12.35A8.25,8.25,0,0,0,132.1,74h31.21Z" style="fill:#f5f5f5"></path></g><g id="freepik--Floor--inject-408"><path d="M717.84,422.81c0,.14-152.25.26-340,.26s-340-.12-340-.26,152.22-.27,340.05-.27S717.84,422.66,717.84,422.81Z" style="fill:#263238"></path></g><g id="freepik--Plants--inject-408"><path d="M413.32,368.67a10.17,10.17,0,0,1,5,6.2,17.82,17.82,0,0,1,.31,8.09c-.84,5.21-4.07,10.34-7.47,14.37-4.22-4.06-4.91-10.81-5.05-14.26-.21-5.45,2.71-15.43,7.24-14.4" style="fill:#455a64"></path><path d="M415.84,406.21a8.64,8.64,0,0,1,3.19-8.09,11.47,11.47,0,0,1,8.59-2.24,4.81,4.81,0,0,1,3.64,1.85,3.71,3.71,0,0,1-.12,3.75,7.62,7.62,0,0,1-2.91,2.6c-3.93,2.21-8.14,3.63-12.39,2.13" style="fill:#455a64"></path><path d="M409.42,422a6.7,6.7,0,0,1,.21-1.06c.17-.75.4-1.72.67-2.88a30.51,30.51,0,0,1,3.44-9.14,18.67,18.67,0,0,1,7-6.75,13,13,0,0,1,2.77-1.08c.34-.09.61-.12.8-.16s.27,0,.28,0a18.82,18.82,0,0,0-3.72,1.49,19.24,19.24,0,0,0-6.8,6.72,32.84,32.84,0,0,0-3.51,9c-.32,1.21-.59,2.19-.79,2.85A5.26,5.26,0,0,1,409.42,422Z" style="fill:#263238"></path><path d="M411.77,376.47a2.84,2.84,0,0,1,0,.47c0,.35,0,.8,0,1.35,0,1.17,0,2.87,0,5-.06,4.2-.23,10-.56,16.39s-.77,12.19-1.15,16.37c-.18,2.09-.35,3.78-.47,5-.07.55-.12,1-.16,1.34a2.32,2.32,0,0,1-.08.46,2.79,2.79,0,0,1,0-.47c0-.35,0-.79.09-1.35.09-1.22.21-2.9.36-4.95.3-4.19.69-10,1-16.37s.55-12.18.68-16.38c.07-2.06.13-3.74.16-5,0-.56,0-1,.06-1.35A1.74,1.74,0,0,1,411.77,376.47Z" style="fill:#263238"></path><path d="M408.07,409a20.27,20.27,0,0,0-10.34-15.35c-1.44-.78-3.34-1.33-4.6-.29s-1.09,3-.57,4.57a17.33,17.33,0,0,0,15.38,11.49" style="fill:#455a64"></path><path d="M398.21,398.67a5.73,5.73,0,0,1,.91.46,8.27,8.27,0,0,1,1,.61c.38.27.85.53,1.3.91a16.93,16.93,0,0,1,1.49,1.23,20.85,20.85,0,0,1,1.56,1.56,22.59,22.59,0,0,1,2.92,4.15,22.19,22.19,0,0,1,1.83,4.73,19.22,19.22,0,0,1,.41,2.18,17.39,17.39,0,0,1,.18,1.92,13.84,13.84,0,0,1,0,1.59,9.2,9.2,0,0,1-.09,1.19,6.35,6.35,0,0,1-.16,1c-.09,0,.13-1.45,0-3.78a17.75,17.75,0,0,0-.22-1.89,21.31,21.31,0,0,0-.44-2.13,21.6,21.6,0,0,0-4.67-8.73c-.52-.57-1-1.11-1.52-1.57s-1-.88-1.43-1.25C399.46,399.41,398.16,398.75,398.21,398.67Z" style="fill:#263238"></path><path d="M44.45,370.39a10.12,10.12,0,0,1,6.72,4.23,17.9,17.9,0,0,1,2.95,7.54c.91,5.19-.46,11.1-2.35,16-5.32-2.45-8.18-8.6-9.44-11.81-2-5.08-2.5-15.47,2.12-16" style="fill:#455a64"></path><path d="M59.13,405a8.64,8.64,0,0,1,.36-8.69,11.47,11.47,0,0,1,7.38-4.93,4.84,4.84,0,0,1,4,.55A3.69,3.69,0,0,1,72,395.54,7.54,7.54,0,0,1,70.14,399c-3,3.38-6.5,6.1-11,6.08" style="fill:#455a64"></path><path d="M58.23,422a5.19,5.19,0,0,1-.15-1.07c-.08-.77-.19-1.75-.31-2.94a30.29,30.29,0,0,1,.26-9.76,18.53,18.53,0,0,1,4.39-8.68,13,13,0,0,1,2.27-1.92,7.33,7.33,0,0,1,.7-.41.92.92,0,0,1,.25-.12,21.14,21.14,0,0,0-3,2.64,19.2,19.2,0,0,0-4.22,8.57A32.87,32.87,0,0,0,58,418c.09,1.24.16,2.25.19,2.95A5,5,0,0,1,58.23,422Z" style="fill:#263238"></path><path d="M45.53,378.26a1.85,1.85,0,0,1,.19.44c.12.33.27.75.45,1.27.4,1.11.94,2.72,1.6,4.71,1.31,4,3,9.52,4.83,15.67s3.27,11.76,4.29,15.84c.51,2,.9,3.68,1.16,4.83q.18.81.3,1.32a1.62,1.62,0,0,1,.07.47,3.68,3.68,0,0,1-.15-.45c-.09-.34-.21-.77-.36-1.3-.32-1.18-.75-2.81-1.29-4.8-1.08-4.06-2.61-9.65-4.39-15.8s-3.47-11.69-4.72-15.7c-.61-2-1.11-3.58-1.48-4.74l-.39-1.3A2.86,2.86,0,0,1,45.53,378.26Z" style="fill:#263238"></path><path d="M52.71,410.24a20.24,20.24,0,0,0-14.8-11.11c-1.61-.27-3.59-.17-4.44,1.23s0,3.21,1,4.5a17.31,17.31,0,0,0,18.3,5.82" style="fill:#455a64"></path><path d="M40,403.69a4.73,4.73,0,0,1,1,.13,8.71,8.71,0,0,1,1.17.24,14.09,14.09,0,0,1,1.53.43,15.89,15.89,0,0,1,1.81.68,18.84,18.84,0,0,1,2,1,22.79,22.79,0,0,1,4.12,3A21.62,21.62,0,0,1,54.9,413,19.54,19.54,0,0,1,56,414.88a16.36,16.36,0,0,1,.79,1.76c.24.54.37,1.06.52,1.5a8.7,8.7,0,0,1,.3,1.16,4.8,4.8,0,0,1,.18,1c-.08,0-.35-1.42-1.25-3.57a16.36,16.36,0,0,0-.82-1.71c-.31-.61-.71-1.23-1.12-1.87a22.69,22.69,0,0,0-3.24-3.79,24,24,0,0,0-4-2.93,20.93,20.93,0,0,0-2-1,18.23,18.23,0,0,0-1.76-.72C41.43,404,40,403.77,40,403.69Z" style="fill:#263238"></path><path d="M704.18,368.66a10.14,10.14,0,0,1,4.69,6.41,18,18,0,0,1,0,8.1c-1.07,5.16-4.52,10.15-8.1,14-4-4.24-4.43-11-4.41-14.47,0-5.45,3.38-15.3,7.86-14.07" style="fill:#455a64"></path><path d="M705.05,406.27a8.66,8.66,0,0,1,3.54-7.94,11.5,11.5,0,0,1,8.68-1.86,4.86,4.86,0,0,1,3.56,2,3.73,3.73,0,0,1-.29,3.74,7.46,7.46,0,0,1-3,2.47c-4,2-8.29,3.27-12.47,1.58" style="fill:#455a64"></path><path d="M697.94,421.74a6.66,6.66,0,0,1,.26-1.05c.21-.75.47-1.7.8-2.85a30.12,30.12,0,0,1,3.84-9,18.54,18.54,0,0,1,7.28-6.44,12.5,12.5,0,0,1,2.82-.95,6,6,0,0,1,.8-.12.75.75,0,0,1,.28,0,20.55,20.55,0,0,0-3.78,1.33,19.23,19.23,0,0,0-7.09,6.42,32.68,32.68,0,0,0-3.89,8.84c-.38,1.19-.69,2.15-.92,2.81A5,5,0,0,1,697.94,421.74Z" style="fill:#263238"></path><path d="M702.29,376.38a3.36,3.36,0,0,1,0,.47c0,.35,0,.8,0,1.36,0,1.17-.13,2.87-.25,5-.25,4.19-.68,10-1.29,16.35s-1.31,12.14-1.86,16.3c-.28,2.08-.52,3.76-.7,4.92-.09.55-.16,1-.21,1.34a3.81,3.81,0,0,1-.1.46,1.53,1.53,0,0,1,0-.47c0-.35.09-.8.14-1.35.15-1.21.34-2.89.58-4.93.49-4.17,1.13-9.93,1.75-16.31s1.08-12.14,1.4-16.33c.15-2,.28-3.74.37-4.95,0-.56.09-1,.12-1.35A1.62,1.62,0,0,1,702.29,376.38Z" style="fill:#263238"></path><path d="M697.16,408.75A20.28,20.28,0,0,0,687.51,393c-1.41-.84-3.28-1.47-4.59-.49s-1.22,3-.76,4.54A17.31,17.31,0,0,0,697,409.17" style="fill:#455a64"></path><path d="M687.76,398a6.11,6.11,0,0,1,.9.49,11.26,11.26,0,0,1,1,.66c.37.29.82.57,1.26,1a17.9,17.9,0,0,1,1.43,1.29,21.9,21.9,0,0,1,1.49,1.63,22.87,22.87,0,0,1,2.74,4.27,22.53,22.53,0,0,1,1.62,4.81,18.57,18.57,0,0,1,.31,2.19,14.59,14.59,0,0,1,.09,1.93,15.25,15.25,0,0,1-.07,1.59,8.53,8.53,0,0,1-.15,1.19,5.45,5.45,0,0,1-.2,1c-.09,0,.2-1.45.15-3.78a16.24,16.24,0,0,0-.13-1.89,20.55,20.55,0,0,0-.35-2.16,22.92,22.92,0,0,0-1.62-4.71,22.64,22.64,0,0,0-2.66-4.21,20.09,20.09,0,0,0-1.45-1.64c-.46-.5-.94-.92-1.37-1.31C689,398.77,687.72,398,687.76,398Z" style="fill:#263238"></path></g><g id="freepik--speech-bubble--inject-408"><path d="M381.29,194.84l-1.72-11a45,45,0,1,0-9.7,12.89v0Z" style="fill:#fff"></path><path d="M381.29,194.84a6.54,6.54,0,0,1-.71.16l-2.17.4-8.52,1.53a.2.2,0,0,1-.24-.17.2.2,0,0,1,0-.15v0l.32.27A44.92,44.92,0,0,1,336.9,209,45.3,45.3,0,0,1,321,205.13a46,46,0,0,1-14.77-10.54,44.05,44.05,0,0,1-10-16.91,46.22,46.22,0,0,1-1.72-20.87,44.5,44.5,0,0,1,8.49-20.24,45.33,45.33,0,0,1,17.08-14,46.51,46.51,0,0,1,20.64-4.27,44.21,44.21,0,0,1,19.16,4.9,46.58,46.58,0,0,1,14.28,11.35,44.87,44.87,0,0,1,8.13,14.3A45.77,45.77,0,0,1,384.66,163a44.83,44.83,0,0,1-4.9,20.9l0-.13c.5,3.55.89,6.31,1.16,8.26.12.88.21,1.58.28,2.11a5.49,5.49,0,0,1,.07.69,5.21,5.21,0,0,1-.16-.75c-.1-.54-.22-1.24-.38-2.14-.33-1.91-.79-4.63-1.38-8.11a.17.17,0,0,1,0-.12A45,45,0,0,0,384,163a45.79,45.79,0,0,0-2.51-13.94,44.1,44.1,0,0,0-8.06-14,46,46,0,0,0-14-11.06,43.13,43.13,0,0,0-18.74-4.74,45.61,45.61,0,0,0-20.16,4.2,44.39,44.39,0,0,0-16.68,13.71,43.66,43.66,0,0,0-8.3,19.76,45.26,45.26,0,0,0,1.65,20.39,43.13,43.13,0,0,0,9.76,16.56,45.28,45.28,0,0,0,14.43,10.4,44.67,44.67,0,0,0,48.4-7.77.21.21,0,0,1,.29,0,.21.21,0,0,1,0,.26l0,0-.21-.32,8.44-1.27,2.23-.31A6.88,6.88,0,0,1,381.29,194.84Z" style="fill:#263238"></path><path d="M361.38,158.57a13.75,13.75,0,0,0-3.61-7.46,13.26,13.26,0,0,0-6.94-4.19,10.7,10.7,0,0,0-11.73,5.62,10.71,10.71,0,0,0-3.21-3.42,10.88,10.88,0,0,0-8.38-1.56,13.32,13.32,0,0,0-6.87,4.31,13.84,13.84,0,0,0-3.46,7.53,16.73,16.73,0,0,0,2.18,10.3,23.77,23.77,0,0,0,8.25,7.59c5.38,3.17,12.45,7.14,12.45,7.14s5.91-4.51,11.22-7.78a23.67,23.67,0,0,0,8.11-7.74A16.73,16.73,0,0,0,361.38,158.57Z" style="fill:#FF725E"></path></g><g id="freepik--fox-3--inject-408"><path d="M462.46,332.29c-.74,1.29-.11,65.35-7.65,80.54,0,0-5.39,21-12.89,29.47-4.33,4.89-9.2,11,8.21,9.29,8-.79,11.83-5.55,17.1-15.34s7.8-13.43,10.39-19.8c2.19-5.42,25.41-48.61,27.4-55s1.48-32.87,1.48-32.87Z" style="fill:#FF725E"></path><path d="M462.46,332.29c-.74,1.29-.11,65.35-7.65,80.54,0,0-5.39,21-12.89,29.47-4.33,4.89-9.2,11,8.21,9.29,8-.79,11.83-5.55,17.1-15.34s7.8-13.43,10.39-19.8c2.19-5.42,25.41-48.61,27.4-55s1.48-32.87,1.48-32.87Z" style="opacity:0.30000000000000004"></path><path d="M475.27,287.31s-21.75,39.46-8.87,60.49,22.53,34.65,41.13,36.86,49.74,2.26,49.74,2.26-22-25.09-39-44-16.93-30.3-14.62-42.47.51-11.79.51-11.79Z" style="fill:none"></path><path d="M577.38,382.9c-20.27,7.64-42.86,10-63.61,3.83S474.42,365.45,466.33,345c-.07,2.64-3.6,4.07-5.86,2.78s-3.15-4.23-3-6.86,1.27-5.11,2-7.63,1.21-5.32.21-7.76c-2.28,1.56-5.59-.37-6.46-3s0-5.56,1-8.16c7-18,11.27-43.18,11.27-43.18,1.67-.17,49.59,0,49.59,0l17.07,68.44Z" style="fill:#FF725E"></path><g style="opacity:0.8"><path d="M577.38,382.9c-20.27,7.64-42.86,10-63.61,3.83S474.42,365.45,466.33,345c-.07,2.64-3.6,4.07-5.86,2.78s-3.15-4.23-3-6.86,1.27-5.11,2-7.63,1.21-5.32.21-7.76c-2.28,1.56-5.59-.37-6.46-3s0-5.56,1-8.16c7-18,11.27-43.18,11.27-43.18,1.67-.17,49.59,0,49.59,0l17.07,68.44Z" style="fill:#fff"></path></g><path d="M620.73,358.78c-18.64-21.91-80.66-49.28-91-62.27a68.65,68.65,0,0,1-13.49-28.42l-30.53,7.46-3.66,57.59,6.38,38.28L541,409.87s76.54,13.67,78.43,8.6S639.37,380.69,620.73,358.78Z" style="fill:#FF725E"></path><path d="M482.07,333.14c-.85,1.23,2.25,59.68-9.15,81.12,0,0-7.13,20.49-15.32,28.29-4.73,4.5-10.1,10.18,7.4,9.93,8.07-.11,12.25-4.52,18.33-13.84s8.9-12.73,12-18.86c2.65-5.21,29.41-46.3,31.93-52.5s4.24-32.63,4.24-32.63Z" style="fill:#FF725E"></path><path d="M482.07,338.63c.14,0,.1,9.26-.11,20.68s-.49,20.66-.64,20.66-.1-9.26.11-20.67S481.92,338.63,482.07,338.63Z" style="fill:#263238"></path><path d="M531.06,356.2a10.33,10.33,0,0,1-.66,1.65c-.45,1-1.13,2.56-2,4.42-1.72,3.71-4.16,8.81-7,14.38S516,387.22,514,390.81c-1,1.79-1.8,3.24-2.37,4.23a12.1,12.1,0,0,1-.94,1.51,10.62,10.62,0,0,1,.75-1.61c.57-1.1,1.32-2.55,2.22-4.31,1.89-3.63,4.49-8.64,7.3-14.22s5.31-10.63,7.12-14.31l2.15-4.34A11.4,11.4,0,0,1,531.06,356.2Z" style="fill:#263238"></path><path d="M555.11,370c-9.17,9.48-15.49,20.39-15.43,33.57a51.75,51.75,0,0,0,14.7,35.68,88.22,88.22,0,0,0-24,6.27c-2.55,1.07-5.51,3.09-5,5.8s4,3.42,6.67,3.57a342.54,342.54,0,0,0,62.73-2.31c4.64-.6,6-.67,9.93-3.27,6-4,10-9.1,11.24-16.21s3.67-17.66,6.89-24.13Z" style="fill:#FF725E"></path><path d="M569,363.79a3.28,3.28,0,0,1-.68.29c-.45.17-1.12.4-2,.75a51.1,51.1,0,0,0-6.93,3.38,45.82,45.82,0,0,0-9,6.93,41.73,41.73,0,0,0-4.36,5.12c-.69.95-1.32,1.95-2,3l-.82,1.61c-.27.55-.47,1.13-.7,1.7a36.1,36.1,0,0,0-1.79,7c-.22,1.15-.3,2.3-.44,3.41s-.19,2.23-.2,3.3a64.07,64.07,0,0,0,.61,11.41,44.12,44.12,0,0,0,1.71,7.51c.57,1.73,1,2.65.94,2.67a3.1,3.1,0,0,1-.33-.65,19,19,0,0,1-.8-1.95,39.67,39.67,0,0,1-1.89-7.52,61.22,61.22,0,0,1-.74-11.48c0-1.09.13-2.2.19-3.33s.22-2.29.43-3.45a36.13,36.13,0,0,1,1.81-7.1c.24-.58.44-1.17.71-1.73l.85-1.65c.64-1.05,1.28-2.07,2-3a42.13,42.13,0,0,1,4.44-5.17,44.59,44.59,0,0,1,9.2-6.9,43.54,43.54,0,0,1,7-3.25c.85-.33,1.54-.52,2-.66A3.61,3.61,0,0,1,569,363.79Z" style="fill:#263238"></path><g style="opacity:0.30000000000000004"><path d="M554.38,439.23a88.22,88.22,0,0,0-24,6.27c-2.55,1.07-5.51,3.09-5,5.8s4,3.42,6.67,3.57a342.54,342.54,0,0,0,62.73-2.31Z"></path></g><g style="opacity:0.30000000000000004"><path d="M548.66,372.06a35.86,35.86,0,0,0-9.08,28.72s1.5-8,2-11.34,4.08-9.73,4.08-9.73c4-4.89,8.39-9.09,13.82-12a112.21,112.21,0,0,1,17.12-6.95A35.89,35.89,0,0,0,548.66,372.06Z"></path></g><path d="M526.79,121.89c2.12-1.07,4.57-2.06,6.75-1.15s3.35,3.52,4.11,5.9c6.44,20.26,4.25,51-7,68.85l-47.35-24.58A91.2,91.2,0,0,1,526.79,121.89Z" style="fill:#FF725E"></path><path d="M526.79,121.89c2.12-1.07,4.57-2.06,6.75-1.15s3.35,3.52,4.11,5.9c3.57,11.24,4.48,25.7,2.68,39.4-9.33-4.88-30.83-16.41-41.24-22A88.86,88.86,0,0,1,526.79,121.89Z" style="opacity:0.30000000000000004"></path><path d="M524.7,137.07c1.43-.73,3.1-1.4,4.58-.78s2.27,2.39,2.79,4c4.37,13.76,2.89,34.62-4.74,46.76-7.39-10.53-21.1-19.43-31.51-20.34C501.22,152.33,511.33,143.84,524.7,137.07Z" style="fill:#fff"></path><path d="M425.87,121c-2.15-1-4.64-1.87-6.79-.87s-3.2,3.67-3.86,6.08c-5.64,20.51-.86,52.46,11.07,69.84l44.95-27.93A90.75,90.75,0,0,0,425.87,121Z" style="fill:#FF725E"></path><path d="M425.87,121c-2.15-1-4.64-1.87-6.79-.87s-3.2,3.67-3.86,6.08c-3.13,11.38-2.88,25.53-.54,39.14,9.13-5.28,29.57-17.38,39.75-23.4A88.56,88.56,0,0,0,425.87,121Z" style="opacity:0.30000000000000004"></path><path d="M431.07,134.77c-1.54-.7-3.33-1.33-4.86-.62s-2.29,2.62-2.76,4.34c-4,14.67-1.6,36.55,6.93,49a51.27,51.27,0,0,1,33.12-19A65,65,0,0,0,431.07,134.77Z" style="fill:#fff"></path><path d="M410.93,241.86a68.82,68.82,0,0,1-18.22-5.56c8.21-4.06,14.06-11.28,18.69-18.86s8.29-15.73,13.49-22.95c12.3-17.09,33.4-27.82,55.63-29.08l5.06.2a70.14,70.14,0,0,1,45.1,29.88c4.84,7.34,8.32,15.55,12.65,23.23s9.77,15.05,17.27,19.35A55.27,55.27,0,0,1,544.23,243a15.92,15.92,0,0,0,10,7.88c-21,14-54.74,26-79.66,25-34.26-1.53-56.77-15.12-74.6-26.44A16.16,16.16,0,0,0,410.93,241.86Z" style="fill:#FF725E"></path><g style="opacity:0.8"><path d="M410.93,241.86a68.82,68.82,0,0,1-18.22-5.56c.78-.37,1.5-.74,2.2-1.12,20,3.48,36.07,3.6,56.16.24,5.47-.91,16.52-7.52,25.94-7.62,5.39-.06,10.52,2.2,19.29,6.77,10.84,5.66,16.2.42,28.32-.33s24.59-.63,35.93,3.86A55.41,55.41,0,0,1,544.23,243a15.92,15.92,0,0,0,10,7.88c-21,14-54.74,26-79.66,25-34.26-1.53-56.77-15.12-74.6-26.44A16.16,16.16,0,0,0,410.93,241.86Z" style="fill:#fff"></path></g><path d="M464.15,232.61a34.53,34.53,0,0,1,12.77-3.5,16.28,16.28,0,0,1,12.21,4.41,3.3,3.3,0,0,1,1.1,2A3.51,3.51,0,0,1,489,238a51.75,51.75,0,0,1-7,5.94c-1.66,1.24-3.44,2.53-5.49,2.67a10,10,0,0,1-5.45-1.75c-3.47-2-6.88-4.46-8.86-8a3.8,3.8,0,0,1-.62-2.22c.09-.78,1.86-1.63,2.59-2" style="fill:#263238"></path><ellipse cx="507.69" cy="223.32" rx="17.7" ry="17.45" transform="translate(-46.6 203.78) rotate(-21.73)" style="fill:#fff"></ellipse><path d="M514.76,239.28a17.83,17.83,0,0,0,8-7,17.07,17.07,0,0,0-1.12-10.4,17.73,17.73,0,0,0-31.23-1.83,17.15,17.15,0,0,0,1.12,10.4A17.6,17.6,0,0,0,514.76,239.28Z" style="fill:#263238"></path><ellipse cx="443.77" cy="223.06" rx="17.7" ry="17.45" transform="translate(-37.48 100.25) rotate(-12.37)" style="fill:#fff"></ellipse><path d="M448.16,239.94a17.73,17.73,0,0,0,9-5.58,17.15,17.15,0,0,0,.59-10.44A17.74,17.74,0,0,0,427.22,217a17.18,17.18,0,0,0-.59,10.45A17.59,17.59,0,0,0,448.16,239.94Z" style="fill:#263238"></path><ellipse cx="514.31" cy="245.38" rx="10.09" ry="3.76" transform="translate(-33.1 87.04) rotate(-9.37)" style="fill:#FF725E"></ellipse><ellipse cx="439.48" cy="246.32" rx="3.76" ry="10.09" transform="translate(124.55 639.55) rotate(-80.58)" style="fill:#FF725E"></ellipse><path d="M492.52,241.56c1.3.42,2.2,2,1.84,4.44A11.54,11.54,0,0,1,480,254.61c-2.3-.82-3.3-2.37-3.05-3.71s1.43-2.43,2.71-3.4a61.54,61.54,0,0,1,8.59-5.15C489.71,241.68,491.19,241.12,492.52,241.56Z" style="fill:#fff"></path><path d="M489,253.39a11,11,0,0,0,5.33-7.39c.36-2.42-.54-4-1.84-4.44s-2.81.12-4.27.79a61.54,61.54,0,0,0-8.59,5.15c-1.28,1-2.47,2-2.71,3.4" style="fill:#fff"></path><path d="M477,250.9s0-.13,0-.35a3,3,0,0,1,.37-.93,9.1,9.1,0,0,1,2.58-2.53,46.72,46.72,0,0,1,10.4-5.8,4.61,4.61,0,0,1,1.81-.1,2.69,2.69,0,0,1,1.59.86,4.34,4.34,0,0,1,.95,3.12,9.24,9.24,0,0,1-1.91,5,11.26,11.26,0,0,1-2.59,2.53,7,7,0,0,1-.84.52.86.86,0,0,1-.31.14,16.16,16.16,0,0,0,3.43-3.41,9.07,9.07,0,0,0,1.73-4.83,3.92,3.92,0,0,0-.85-2.75,2.84,2.84,0,0,0-2.88-.59,12.49,12.49,0,0,0-3,1.29l-2.75,1.49c-1.74,1-3.21,2-4.5,2.8a9.62,9.62,0,0,0-2.64,2.35A6,6,0,0,0,477,250.9Z" style="fill:#263238"></path><path d="M504.42,199.25a4.33,4.33,0,0,1-.72,0c-.47,0-1.17-.06-2.07-.19a49.2,49.2,0,0,1-7.52-1.51A53.39,53.39,0,0,1,472,185l.43-.29c.22.62.46,1.28.67,1.95A50.62,50.62,0,0,1,475.38,198l0,.46-.41-.21A32.11,32.11,0,0,1,461.55,185a30.05,30.05,0,0,1-2.18-5.06c-.2-.61-.31-1.09-.4-1.41a3.86,3.86,0,0,1-.11-.5,1.8,1.8,0,0,1,.19.47c.12.31.25.79.48,1.38a33.62,33.62,0,0,0,2.3,5,32.44,32.44,0,0,0,5,6.66,31.92,31.92,0,0,0,8.43,6.26l-.37.25a50.86,50.86,0,0,0-2.24-11.2c-.21-.66-.44-1.32-.66-1.93l-.38-1.05.82.77a54.24,54.24,0,0,0,21.8,12.51,55.19,55.19,0,0,0,7.45,1.67c.89.16,1.58.21,2,.29A3.51,3.51,0,0,1,504.42,199.25Z" style="fill:#263238"></path><path d="M517,268.87a3.06,3.06,0,0,1-.65.29l-1.89.7c-.83.32-1.84.68-3,1s-2.54.83-4.07,1.22-3.18.86-5,1.25-3.74.79-5.79,1.17a113,113,0,0,1-27,1.42c-2.08-.17-4.05-.3-5.88-.55s-3.55-.47-5.1-.73-2.95-.54-4.17-.78-2.28-.49-3.13-.71l-2-.5a2.59,2.59,0,0,1-.67-.22,4.61,4.61,0,0,1,.7.11l2,.41c.85.19,1.9.41,3.13.62s2.62.5,4.18.7,3.25.48,5.09.66,3.79.35,5.86.5a128.15,128.15,0,0,0,13.48,0,130.88,130.88,0,0,0,13.4-1.46c2-.37,4-.7,5.78-1.12s3.47-.79,5-1.19,2.87-.8,4.07-1.14,2.23-.66,3.06-.94l1.93-.62A5,5,0,0,1,517,268.87Z" style="fill:#263238"></path><path d="M628.92,378.16a1.52,1.52,0,0,1,.1.45c.05.3.12.75.18,1.32a31,31,0,0,1,.13,4.91A37.36,37.36,0,0,1,628.2,392c-.66,2.66-1.61,5.51-2.59,8.5-2,6-3.76,11.4-5.09,15.31-.65,1.89-1.19,3.45-1.6,4.62a12.93,12.93,0,0,1-.65,1.67,11.09,11.09,0,0,1,.45-1.73c.37-1.19.85-2.77,1.44-4.68,1.24-3.93,3-9.36,4.94-15.35,1-3,1.94-5.83,2.62-8.46a39,39,0,0,0,1.23-7.1,38.5,38.5,0,0,0,0-4.86A12,12,0,0,1,628.92,378.16Z" style="fill:#263238"></path><path d="M601.47,225.8c-6.71,10.74-12.63,22.53-13.43,35.41-1.35,22,12.23,42.23,25.87,59.75,8,10.3,22.72,28.87,25.08,41.7,2.64,14.43.87,24.19-11,31.83l-9.67,27.64c26.43,0,60.63-38.17,66.64-59.75,6.3-22.57,3.51-47.31-4.15-69.86s-20-43.24-32.93-63.22c-6.38-9.83-15.22-20.73-26.51-19.77C612.47,210.29,606.21,218.22,601.47,225.8Z" style="fill:#FF725E"></path><g style="opacity:0.8"><path d="M671.74,296.89a17.63,17.63,0,0,0,8.48-5.88c-7.69-22-19.72-42.18-32.39-61.71-6.38-9.83-15.22-20.73-26.51-19.77-8.85.76-15.11,8.69-19.85,16.27-6.71,10.74-12.63,22.53-13.43,35.41-1.09,17.78,7.56,34.4,18.12,49.37a17.1,17.1,0,0,0,7.93,1.89,18.29,18.29,0,0,0,17.21-15,16.39,16.39,0,0,0,9,8.71,12,12,0,0,0,12-2.1c3.14-2.91,4.1-8.09,1.77-11.68A17.93,17.93,0,0,0,671.74,296.89Z" style="fill:#fff"></path></g><path d="M644.7,261.88a.83.83,0,0,1-.09-.16l-.26-.46-1-1.84-3.65-6.94c-3.18-5.95-7.83-14.35-13.87-24.08l.43-.08a62,62,0,0,0-.69,15.34c.34,5.43,1.21,11.1,2.14,16.93l.25,1.55-.75-1.38-.23-.43-14.48-26.9.45-.13a154.44,154.44,0,0,0,3.82,29.24c.81,3.51,1.56,6.25,2.08,8.12.27.91.47,1.62.62,2.13.06.23.11.41.14.55s.05.19,0,.19a.63.63,0,0,1-.07-.17l-.19-.54c-.16-.48-.4-1.19-.68-2.12-.57-1.86-1.37-4.59-2.22-8.1a148.08,148.08,0,0,1-4-29.28l0-1,.49.91c4.37,8.07,9.31,17.22,14.53,26.87l.23.44-.49.16c-.93-5.83-1.8-11.51-2.14-17a62.93,62.93,0,0,1,.74-15.46l.12-.6.32.52c6,9.77,10.61,18.21,13.72,24.2,1.55,3,2.73,5.37,3.53,7,.38.8.67,1.42.89,1.87l.22.49C644.69,261.82,644.71,261.87,644.7,261.88Z" style="fill:#263238"></path></g><g id="freepik--fox-2--inject-408"><path d="M356.78,377.85s.94,52.39-.77,58.76-6.69,8.24-9.49,4.51-13.06-41-13.06-41L336,386Z" style="fill:#FF725E"></path><path d="M268,403.68s-3.73,15.23,3.42,25.8,9,13.06,14.77,12.91.93-5.14,0-12.13-.78-14.46,3.58-19.43,5.44-7.15,5.44-7.15Z" style="fill:#FF725E"></path><path d="M322.91,347.55s-.47,3-6.53,4.2l-35.76,3H280c-3.56.08-21.09,1-28.14,12.28-7.77,12.43-8.24,23.94-13.37,31.56s-8,11.77-12.09,22.37c-3.76,9.83-3.1,20.85,5.91,21.47s5.8-14.84,20.33-23.32c19.45-11.37,19.28-10.89,19.28-10.89s8.55,3.27,32.18,1.09,46.79-22.07,51.3-27.51,9.39-39.12,9.39-39.12Z" style="fill:#FF725E"></path><path d="M326.68,348.18c-.53,0,9,21.89,9.35,29.67S311.85,394.69,297.34,397s-25.42,11.21-25.42,11.21,8.55,3.27,32.18,1.09,46.79-22.07,51.3-27.51c3.74-4.52,7.85-30,9-36.86C355.64,345.84,327.11,348.18,326.68,348.18Z" style="fill:#fff;opacity:0.8"></path><path d="M308.76,389.49c-.15,1.09,3.53,18.11,6.11,23.82,3.74,8.31,10.57,28.3,17.87,30.32s4.2-5.91,3.74-15.55-3.35-36.74-.56-48.55c0,0-9.23-2.31-13.59-1.68S308.76,389.49,308.76,389.49Z" style="fill:#FF725E"></path><path d="M282.3,395a5.76,5.76,0,0,1-.49,1.27,24.92,24.92,0,0,1-1.82,3.25,36.16,36.16,0,0,1-8.45,8.84,67.58,67.58,0,0,1-10.37,6.51c-1.41.69-2.57,1.19-3.38,1.53a5.63,5.63,0,0,1-1.28.45,6.62,6.62,0,0,1,1.19-.64c.78-.39,1.92-.95,3.3-1.68a78.44,78.44,0,0,0,10.21-6.6,38.94,38.94,0,0,0,8.47-8.62C281.46,396.72,282.21,394.92,282.3,395Z" style="fill:#263238"></path><path d="M313.92,410.86a15.15,15.15,0,0,1-1.32-3,72.54,72.54,0,0,1-2.24-7.54c-.73-3-1.27-5.72-1.61-7.7a19.05,19.05,0,0,1-.43-3.23,21.45,21.45,0,0,1,.8,3.16c.44,2,1,4.67,1.75,7.64s1.49,5.64,2.09,7.55A32.53,32.53,0,0,1,313.92,410.86Z" style="fill:#263238"></path><path d="M330.24,358a2.34,2.34,0,0,1,.29.45c.17.3.4.77.67,1.38.55,1.22,1.26,3,2,5.27a83.56,83.56,0,0,1,2.36,8,20.4,20.4,0,0,1,.68,4.95c-.08,1.72-.27,3.49-.48,5.29-.41,3.62-1,7-1.14,10.16a60.51,60.51,0,0,0,.22,8.32c.21,2.37.45,4.28.6,5.6l.16,1.53a1.77,1.77,0,0,1,0,.53,1.49,1.49,0,0,1-.13-.52l-.27-1.51c-.21-1.31-.5-3.22-.77-5.59a55.53,55.53,0,0,1-.33-8.38c.15-3.17.69-6.59,1.1-10.2.21-1.8.4-3.56.48-5.26a19.93,19.93,0,0,0-.63-4.81c-.69-3.06-1.52-5.77-2.24-8s-1.39-4.07-1.87-5.31S330.2,358,330.24,358Z" style="fill:#263238"></path><path d="M395.57,316.43a55,55,0,0,0,13.35-6.32c-6.78-2-12.11-6.65-16.55-11.7s-8.2-10.63-13-15.35c-11.44-11.15-28.9-16.54-46.12-14.79l-3.86.75a54.76,54.76,0,0,0-31.18,27.55c-2.86,6-4.58,12.52-7,18.72s-5.75,12.31-11,16.4a44.18,44.18,0,0,0,13.14,1.66,12.28,12.28,0,0,1-6.79,7c17.74,7.85,45.08,12.66,64.1,8.88,26.15-5.27,41.86-18,54.24-28.56A12.6,12.6,0,0,1,395.57,316.43Z" style="fill:#FF725E"></path><g style="opacity:0.8"><path d="M395.57,316.43a55,55,0,0,0,13.35-6.32c-.64-.18-1.24-.37-1.82-.56a125,125,0,0,1-43.12,7c-4.31,0-13.56-3.58-20.81-2.51-4.15.6-7.83,2.9-14,7.34-7.68,5.49-12.4,2.26-21.8,3.17s-19,2.5-27.15,7.19a44.24,44.24,0,0,0,13.1,1.65,12.28,12.28,0,0,1-6.79,7c17.74,7.85,45.08,12.66,64.1,8.88,26.15-5.27,41.86-18,54.24-28.56A12.6,12.6,0,0,1,395.57,316.43Z" style="fill:#fff"></path></g><path d="M292.61,241.66c-1.74-.54-3.75-1-5.32,0s-2.16,3-2.46,4.86c-2.6,15.77,2.65,38.23,13.35,50.09l33.52-23.89A69.16,69.16,0,0,0,292.61,241.66Z" style="fill:#FF725E"></path><path d="M292.61,241.66c-1.74-.54-3.75-1-5.32,0s-2.16,3-2.46,4.86c-1.44,8.75-.46,19.55,2.52,29.47,6.59-4.74,21.77-15.86,29.12-21.25A68.76,68.76,0,0,0,292.61,241.66Z" style="opacity:0.30000000000000004"></path><path d="M353.61,316a27.69,27.69,0,0,0-10.22-1,12.93,12.93,0,0,0-8.87,4.74,2.42,2.42,0,0,0-.61,1.59,2.57,2.57,0,0,0,1.22,1.68,39.29,39.29,0,0,0,6.09,3.54,8.66,8.66,0,0,0,4.53,1.32,8,8,0,0,0,4-1.95c2.44-1.9,4.77-4.13,5.88-7a2.78,2.78,0,0,0,.21-1.72c-.16-.57-1.62-1-2.21-1.15" style="fill:#263238"></path><path d="M352.08,325.38s.08.28.11.8a11.69,11.69,0,0,1-.07,2.21,6.17,6.17,0,0,1-1.2,3.11,5.32,5.32,0,0,1-3.61,1.87,6.67,6.67,0,0,1-4-.82,7.75,7.75,0,0,1-2.43-2.26,8.12,8.12,0,0,1-1-2,2,2,0,0,1-.18-.79,19.17,19.17,0,0,0,1.49,2.55,7.57,7.57,0,0,0,2.36,2.06,6.33,6.33,0,0,0,3.69.72,4.9,4.9,0,0,0,3.29-1.66,6,6,0,0,0,1.21-2.84C352,326.54,352,325.38,352.08,325.38Z" style="fill:#263238"></path><path d="M315.82,301.48A13.79,13.79,0,0,0,306.06,318a13,13,0,0,0,16.28,9.3,13.79,13.79,0,0,0,9.76-16.52A13,13,0,0,0,315.82,301.48Z" style="fill:#fff"></path><path d="M332.1,310.78a13.44,13.44,0,0,1-.49,8,13.88,13.88,0,0,1-6.85,4.39,13,13,0,0,1-16.28-9.3,13.37,13.37,0,0,1,.5-8,13.76,13.76,0,0,1,6.84-4.39A13,13,0,0,1,332.1,310.78Z" style="fill:#263238"></path><ellipse cx="368.15" cy="306.48" rx="13.6" ry="13.23" transform="translate(8 622.31) rotate(-81.03)" style="fill:#fff"></ellipse><path d="M376.36,295.75a13.31,13.31,0,0,1,4.45,6.7,13.82,13.82,0,0,1-2.81,7.63,13,13,0,0,1-18.6,2.39,13.29,13.29,0,0,1-4.44-6.7,13.74,13.74,0,0,1,2.81-7.63A13,13,0,0,1,376.36,295.75Z" style="fill:#263238"></path><path d="M324.4,331.51c0,1.55-3.51,2.81-7.84,2.81s-7.84-1.26-7.84-2.81,3.51-2.82,7.84-2.82S324.4,330,324.4,331.51Z" style="fill:#FF725E"></path><path d="M381.61,320.76c.48,1.48-2.47,3.76-6.59,5.09s-7.84,1.21-8.32-.27,2.47-3.76,6.59-5.09S381.14,319.28,381.61,320.76Z" style="fill:#FF725E"></path><path d="M296,252.64c-1.19-.37-2.55-.67-3.61,0s-1.47,2-1.68,3.3c-1.76,10.71,1.8,26,9.07,34,4.46-8.68,14-16.91,21.85-18.84C315.8,261.09,307,256,296,252.64Z" style="fill:#fff"></path><path d="M370,228.81c1.54-1,3.35-1.94,5.12-1.46s2.88,2.32,3.67,4c6.71,14.5,6.76,38.71-.38,53l-37.79-15.23A69.22,69.22,0,0,1,370,228.81Z" style="fill:#FF725E"></path><path d="M370,228.81c1.54-1,3.35-1.94,5.12-1.46s2.88,2.32,3.67,4c3.73,8,5.67,18.72,5.45,29.07-7.62-2.8-25.22-9.47-33.74-12.69A68.74,68.74,0,0,1,370,228.81Z" style="opacity:0.30000000000000004"></path><path d="M367.65,239.63c1.1-.7,2.4-1.38,3.66-1s2.06,1.66,2.63,2.88c4.79,10.36,5.47,26.84.37,37.06a40.2,40.2,0,0,0-27.66-10.06A49.51,49.51,0,0,1,367.65,239.63Z" style="fill:#fff"></path><path d="M333.21,270.86A21.93,21.93,0,0,1,325.73,259a1.53,1.53,0,0,1,.13-1.39c.39-.45,1.11-.32,1.66-.1a9.61,9.61,0,0,1,5,4.51,18,18,0,0,1,1-8.73c.37-1,1-2.09,2-2.27a2.29,2.29,0,0,1,2.25,1.25,6.41,6.41,0,0,1,.64,2.64,103,103,0,0,1,.23,15.41" style="fill:#FF725E"></path><path d="M373.72,341.78a2.87,2.87,0,0,1-.49.26l-1.46.66c-1.27.57-3.14,1.33-5.47,2.18s-5.15,1.78-8.33,2.66-6.71,1.65-10.46,2.25a94.89,94.89,0,0,1-10.66,1,80.59,80.59,0,0,1-8.74-.16c-1.24-.06-2.36-.21-3.34-.32s-1.82-.23-2.51-.35l-1.58-.28a2.21,2.21,0,0,1-.54-.13,2,2,0,0,1,.56,0l1.59.17c.69.09,1.53.2,2.51.26s2.1.21,3.34.25c2.47.15,5.42.17,8.69,0a102,102,0,0,0,10.6-1.07c3.73-.6,7.24-1.38,10.42-2.2s6-1.72,8.32-2.53,4.23-1.51,5.52-2l1.49-.57A2.15,2.15,0,0,1,373.72,341.78Z" style="fill:#263238"></path><path d="M263.49,322.43c4.53-7.65,2.43-18.08-3.54-24.66s-15.07-9.69-23.95-10.08A40.72,40.72,0,0,0,211.57,294c-10.91,7.31-16.91,20.83-16.44,33.95s6.94,25.64,16.38,34.77,21.66,15,34.38,18.31l14.39-12.42a23.24,23.24,0,0,1-13.79-10.54,18.41,18.41,0,0,1-.64-17.08C249.78,333.38,259.11,329.83,263.49,322.43Z" style="fill:#FF725E"></path><path d="M263.09,358.57a20.7,20.7,0,0,0-4.3,2.21,39.24,39.24,0,0,0-8.44,8,34.71,34.71,0,0,0-5.23,10.4c-.47,1.43-.8,2.6-1,3.41a6,6,0,0,1-.41,1.25,6.7,6.7,0,0,1,.21-1.3c.17-.83.45-2,.88-3.47a32.21,32.21,0,0,1,5.17-10.61,35.91,35.91,0,0,1,8.65-8,14.88,14.88,0,0,1,3.23-1.59,6.41,6.41,0,0,1,.94-.26A1.24,1.24,0,0,1,263.09,358.57Z" style="fill:#263238"></path><g style="opacity:0.8"><path d="M222.83,313.93a10,10,0,0,0,12.66,13.33c1.27-.48,2.44-1.22,3.74-1.58a3.83,3.83,0,0,1,3.8.74c1,1.11.88,2.81,1.25,4.28a7.5,7.5,0,0,0,5.59,5c4.46-4.47,10.38-7.84,13.62-13.3,4.53-7.65,2.43-18.08-3.54-24.66s-15.07-9.69-23.95-10.08A40.72,40.72,0,0,0,211.57,294a35.54,35.54,0,0,0-10.64,11.39c-.05.33-.1.65-.12,1-.24,3.22.89,6.74,3.59,8.52s6.09,1.51,9.16.78S219.67,313.83,222.83,313.93Z" style="fill:#fff"></path></g></g><g id="freepik--fox-1--inject-408"><path d="M161.48,406.1s.42-58.71-5-73-6.71-37.74-17.61-46.13l38.58-4.61s17.61,28.1,16.35,49.48S161.48,406.1,161.48,406.1Z" style="fill:#FF725E"></path><path d="M161.48,406.1s.42-58.71-5-73-6.71-37.74-17.61-46.13l38.58-4.61s17.61,28.1,16.35,49.48S161.48,406.1,161.48,406.1Z" style="fill:#fff;opacity:0.8"></path><path d="M138.77,287.43S141.36,306,120,324.91,75.1,366,84.33,406.68l83.44,2.52-5.45-123.7Z" style="fill:#FF725E"></path><path d="M157.79,408.94a2.15,2.15,0,0,1-.14-.6c-.08-.46-.18-1-.3-1.75s-.27-1.68-.5-2.75-.42-2.29-.76-3.62-.66-2.8-1.12-4.35-1-3.19-1.51-4.92A105.75,105.75,0,0,0,149,380a105.36,105.36,0,0,0-5.78-10.27c-1-1.51-1.94-3-2.92-4.24s-1.85-2.5-2.71-3.58-1.66-2-2.36-2.85-1.33-1.54-1.85-2.1l-1.18-1.32a2.83,2.83,0,0,1-.39-.48,2.89,2.89,0,0,1,.47.41l1.25,1.25c.55.54,1.2,1.22,1.92,2s1.58,1.73,2.43,2.82,1.83,2.23,2.78,3.54,2,2.73,3,4.24a100,100,0,0,1,5.85,10.31,98.65,98.65,0,0,1,4.45,11c.54,1.74,1.08,3.38,1.47,5s.77,3,1.06,4.38.5,2.57.69,3.65.32,2,.41,2.77.14,1.31.2,1.77A2.35,2.35,0,0,1,157.79,408.94Z" style="fill:#263238"></path><path d="M145,372.19a36.29,36.29,0,0,1-.69-3.76,81.19,81.19,0,0,0-2.13-8.94,82.55,82.55,0,0,0-3.17-8.63c-.94-2.16-1.58-3.47-1.51-3.51a3.85,3.85,0,0,1,.56.86c.33.58.78,1.43,1.29,2.49a60.71,60.71,0,0,1,5.33,17.67c.16,1.17.26,2.13.3,2.79A4.09,4.09,0,0,1,145,372.19Z" style="fill:#263238"></path><path d="M141.79,390.55c-.11,0-.47-2.06-1.71-5.21a26.69,26.69,0,0,0-1.14-2.52c-.41-.9-1-1.81-1.52-2.77a38.79,38.79,0,0,0-4.41-5.76,39.42,39.42,0,0,0-5.48-4.73,30.78,30.78,0,0,0-2.68-1.69,25.41,25.41,0,0,0-2.45-1.28c-3.07-1.43-5.13-1.91-5.1-2a7.35,7.35,0,0,1,1.45.32,12.11,12.11,0,0,1,1.66.52,19.17,19.17,0,0,1,2.15.84,26.1,26.1,0,0,1,2.51,1.23c.89.46,1.79,1.06,2.74,1.67a34.28,34.28,0,0,1,10,10.64c.55,1,1.1,1.91,1.5,2.84a23.26,23.26,0,0,1,1.09,2.58,21.9,21.9,0,0,1,.71,2.19,13.75,13.75,0,0,1,.42,1.69A7.59,7.59,0,0,1,141.79,390.55Z" style="fill:#263238"></path><path d="M245.61,441a82.77,82.77,0,0,0-25.24-39,74.86,74.86,0,0,0-41.32-17.64c-27.79-2.6-60.73,11.17-88.49,18.75a18,18,0,0,0-10.72,7.8c-2,3.18-2.48,6.28-2.73,9.84-.41,5.94,2.13,16.17,6.7,19.61,3.48,2.62,8,3.11,12.19,3.53l46.89,4.55c19.85,1.93,39.79,3.87,59.7,2.76,8.14-.46,16.86-1.69,22.9-7.51l-7-2Z" style="fill:#FF725E"></path><g style="opacity:0.8"><path d="M220.37,402a74.86,74.86,0,0,0-41.32-17.64,81.29,81.29,0,0,0-12.31-.16A48.91,48.91,0,0,0,153.43,389c-4.88,2.83-9.18,7.47-10.57,13.35s.8,12.94,5.79,15.55c-5.26,2-10,6.69-11.05,12.7-1.27,7,2.55,14,7.88,18.09,19,1.84,38.07,3.56,57.11,2.5,8.14-.46,16.86-1.69,22.9-7.51l-7-2,27.11-.66A82.77,82.77,0,0,0,220.37,402Z" style="fill:#fff"></path></g><path d="M189.17,386a1,1,0,0,1-.28,0l-.81-.15c-.72-.11-1.76-.38-3.12-.57a76.23,76.23,0,0,0-11.61-.92,106,106,0,0,0-17.21,1.39,203.75,203.75,0,0,0-20.7,4.48c-14.54,3.86-27.66,7.54-37,10.72-4.67,1.57-8.41,2.94-11,3.94l-3,1.14-.78.29a1.08,1.08,0,0,1-.27.08l.25-.13.75-.34c.67-.28,1.65-.72,2.93-1.23,2.55-1.06,6.28-2.49,10.94-4.11,9.32-3.27,22.44-7,37-10.88a198.22,198.22,0,0,1,20.75-4.45A103.43,103.43,0,0,1,173.35,384,69.16,69.16,0,0,1,185,385.08c1.37.22,2.4.52,3.11.67l.8.2C189.08,386,189.18,386,189.17,386Z" style="fill:#263238"></path><path d="M194.59,438.33a4.15,4.15,0,0,1,1.09,0c.71,0,1.73.13,3,.25,2.51.24,6,.65,9.78,1.23s7.23,1.2,9.7,1.71c1.24.25,2.23.47,2.92.64a5,5,0,0,1,1.05.31,4,4,0,0,1-1.09-.1l-3-.48c-2.48-.41-5.91-1-9.71-1.55s-7.25-1.05-9.74-1.39l-3-.41A4.9,4.9,0,0,1,194.59,438.33Z" style="fill:#263238"></path><path d="M196.87,419.54a2.2,2.2,0,0,1,.54,0l1.54.21c1.34.19,3.27.55,5.63,1.07s5.15,1.26,8.21,2.21,6.35,2.19,9.74,3.66,6.53,3.08,9.32,4.64,5.23,3.12,7.21,4.5,3.57,2.54,4.62,3.39l1.21,1c.27.22.41.35.4.37a2.18,2.18,0,0,1-.47-.29l-1.27-.9c-1.08-.8-2.68-1.92-4.7-3.24s-4.46-2.83-7.24-4.39-5.92-3.1-9.29-4.58-6.66-2.67-9.69-3.68-5.79-1.75-8.14-2.31-4.25-1-5.57-1.23l-1.53-.32A1.74,1.74,0,0,1,196.87,419.54Z" style="fill:#263238"></path><path d="M152,386.19l-6.27-14s20.19-5.37,20.22-4.55.74,16.7.74,16.7S154.78,385.66,152,386.19Z" style="opacity:0.30000000000000004"></path><path d="M223.38,243.65a70.44,70.44,0,0,0,17.16-8.12c-8.72-2.59-15.57-8.55-21.27-15s-10.55-13.68-16.77-19.74c-14.7-14.35-37.15-21.27-59.29-19l-5,1c-17.26,6-32.2,18.88-40.08,35.42-3.69,7.74-5.9,16.09-9,24.07S81.72,258,75,263.28a57.18,57.18,0,0,0,16.91,2.13,15.85,15.85,0,0,1-8.73,9.06c22.8,10.09,58,16.27,82.43,11.41,33.61-6.77,53.82-23.19,69.75-36.72A16.22,16.22,0,0,1,223.38,243.65Z" style="fill:#FF725E"></path><g style="opacity:0.8"><path d="M223.38,243.65a70.44,70.44,0,0,0,17.16-8.12c-.82-.23-1.59-.47-2.34-.72-19.28,6.42-35.09,9-55.44,8.95-5.54,0-17.44-4.6-26.77-3.23-5.33.78-10.06,3.72-18,9.43-9.88,7.07-16,2.91-28,4.08S85.54,257.26,75,263.29a56.77,56.77,0,0,0,16.85,2.12,15.85,15.85,0,0,1-8.73,9.06c22.8,10.09,58,16.27,82.43,11.41,33.61-6.77,53.82-23.19,69.75-36.72A16.22,16.22,0,0,1,223.38,243.65Z" style="fill:#fff"></path></g><path d="M91,147.51c-2.25-.69-4.83-1.26-6.85,0s-2.77,3.87-3.16,6.25c-3.34,20.27,3.41,49.16,17.17,64.41l43.1-30.73A89,89,0,0,0,91,147.51Z" style="fill:#FF725E"></path><path d="M91,147.51c-2.25-.69-4.83-1.26-6.85,0s-2.77,3.87-3.16,6.25c-1.86,11.25-.6,25.14,3.23,37.89,8.48-6.09,28-20.39,37.45-27.32A88.14,88.14,0,0,0,91,147.51Z" style="opacity:0.30000000000000004"></path><path d="M169.42,243.11a35.5,35.5,0,0,0-13.14-1.34c-4.4.53-8.76,2.53-11.4,6.09a3.08,3.08,0,0,0-.79,2,3.34,3.34,0,0,0,1.57,2.16,50.88,50.88,0,0,0,7.83,4.55c1.83.93,3.78,1.88,5.82,1.69a10.2,10.2,0,0,0,5.13-2.51c3.13-2.44,6.13-5.31,7.55-9a3.62,3.62,0,0,0,.28-2.21c-.21-.73-2.08-1.26-2.85-1.47" style="fill:#263238"></path><path d="M167.46,255.16a4,4,0,0,1,.11,1,17.61,17.61,0,0,1-.11,2.83,7.9,7.9,0,0,1-1.55,4,6.77,6.77,0,0,1-4.6,2.38,8.39,8.39,0,0,1-5.08-1,9.75,9.75,0,0,1-3.12-2.88,11,11,0,0,1-1.31-2.53,3.63,3.63,0,0,1-.26-1,21.38,21.38,0,0,0,1.88,3.32,9.78,9.78,0,0,0,3.05,2.67,8.12,8.12,0,0,0,4.78.94,6.34,6.34,0,0,0,4.28-2.16,7.87,7.87,0,0,0,1.56-3.69C167.44,256.65,167.35,255.16,167.46,255.16Z" style="fill:#263238"></path><ellipse cx="125.02" cy="241.03" rx="17.01" ry="17.48" transform="translate(-38.92 24.59) rotate(-9.73)" style="fill:#fff"></ellipse><path d="M119.44,257.49a17.25,17.25,0,0,1-8.18-6.33,17.89,17.89,0,0,1,.28-10.46,16.77,16.77,0,0,1,21.67-10.57,17.17,17.17,0,0,1,8.18,6.32,17.81,17.81,0,0,1-.29,10.46A16.77,16.77,0,0,1,119.44,257.49Z" style="fill:#263238"></path><ellipse cx="188.12" cy="230.86" rx="17.01" ry="17.48" transform="translate(-38.89 38.12) rotate(-10.49)" style="fill:#fff"></ellipse><path d="M182.77,247.38a17.11,17.11,0,0,1-8.26-6.21,17.7,17.7,0,0,1,.14-10.46,16.77,16.77,0,0,1,21.52-10.87,17.17,17.17,0,0,1,8.26,6.22,17.78,17.78,0,0,1-.14,10.46A16.76,16.76,0,0,1,182.77,247.38Z" style="fill:#263238"></path><ellipse cx="121.78" cy="263.04" rx="10.08" ry="3.62" style="fill:#FF725E"></ellipse><path d="M205.43,249.22c.62,1.9-3.18,4.84-8.47,6.55s-10.09,1.55-10.71-.35,3.18-4.84,8.48-6.55S204.82,247.32,205.43,249.22Z" style="fill:#FF725E"></path><path d="M95.33,161.62c-1.53-.47-3.28-.85-4.65,0s-1.89,2.63-2.15,4.24c-2.27,13.77,2.32,33.39,11.66,43.75,5.73-11.16,18-21.75,28.09-24.23C120.8,172.5,109.54,166,95.33,161.62Z" style="fill:#fff"></path><path d="M190.55,131c2-1.27,4.31-2.5,6.58-1.88s3.71,3,4.72,5.18c8.64,18.64,8.69,49.78-.49,68.15l-48.59-19.59A89,89,0,0,1,190.55,131Z" style="fill:#FF725E"></path><path d="M190.55,131c2-1.27,4.31-2.5,6.58-1.88s3.71,3,4.72,5.18c4.79,10.34,7.3,24.07,7,37.38-9.8-3.6-32.43-12.17-43.39-16.32A88.3,88.3,0,0,1,190.55,131Z" style="opacity:0.30000000000000004"></path><path d="M187.48,144.9c1.42-.9,3.08-1.78,4.7-1.34s2.65,2.14,3.38,3.7c6.17,13.33,7,34.52.48,47.65A51.79,51.79,0,0,0,160.47,182,63.7,63.7,0,0,1,187.48,144.9Z" style="fill:#fff"></path><path d="M165,184.16a11.25,11.25,0,0,0,2,1.39c.69.39,1.59.77,2.64,1.24a9.27,9.27,0,0,1,3.28,2.2,6,6,0,0,1,1.21,2,3.35,3.35,0,0,1-.17,2.59,3.72,3.72,0,0,1-2.2,1.75,7.86,7.86,0,0,1-2.95.38c-4.13-.08-8.41-2-12.74-4.15l.24-.43a16.24,16.24,0,0,1,6.36,7,15.9,15.9,0,0,1,1.45,4.83,8.05,8.05,0,0,1-.85,5.14,4.09,4.09,0,0,1-2.68,1.88,5.55,5.55,0,0,1-3.18-.39,13,13,0,0,1-4.82-3.73,17.58,17.58,0,0,1-4.15-10.32l.45.08a51.35,51.35,0,0,1-2.48,5.77,7.69,7.69,0,0,1-1.92,2.27,6.47,6.47,0,0,1-2.55,1.22,4.42,4.42,0,0,1-2.65-.17,3.81,3.81,0,0,1-1.85-1.66,8.44,8.44,0,0,1-.91-4.19,12,12,0,0,1,1.56-5.78,7.71,7.71,0,0,1,1.26-1.72s-.48.58-1.12,1.8a11.92,11.92,0,0,0-1.41,5.7,8.1,8.1,0,0,0,.92,4,3.43,3.43,0,0,0,1.69,1.49,4.08,4.08,0,0,0,2.43.12,6.53,6.53,0,0,0,4.17-3.32,54.15,54.15,0,0,0,2.43-5.74l.39-.93.06,1a17.12,17.12,0,0,0,4.08,10,12.56,12.56,0,0,0,4.61,3.58,5.15,5.15,0,0,0,2.89.36,3.54,3.54,0,0,0,2.33-1.65,7.5,7.5,0,0,0,.77-4.78,15.48,15.48,0,0,0-1.39-4.67,15.8,15.8,0,0,0-6.14-6.77l.23-.43c4.32,2.19,8.51,4.07,12.53,4.17a7.5,7.5,0,0,0,2.82-.33,3.4,3.4,0,0,0,2-1.55,3,3,0,0,0,.17-2.32,5.45,5.45,0,0,0-1.12-1.93,9.19,9.19,0,0,0-3.15-2.19c-1-.49-1.93-.9-2.62-1.3A6.38,6.38,0,0,1,165,184.16Z" style="fill:#263238"></path><path d="M185.84,280.07s-.15.1-.46.24l-1.36.61c-.59.26-1.32.56-2.19.88s-1.83.7-2.94,1.05c-2.19.76-4.85,1.49-7.82,2.22s-6.3,1.31-9.8,1.78a111,111,0,0,1-18.05.88c-2.31-.07-4.18-.2-5.46-.33l-1.49-.16a1.85,1.85,0,0,1-.51-.09,1.61,1.61,0,0,1,.52,0l1.49.06c1.29.07,3.16.14,5.46.17a128.73,128.73,0,0,0,18-1c3.49-.47,6.78-1.08,9.76-1.73s5.62-1.39,7.82-2.1c1.1-.32,2.08-.68,2.95-1s1.61-.56,2.21-.8l1.4-.5A1.63,1.63,0,0,1,185.84,280.07Z" style="fill:#263238"></path></g></svg>
