<svg xmlns="http://www.w3.org/2000/svg" viewBox="0 0 500 500"><g id="freepik--background-simple--inject-383"><g><path d="M130.2455,464.5557S35.5027,392.349,13.1515,279.7134C-9.1995,167.078,82.625,144.3706,136.4826,106.2001c53.8576-38.1702,73.6801-81.122,151.7202-83.7565,78.0403-2.6343,118.41121,26.3755,146.5886,82.5858,28.1774,56.2102,43.226,113.9311,52.0832,170.2636,8.8572,56.3327,4.5043,101.3278-45.58859,123.7715-50.09281,22.4437-73.34011,12.5976-97.13481,38.4438-23.7947,25.8463-132.3958,84.3483-213.90569,27.0474Z" style="fill:#92E3A9;"></path><path d="M130.2455,464.5557S35.5027,392.349,13.1515,279.7134C-9.1995,167.078,82.625,144.3706,136.4826,106.2001c53.8576-38.1702,73.6801-81.122,151.7202-83.7565,78.0403-2.6343,118.41121,26.3755,146.5886,82.5858,28.1774,56.2102,43.226,113.9311,52.0832,170.2636,8.8572,56.3327,4.5043,101.3278-45.58859,123.7715-50.09281,22.4437-73.34011,12.5976-97.13481,38.4438-23.7947,25.8463-132.3958,84.3483-213.90569,27.0474Z" style="fill:#fff; opacity:.7;"></path></g></g><g id="freepik--Clouds--inject-383"><g><path d="M449.66489,119.2006c-4.63889-6.8734-11.295-13.3132-20.4726-15.1487-21.9519-4.3904-25.7151,16.3072-30.1055,22.5792s-10.0352-6.272-21.32479-4.3904c-11.28951,1.8816-10.03511,10.6624-15.05271,13.1712s-7.5264-4.3904-13.7984-3.7632-8.7808,8.1536-13.1712,10.0352-3.136-5.0176-8.7808-3.7632c-5.6447,1.2544-10.6623,5.0176-13.7983,5.6448s176.87,20.0703,176.87,20.0703c0,0-2.4835-12.398-10.036-19.9505-4.3904-4.3904-12.5431-8.2734-21.3239-4.5102,0,0-1.4532-5.9337-4.9448-12.959" style="fill:none; stroke:#b2b2b2; stroke-linecap:round; stroke-linejoin:round;"></path><path d="M143.1384,190.416c-2.4712-1.1142-5.325-1.8267-8.6762-1.2682-11.2896,1.8816-10.0352,10.6624-15.0528,13.1712-5.0176,2.5088-7.5264-4.3904-13.7983-3.7632-6.272,.6272-8.7808,8.1536-13.1712,10.0352s-3.136-5.0176-8.7808-3.7632-10.6624,5.0176-13.7984,5.6448,176.87009,20.0703,176.87009,20.0703c0,0-2.4836-12.398-10.0361-19.9505-4.3904-4.3904-12.5431-8.2734-21.3239-4.5102,0,0-7.5264-30.7328-29.4783-35.1232-21.952-4.3903-25.7152,16.3072-30.1055,22.5792-1.5436,2.2051-3.2423,2.0844-5.2867,1.0825" style="fill:none; stroke:#b2b2b2; stroke-linecap:round; stroke-linejoin:round;"></path><path d="M94.7742,92.6315c15.8285,1.7379,29.0462,3.1656,29.0462,3.1656,0,0-1.1525-5.7538-4.6576-9.2588-2.0375-2.0375-5.8211-3.8396-9.8962-2.0932,0,0-3.4929-14.2627-13.6806-16.3003-10.1877-2.0375-11.9341,7.568-13.9717,10.4788-2.0375,2.9108-4.6572-2.9108-9.8966-2.0375-5.2394,.8732-4.6572,4.9483-6.9858,6.1126s-3.4929-2.0376-6.4037-1.7465-4.0751,3.784-6.1126,4.6572c-2.0375,.8733-1.4554-2.3286-4.0751-1.7464-2.6197,.5821-4.9483,2.3286-6.4037,2.6197-.813,.1626,24.8956,3.05,47.7493,5.5673" style="fill:none; stroke:#b2b2b2; stroke-linecap:round; stroke-linejoin:round;"></path></g></g><g id="freepik--Mountains--inject-383"><g><g><path d="M483.63619,354.762c-3.1911-4.8788-5.9749-9.6226-5.9749-12.6591,0-6.2801-16.0177-14.3421-14.6221-20.6222s-58.61419-91.4103-65.5921-91.4103-40.4717,36.9828-40.4717,36.9828c0,0-6.2801-2.0933-12.5602-4.8845-6.2801-2.7911-62.801,39.774-71.1745,39.774s-92.108-57.2187-96.9926-56.5209c-4.8845,.6978-16.7469,6.9779-24.4226,6.9779s-19.538-5.5823-29.3071,.6978c-8.5014,5.4652-75.6615,73.8167-92.9468,91.4623" style="fill:none; stroke:#b2b2b2; stroke-linecap:round; stroke-linejoin:round;"></path><path d="M393.94559,296.0912l34.5087,33.2306-10.2247-31.3135s-7.6687-14.6982-7.6687-19.8106,5.1124-5.7514,5.1124-5.7514l-18.2262-42.3759c-6.9779,0-40.4718,36.9828-40.4718,36.9828l24.1893,31.5942,12.781-2.5562Z" style="fill:#fff; stroke:#b2b2b2; stroke-linecap:round; stroke-linejoin:round;"></path><path d="M273.24069,301.9427c-8.3734,0-92.108-57.2187-96.9925-56.5209-4.8846,.6977-16.747,6.9778-24.4226,6.9778s-19.5381-5.5823-29.3072,.6978c-4.0441,2.5998-21.3638,19.4324-40.2726,38.2655l15.1799-4.8575,2.5562,6.3905,24.923-30.6745,15.9763,23.6449,10.8639,5.1124v-23.0058l4.4733-4.4734,10.2248,5.7515,5.1125-8.9467,21.7277,37.704-21.0887-7.0296,35.7869,65.8224,7.6686-2.5563,39.6212,47.2898,23.0059-12.781-12.7811-34.5088,15.3373,10.2249,28.1182-24.284,8.3077-4.4733,24.284,8.3076-4.47339-23.6449,23.00589,8.3077,14.69811-8.3077-13.42011-17.8934-7.0295-11.503,8.9467-1.9171-18.8559-26.8929c-6.2801-2.7912-62.801,39.774-71.1745,39.774Z" style="fill:#fff; stroke:#b2b2b2; stroke-linecap:round; stroke-linejoin:round;"></path></g><path d="M211.17159,427.942s146.9871-87.1172,149.5433-89.0344c2.5562-1.9171,23.0059,23.0059,23.0059,23.0059l17.8934,4.4733s6.3905,4.4734,10.22481,7.6687c3.83429,3.1952,25.56209,25.562,25.56209,25.562l19.1715,5.7515,22.054,21.5202" style="fill:none; stroke:#b2b2b2; stroke-linecap:round; stroke-linejoin:round;"></path><path d="M359.75,422.5523l27.72,13.0899-1.54,10.7801-38.5-13.8601s-28.48-23.87-30.79-22.3299c-1.79,1.19-14.14,21.2299-19.66,30.26-.02,.04-.04,.0699-.06,.1l-79.38-11.37-3.72-.75-2.65-.5301s146.99-87.12,149.54-89.0299l.58,25.13,16.94,10.7799,9.24,9.24,17.7,16.94-20.01,3.8401-1.54,9.2399-29.26-11.5499,5.39,20.02Z" style="fill:#fff; stroke:#b2b2b2; stroke-linecap:round; stroke-linejoin:round;"></path></g></g><g id="freepik--Hill--inject-383"><g><path d="M296.92,440.5923l37.77,5.41c-35.57,27.8-131,70.18-204.44,18.55,0,0-26.39-20.11-54.6-55.66l141.89,20.33,79.38,11.37Z" style="fill:#fff; opacity:.68;"></path><line x1="9.4767" y1="398.9352" x2="478.94319" y2="466.8" style="fill:none; stroke:#263238; stroke-linecap:round; stroke-linejoin:round;"></line></g></g><g id="freepik--Character--inject-383"><g><path d="M263.28619,199.3252s-16.3378,9.0923-25.8564,19.6053c-9.5185,10.5131-13.0702,16.7641-13.0702,21.1682s.7103,6.1089,.85241,6.8192c.14209,.7103-.28411,2.131,.14209,4.12,.4262,1.9889-4.12,.7103,6.10891,4.5461,10.22889,3.8359,19.32119,8.0979,22.16259,7.5296,2.8413-.5682,4.1199-4.262,4.1199-4.262,0,0,11.3654-14.3488,24.7198-24.7198,13.3544-10.3709,28.1295-34.5225,21.3102-43.0466-6.8193-8.524-40.4893,8.24-40.4893,8.24Z" style="fill:#263238; stroke:#263238; stroke-linecap:round; stroke-linejoin:round;"></path><g><path d="M222.79679,265.1026s-2.9834,31.1128-3.2675,33.2439c-.2842,2.1309-.9945,3.5517,1.2786,4.8303,2.27311,1.2785,9.9447,3.1255,11.9337,2.6993,1.9889-.4262,11.22341-33.2439,11.22341-33.2439l-21.16821-7.5296Zm.7104,30.6866c-.8524,3.5517-2.41519,2.1311-2.41519,2.1311,0,0,.56829-9.0924,.71039-9.8027s3.1255-2.6993,3.1255-2.6993c0,0-.5683,6.8192-1.4207,10.3709Z" style="fill:#92E3A9; stroke:#263238; stroke-linecap:round; stroke-linejoin:round;"></path><path d="M239.27669,274.6211c0,.8524-2.5572,12.6441-3.4096,13.2123-.8524,.5683-3.8359-7.1033-4.26209-8.2399-.42621-1.1365,6.39309-4.9724,6.39309-4.9724,1.2786-.5682,1.2786-.8524,1.2786,0Zm-13.2123,23.8674s3.6938,1.7048,4.262,1.7048c.5683,0,2.5573-3.6937,3.26761-4.6882,.71029-.9945-4.54621-12.644-4.54621-12.644l-2.9834,15.6274Zm4.5462-28.4135l-.5683,4.5461,5.8248-3.1255-5.2565-1.4206Z" style="fill:#263238; stroke:#263238; stroke-linecap:round; stroke-linejoin:round;"></path><path d="M224.79349,285.5092c1.3671-8.5697,2.9757-18.8439,2.9757-18.8439l-3.1255-.8524s-1.7138,12.7082-2.7782,22.1504c.3931-.6966,2.3902-2.0875,2.928-2.4541Z" style="fill:#263238; stroke:#263238; stroke-linecap:round; stroke-linejoin:round;"></path></g><path d="M229.332,251.4641s-3.97791-3.1255-5.39861-1.1366c-1.4207,1.989-4.2621,14.491-3.5517,16.1958,.71031,1.7048,19.46331,7.8137,22.3046,9.0923,2.8414,1.2786,4.6883,2.131,7.1034,1.8469,2.4152-.2841,3.8359-9.0923,4.4041-9.6606,.5683-.5683,3.9779-2.9834,2.6993-5.5407-1.2786-2.5572-27.56109-10.7971-27.56109-10.7971Z" style="fill:#fff; stroke:#263238; stroke-linecap:round; stroke-linejoin:round;"></path><g><path d="M281.32879,198.899s-22.3047,18.4688-27.9874,28.1294-.85239,20.5998,1.27861,26.4246c2.131,5.8248,2.55729,8.24,4.68829,8.8082,2.131,.5683,3.2675-2.8413,12.9281-2.8413s11.3655,1.1365,12.7861,0c1.4207-1.1366-.2841-11.2234-.2841-11.2234,0,0,22.36561-13.0754,32.1073-16.9061,21.5908-8.4898,22.1626-20.3157,23.8674-29.9763,1.70491-9.6606-5.6272-25.1238-8.6384-27.1239-3.0111-2-50.7459,24.7088-50.7459,24.7088Z" style="fill:#263238; stroke:#263238; stroke-linecap:round; stroke-linejoin:round;"></path><path d="M273.72159,205.9999s-19.0929,14.5559-22.49559,23.0627c-3.40261,8.5067,4.915,28.7338,4.915,28.7338" style="fill:none; stroke:#787878; stroke-linecap:round; stroke-linejoin:round;"></path><path d="M284.31219,247.202s-1.7048-7.3875-5.2565-11.2233c-3.55169-3.8358-11.3654-4.12-11.3654-4.12" style="fill:none; stroke:#787878; stroke-linecap:round; stroke-linejoin:round;"></path></g><g><path d="M288.006,262.6874s0-4.4041-3.26761-5.6827c-3.2675-1.2786-21.87839,.8524-24.0095,3.2676-2.131,2.4151-.9944,4.262,0,5.6827,.9945,1.4207,1.1366,2.131,1.1366,2.131,0,0-3.9779,4.12-2.8414,9.0924,1.1366,4.9723,2.9835,7.3875,2.9835,7.3875,0,0-2.4152,4.262-2.5573,5.6827-.142,1.4207,.1421,2.8414,.1421,2.8414,0,0-7.10339,4.4041-8.9503,5.8247-1.8469,1.4207-1.8469,3.5517-1.5627,4.9724,.2841,1.4207,2.6993,1.989,6.5351,1.989s22.3047-5.9669,28.9818-8.382c6.6772-2.4152,11.79171-5.6828,11.93371-9.5186,.14209-3.8358-4.97231-12.2178-4.97231-12.2178,0,0,2.4151-4.2621,.8524-7.3875-1.5628-3.1255-4.40409-5.6828-4.40409-5.6828Z" style="fill:#474747; stroke:#263238; stroke-linecap:round; stroke-linejoin:round;"></path><path d="M265.95309,267.0808s5.849-3.7601,19.4272-2.7156" style="fill:none; stroke:#263238; stroke-linecap:round; stroke-linejoin:round;"></path><path d="M289.14039,274.601s-17.12939-2.9245-27.783-2.2978" style="fill:none; stroke:#263238; stroke-linecap:round; stroke-linejoin:round;"></path><path d="M262.61079,282.1212s7.938-5.4312,21.9339-6.2668" style="fill:none; stroke:#263238; stroke-linecap:round; stroke-linejoin:round;"></path><path d="M269.71319,280.0323s16.0849-1.2534,23.814,2.2978" style="fill:none; stroke:#263238; stroke-linecap:round; stroke-linejoin:round;"></path></g><path d="M296.47259,287.0534c-15.1041-3.574-36.8802,6.0365-36.8802,6.0365,0,0-7.10339,4.4041-8.9502,5.8248-1.847,1.4207-1.847,3.5517-1.5628,4.9724,.2841,1.4207,2.6993,1.989,6.5351,1.989s22.3046-5.9669,28.9819-8.3821c6.6772-2.4151,11.79161-5.6827,11.93361-9.5185,.01049-.2825-.015-.5955-.05741-.9221Z" style="fill:#636363; stroke:#263238; stroke-linecap:round; stroke-linejoin:round;"></path><path d="M263.42819,307.2967s-9.2344-3.5517-10.93919-5.2565c-1.70481-1.7048-3.97791-1.7048-3.97791-1.7048,0,0,1.7048-4.6882,1.1366-4.9724-.5683-.2841-1.989,.4262-2.5573,1.4207-.5682,.9945-2.131,5.5407-2.131,5.5407,0,0-2.4151,1.2786-2.131,3.5517,.2841,2.273,3.1255,8.6661,3.1255,8.6661l17.4743-7.2455Z" style="fill:#fff; stroke:#263238; stroke-linecap:round; stroke-linejoin:round;"></path><path d="M238.28219,319.3725s4.4041-5.9668,2.131-8.382c-2.273-2.4151-14.9171-7.2455-16.906-7.8137-1.989-.5683-11.2234-.5683-11.9337,2.131-.7104,2.6993-1.8469,19.0371-2.5572,20.3157-.7104,1.2786-5.2566,2.2731-6.5352,2.5572s-7.6716-1.2786-11.2233-.4262-5.3986,2.4152-5.3986,4.6882,3.6938,5.5407,9.0923,6.9614c5.3986,1.4207,25.7143,4.9723,27.4191,5.1144s10.2289,.5683,12.2179-2.131c1.9889-2.6993,3.6937-23.015,3.6937-23.015Z" style="fill:#636363; stroke:#263238; stroke-linecap:round; stroke-linejoin:round;"></path><path d="M222.79679,306.3023s-.8524,9.3764-1.70479,14.4909c-.85241,5.1144-4.97241,9.2344-5.82481,9.3765" style="fill:none; stroke:#787878; stroke-linecap:round; stroke-linejoin:round;"></path><path d="M212.42589,309.854s3.6937-2.1311,8.2399-1.7049" style="fill:none; stroke:#787878; stroke-linecap:round; stroke-linejoin:round;"></path><path d="M211.57349,318.378s3.6937-1.9889,8.2399-1.4206" style="fill:none; stroke:#787878; stroke-linecap:round; stroke-linejoin:round;"></path><path d="M210.72109,324.3449s4.6882-1.7048,7.8137-.4262" style="fill:none; stroke:#787878; stroke-linecap:round; stroke-linejoin:round;"></path><path d="M201.20249,334.0055s-9.2344-3.5517-10.9392-5.2565-3.9779-1.7048-3.9779-1.7048c0,0,1.7048-4.6883,1.1365-4.9724-.5682-.2841-1.9889,.4262-2.5572,1.4207-.5682,.9944-2.131,5.5406-2.131,5.5406,0,0-2.4151,1.2786-2.131,3.5517s3.1255,8.6662,3.1255,8.6662l17.4743-7.2455Z" style="fill:#fff; stroke:#263238; stroke-linecap:round; stroke-linejoin:round;"></path><g><path d="M327.71249,322.7566c-6.36,2.2-74.1601,29.6199-74.1601,29.6199,0,0-66.3299,30.1001-69.5199,31.0801-3.18,.98-4.89,2.45-8.81,1.96-3.9101-.49-32.31-13.46-35.2401-16.64-1.5099-1.63-3.66-3.6501-4.4699-5.63-.7701-1.88-.3401-3.71,3-5.14,6.8499-2.94,32.5499-14.2,32.5499-14.2,0,0,66.82-27.66,76.12-32.55,9.3-4.9,53.12-28.64,53.12-28.64,4.6501-1.71,13.4601-2.94,26.43,3.92,12.9701,6.85,18.1101,14.19,18.6001,22.03v.09c.3999,7.77-11.2801,11.91-17.62,14.1Z" style="fill:#263238; stroke:#263238; stroke-linecap:round; stroke-linejoin:round;"></path><path d="M327.71249,322.7566c-6.36,2.2-74.1601,29.6199-74.1601,29.6199,0,0-66.3299,30.1001-69.5199,31.0801-3.18,.98-4.89,2.45-8.81,1.96-3.9101-.49-32.31-13.46-35.2401-16.64-1.5099-1.63-3.66-3.6501-4.4699-5.63,.28-1.08,1.2399-2.08,3.2399-2.94,6.86-2.94,32.56-14.2,32.56-14.2,0,0,66.82-27.65,76.12-32.55,9.3-4.89,53.1101-28.64,53.1101-28.64,4.6499-1.71,13.4599-2.93,26.4399,3.92,11.8001,6.23,17.1201,12.88,18.3501,19.92,.3999,7.77-11.2801,11.91-17.62,14.1Z" style="fill:#92E3A9; stroke:#263238; stroke-linecap:round; stroke-linejoin:round;"></path></g><g><path d="M308.78289,96.0499s1.6905-4.8838,3.7567-5.6352c2.0663-.7513,6.57441-1.3148,6.57441-1.3148,0,0,10.331-8.8284,18.408-12.5851,8.077-3.7568,10.89459-5.4473,13.52429-4.1325,2.6298,1.3149,6.3865,13.1487,4.8838,16.9054-1.5027,3.7568-6.76209,12.0216-15.027,17.2811-8.2648,5.2594-20.66209,7.7013-20.66209,7.7013l-5.63511,3.3811s-3.9446-9.0162-5.823-21.6013Z" style="fill:#fff; stroke:#263238; stroke-linecap:round; stroke-linejoin:round;"></path><g><path d="M179.5439,58.8125s-2.7161-1.6049-3.5803-2.8395-5.6791-8.7655-6.5433-10.494c-.8642-1.7284-1.605-3.4568-1.605-3.4568,0,0-3.3333-10.0001-4.6914-11.9754-1.358-1.9754-2.3457-2.5927-2.7161-.8642-.3703,1.7284-.6173,3.9506-.6173,3.9506,0,0-1.1111-1.1111-1.1111,3.0865s.2469,9.5063,.6173,11.1112c.3704,1.605,1.605,6.7902,1.8519,8.0248s.4938,2.2222,.4938,2.2222c0,0-2.5926,.247-2.0988,2.8396,.4939,2.5926,3.7038,2.5926,4.0741,2.5926,.3704,0,1.4815,.9877,1.4815,.9877,0,0,2.7161,4.8148,2.963,5.1852,.247,.3704,3.8272,3.5803,4.4445,1.3581,.6173-2.2223-.3703-6.4199,2.963-8.3952,3.3334-1.9753,4.568-.9877,4.0742-3.3334Z" style="fill:#263238; stroke:#263238; stroke-linecap:round; stroke-linejoin:round;"></path><line x1="161.6424" y1="57.5779" x2="163.8647" y2="61.6521" style="fill:none; stroke:#263238; stroke-linecap:round; stroke-linejoin:round;"></line></g><path d="M211.77279,79.7224s-2.9209-2.2336-4.81079-5.8418c-1.89-3.6081-7.90361-9.6217-14.4327-12.199-6.529-2.5772-11.3399-3.4363-11.3399-3.4363,0,0-7.0445-1.0309-9.7936,5.4981-2.749,6.5291,.3437,12.3708,2.9209,13.5736,2.5773,1.2027,3.9518,2.2336,3.9518,2.2336,0,0,2.7491,7.9036,8.2472,12.7145,5.4982,4.8108,8.3606,9.2563,11.2815,11.4899s2.6357,6.5508,6.7593,13.9389c4.4632,7.9966,7.7138,16.5341,12.7811,24.2228,8.4757,12.8604,21.29,22.0829,31.3677,33.578,6.3591,7.2533,9.5116,15.9851,12.55471,24.9928,0,0,9.57969,4.1324,13.33649,3.9446,3.7567-.1879,10.331-7.1378,14.8391-8.4527s15.2149-6.1986,26.8608-11.6459c11.2418-5.2583,13.9073-9.6415,14.0787-9.9393-.1552,.2696,1.1278,.629,1.2866,.6327,1.1834-2.4693-1.7524-5.7-3.3394-7.532-4.5109-5.2073-9.4402-10.2498-13.623-15.7216-2.1539-2.8177-6.794-8.7041-7.92029-12.9041-.58931-2.1972-1.38991-4.3408-2.20021-6.4664-1.9102-5.0106-2.3702-7.426-2.3702-7.426,0,0,11.4581-6.3864,12.3973-7.3256,.93911-.9392,.3756-3.1933-.3757-4.8838-.7514-1.6905-3.0054-9.5797-3.5689-12.773-.5635-3.1932,.1878-5.6351-.9392-6.7621s-1.8784-1.127-2.6297-.9392c-.75139,.1878-8.4527,1.8784-11.0825,2.4419-2.6297,.5635-8.2648,2.0662-9.3918,2.254-1.12709,.1879-12.0216,0-12.773,.1879-.7513,.1878-3.7567-.9392-4.6959-.9392s-7.3257-1.127-8.4527-1.5027-9.3014-.0964-10.098-.8935c-.7966-.797-20.1438-5.8687-20.1438-5.8687,0,0-5.4473-3.0054-6.0108-3.1932-.5636-.1878-12.6711-5.0572-12.6711-5.0572Z" style="fill:#92E3A9; stroke:#263238; stroke-linecap:round; stroke-linejoin:round;"></path><path d="M257.475,109.4228s1.51259-13.9917,7.18489-16.1346c5.6723-2.1428,12.35311-5.5462,17.7733-11.2186,5.4202-5.6723,1.0084-8.5715,3.7815-13.1093,2.7732-4.5379,3.7816-5.0421,3.7816-5.0421l-22.1851-3.7815s-3.5294,6.6807-1.6387,11.0925c1.8908,4.4118,1.00851,8.5715-4.1597,11.0925-5.1681,2.5211-11.0925,4.9161-13.9917,7.8152-2.8992,2.8992,1.6387,11.9749,3.2774,13.7397,1.6386,1.7647,6.17651,5.5462,6.17651,5.5462Z" style="fill:#263238; stroke:#263238; stroke-linecap:round; stroke-linejoin:round;"></path><g><path d="M219.77279,123.6044s-2.2562,3.2136-1.24779,4.4741c1.00849,1.2605,3.27739,2.0168,3.40339,2.395,.1261,.3781-1.8907,1.7647,.8824,3.6554,2.7731,1.8908,12.60521,5.0421,22.3111,1.0085,9.706-4.0337,12.8573-16.0086,12.9833-19.7901,.1261-3.7816-2.3949-14.2439-4.6639-16.5128-2.2689-2.2689-4.2857-2.2689-4.2857-2.2689,0,0-.6303,15.2522-7.185,21.3027-6.55459,6.0505-22.1978,5.7361-22.1978,5.7361Z" style="fill:#263238; stroke:#263238; stroke-linecap:round; stroke-linejoin:round;"></path><path d="M223.44109,130.5995s1.1048,2.2181,8.94691,3.5251c7.06969,1.1783,13.92509-1.1783,18.53229-5.1638" style="fill:none; stroke:#787878; stroke-linecap:round; stroke-linejoin:round;"></path><path d="M243.52809,130.4826s8.2746-3.7907,10.9216-13.3706" style="fill:none; stroke:#787878; stroke-linecap:round; stroke-linejoin:round;"></path></g><g><path d="M212.23449,74.7825s-5.4103,4.3037-7.1317,9.9599c-1.7215,5.6562,1.9674,16.3539,2.8281,20.2886,.8607,3.9348,8.8532,16.5998,10.2058,18.5672s6.8858,6.6399,15.862,4.7955,14.1406-8.4843,15.4931-16.9687c1.3526-8.4843,1.9674-15.6161,1.1067-17.5835-.8607-1.9673-4.5496-10.4517-5.4103-12.2961s-4.0577-8.7303-14.0176-11.3124c-9.9599-2.5822-18.9361,4.5495-18.9361,4.5495Z" style="fill:#263238; stroke:#263238; stroke-linecap:round; stroke-linejoin:round;"></path><path d="M250.00959,107.9778l-3.8642-7.307c-5.6699,7.7206-33.42039,14.167-33.42039,14.167,2.31349,3.9836,4.72309,7.7587,5.41169,8.7604,1.3526,1.9674,6.8858,6.6399,15.862,4.7955s14.1406-8.4844,15.4931-16.9687c.1881-1.1799,.36021-2.3298,.5178-3.4472Z" style="fill:#fff; stroke:#263238; stroke-linecap:round; stroke-linejoin:round;"></path><path d="M222.31739,124.4589c5.4103,1.3526,5.4103-.7377,6.1481-1.7214,.7377-.9838,1.47551-5.7792,4.0577-5.0415,2.5821,.7378,5.4103,3.5659,7.8695,2.0904,2.4592-1.4756,6.1481-7.0088,7.8695-9.591,.8301-1.2452,1.1973-2.4264,1.3606-3.3228-.9474-1.9174-3.53679-6.9733-4.9265-7.8667-1.7214-1.1066-4.3036,1.2296-4.3036,1.2296,0,0-4.5496,3.4429-12.0502,6.0251s-11.5584,2.9511-14.50949,2.8281c-2.951-.1229-2.45921,.9837-1.72141,3.6889,.1223,.4486,.3277,1.1682,.61341,2.0602,1.64439,2.8315,3.334,5.5521,4.423,7.2518,1.09269,.8382,2.74669,1.7636,5.16939,2.3693Z" style="fill:#fff; stroke:#263238; stroke-linecap:round; stroke-linejoin:round;"></path><path d="M230.30989,121.9997s.6148,1.1066,2.2133,1.2296,2.3362-1.8444,2.4592-2.2133" style="fill:none; stroke:#263238; stroke-linecap:round; stroke-linejoin:round;"></path><path d="M230.43279,126.5493s4.5496,0,7.2547-1.8445" style="fill:none; stroke:#263238; stroke-linecap:round; stroke-linejoin:round;"></path><g><path d="M213.833,109.0887c-.24211-.0101-.45291-.0087-.65041-.002l6.5902,14.5177c.6649,.2875,1.4218,.5527,2.2754,.7801l-6.6175-15.2855c-.5701,.0153-1.1014,.0104-1.59769-.0103Z" style="fill:#92E3A9;"></path><path d="M239.68429,100.7326l6.2143,12.9143c.9343-1.3098,1.768-2.5581,2.3636-3.4515,.8301-1.2452,1.1973-2.4264,1.3606-3.3228-.9474-1.9174-3.53679-6.9733-4.9265-7.8667-1.7214-1.1066-4.3036,1.2296-4.3036,1.2296,0,0-.2498,.1873-.7084,.4971Z" style="fill:#92E3A9;"></path><path d="M227.92159,106.4019l5.029,11.4356c1.3736,.4995,2.8056,1.4752,4.2072,2.0052l-6.2783-14.5299c-.8036,.3231-1.6479,.6418-2.537,.9478-.1444,.0497-.279,.0932-.4209,.1413Z" style="fill:#92E3A9;"></path></g><path d="M222.31739,124.4589c5.4103,1.3526,5.4103-.7377,6.1481-1.7214,.7377-.9838,1.47551-5.7792,4.0577-5.0415,2.5821,.7378,5.4103,3.5659,7.8695,2.0904,2.4592-1.4756,6.1481-7.0088,7.8695-9.591,.8301-1.2452,1.1973-2.4264,1.3606-3.3228-.9474-1.9174-3.53679-6.9733-4.9265-7.8667-1.7214-1.1066-4.3036,1.2296-4.3036,1.2296,0,0-4.5496,3.4429-12.0502,6.0251s-11.5584,2.9511-14.50949,2.8281c-2.951-.1229-2.45921,.9837-1.72141,3.6889,.1223,.4486,.3277,1.1682,.61341,2.0602,1.64439,2.8315,3.334,5.5521,4.423,7.2518,1.09269,.8382,2.74669,1.7636,5.16939,2.3693Z" style="fill:none; stroke:#263238; stroke-linecap:round; stroke-linejoin:round;"></path><path d="M244.69629,99.0059l3.5659-10.8206,2.3363,5.6562-.9757,13.0311s-3.81979-7.4979-4.9265-7.8667Z" style="fill:#fff; stroke:#263238; stroke-linecap:round; stroke-linejoin:round;"></path></g><path d="M351.04629,72.3823s-1.7474,2.9736-1.1301,7.7885,4.568,9.1359,7.0371,9.1359,6.0495-3.3334,6.6668-4.1976,1.2345-2.5926,1.2345-2.5926c0,0,1.7285-.3704,2.4692-1.2346,.7408-.8642,1.1111-2.0988,1.1111-2.0988,0,0,5.1853-2.7161,5.67911-3.0864,.49379-.3704,6.66679-2.963,9.87669-5.4322s6.6667-2.4692,7.5309-4.4445,0-2.963-1.7284-2.8395c-1.7284,.1234-5.0618,1.8519-6.6667,2.4691-1.605,.6173-2.3457,.1235-2.3457-.2469,0-.3703,4.321-2.8395,5.4321-3.2099,1.11111-.3704,7.7779-.2469,8.5186-.8642,.7408-.6173-1.48149-2.5926-1.48149-2.5926,0,0,.12349-1.8519-1.60491-2.4692s-9.3828-1.2346-9.3828-1.2346c0,0,8.642-3.2099,8.7655-4.1975,.1234-.9877-.2469-2.7161-2.7161-1.9754-2.4692,.7408-11.3582,3.8272-11.3582,3.8272,0,0,1.1112-.9876,3.8273-2.0988,2.716-1.1111,3.82721-3.3333,2.4691-4.4445-1.358-1.1111-6.9136,1.9754-9.2593,4.4445-2.3458,2.4692-4.568,5.1853-6.5433,8.2717-1.9754,3.0865-3.58029,7.1606-3.8272,7.531-.247,.3704-5.3087,2.5926-5.926,2.963s-4.6534,.1022-6.6478,2.8289Z" style="fill:#263238; stroke:#263238; stroke-linecap:round; stroke-linejoin:round;"></path><path d="M302.20859,124.9768s-13.77459,10.8737-15.6265,11.9848c-1.8518,1.1111-6.2963,2.2222-10.3705-2.8396" style="fill:none; stroke:#263238; stroke-linecap:round; stroke-linejoin:round;"></path><path d="M271.89059,134.6159s3.4568,5.1852,11.852,5.926" style="fill:none; stroke:#263238; stroke-linecap:round; stroke-linejoin:round;"></path><path d="M268.50129,109.5423c-.6771,2.0949-1.2095,4.3943-1.4256,6.8018" style="fill:none; stroke:#263238; stroke-linecap:round; stroke-linejoin:round;"></path><path d="M273.86589,98.813s-2.5694,3.4259-4.5712,8.5154" style="fill:none; stroke:#263238; stroke-linecap:round; stroke-linejoin:round;"></path><path d="M265.84119,111.1588s-2.7161,5.8025-1.4815,13.5804" style="fill:none; stroke:#263238; stroke-linecap:round; stroke-linejoin:round;"></path><path d="M241.42259,145.7824c1.9477,.4185,3.93341,.7096,5.8998,.8089" style="fill:none; stroke:#263238; stroke-linecap:round; stroke-linejoin:round;"></path><path d="M222.13689,137.9492s6.9505,4.3027,15.4712,6.8492" style="fill:none; stroke:#263238; stroke-linecap:round; stroke-linejoin:round;"></path><path d="M257.69289,128.8133s-4.9383,9.1359-12.8396,11.1113" style="fill:none; stroke:#263238; stroke-linecap:round; stroke-linejoin:round;"></path><path d="M192.5294,61.6816c-6.5291-2.5773-11.34-3.4363-11.34-3.4363,0,0-7.0445-1.0309-9.7936,5.4981s.3436,12.3708,2.9209,13.5736c2.5773,1.2027,3.9518,2.2336,3.9518,2.2336,0,0,2.7491,7.9036,8.2472,12.7144,1.0339,.9046,1.9743,1.7962,2.8396,2.6627-1.5739-4.7765-2.1804-10.798,1.6274-15.8752,3.5661-4.7547,9.1588-6.9275,14.1219-7.8933-2.7593-3.4093-7.5073-7.477-12.5752-9.4776Z" style="fill:#fff; stroke:#263238; stroke-linecap:round; stroke-linejoin:round;"></path><path d="M329.70439,177.4143c.8681-.706,1.5903-1.5271,2.0021-2.5085,1.1177-2.6636-1.8116-5.5955-3.3842-7.4109-4.5109-5.2073-9.4402-10.2499-13.623-15.7217-.4565-.5972-1.0254-1.3333-1.6482-2.1609-4.6857,5.9633-13.4765,15.6983-25.4493,21.04-16.5889,7.4012-32.0936,4.3261-40.3165,3.2669,.4768,.5222,.9541,1.0441,1.42,1.5755,6.3591,7.2533,9.5116,15.9851,12.55471,24.9928,0,0,9.57969,4.1324,13.33639,3.9446,3.7568-.1879,10.3312-7.1378,14.8392-8.4527,4.5081-1.3149,15.2149-6.1987,26.861-11.646,2.8152-1.3168,5.6307-2.6391,8.407-4.0369,1.5299-.7702,3.4872-1.6512,5.0008-2.8822Z" style="fill:#fff; stroke:#263238; stroke-linecap:round; stroke-linejoin:round;"></path><path d="M326.17089,171.1775s-12.2452,10.4532-22.3997,15.2318" style="fill:none; stroke:#263238; stroke-linecap:round; stroke-linejoin:round;"></path><path d="M324.08029,166.9963s-4.18129,5.0772-8.9599,8.6612" style="fill:none; stroke:#263238; stroke-linecap:round; stroke-linejoin:round;"></path><g><path d="M183.1257,63.2831s-3.4174,3.4175-3.4174,13.144" style="fill:none; stroke:#263238; stroke-linecap:round; stroke-linejoin:round;"></path><path d="M177.0795,69.3294s-.1375,4.4999,.5258,7.3606" style="fill:none; stroke:#263238; stroke-linecap:round; stroke-linejoin:round;"></path></g><g><path d="M324.06169,103.4872c.7886,1.9223,1.80731,3.6967,3.1216,5.0111" style="fill:none; stroke:#263238; stroke-linecap:round; stroke-linejoin:round;"></path><path d="M321.4,90.6225s.21829,5.2399,1.78049,10.3734" style="fill:none; stroke:#263238; stroke-linecap:round; stroke-linejoin:round;"></path><path d="M315.09089,101.1377s2.3659,4.4689,7.6235,7.8864" style="fill:none; stroke:#263238; stroke-linecap:round; stroke-linejoin:round;"></path></g><path d="M248.81729,166.9963s25.1063,10.737,46.29271,14.0371" style="fill:none; stroke:#263238; stroke-linecap:round; stroke-linejoin:round;"></path><path d="M271.81429,181.3321s19.4131,4.4799,25.08771,3.5839" style="fill:none; stroke:#263238; stroke-linecap:round; stroke-linejoin:round;"></path></g></g></g><g id="freepik--Snow--inject-383"><g><path d="M121.3305,386.6258c.4786,1.8665,3.7414,2.6425,7.2878,1.7333s6.0334-3.1594,5.5549-5.0259c-.4786-1.8665-3.7414-2.6426-7.2878-1.7334-3.5464,.9093-6.0334,3.1594-5.5549,5.026Z" style="fill:#fff; stroke:#263238; stroke-linecap:round; stroke-linejoin:round;"></path><path d="M168.8012,387.0629c.4785,1.8665,3.7413,2.6425,7.2877,1.7333s6.0334-3.1594,5.5549-5.0259c-.4786-1.8665-3.7414-2.6426-7.2878-1.7333-3.5464,.9092-6.0334,3.1594-5.5548,5.0259Z" style="fill:#fff; stroke:#263238; stroke-linecap:round; stroke-linejoin:round;"></path><path d="M127.5263,396.1006c.2393,.9332,1.8707,1.3212,3.6439,.8666,1.7732-.4546,3.0167-1.5797,2.7774-2.5129-.2393-.9333-1.8707-1.3213-3.6439-.8667s-3.0167,1.5797-2.7774,2.513Z" style="fill:#fff; stroke:#263238; stroke-linecap:round; stroke-linejoin:round;"></path><path d="M153.2211,391.9574c.2393,.9332,1.8707,1.3212,3.6439,.8666,1.7732-.4546,3.0167-1.5797,2.7774-2.5129-.2392-.9333-1.8707-1.3213-3.6439-.8667-1.7731,.4546-3.0166,1.5797-2.7774,2.513Z" style="fill:#fff; stroke:#263238; stroke-linecap:round; stroke-linejoin:round;"></path><path d="M114.8428,410.7977c.2392,.9332,1.8707,1.3212,3.6438,.8666,1.7732-.4546,3.0167-1.5797,2.7775-2.5129-.2393-.9333-1.8707-1.3213-3.6439-.8667-1.7732,.4546-3.0167,1.5797-2.7774,2.513Z" style="fill:#fff; stroke:#263238; stroke-linecap:round; stroke-linejoin:round;"></path><path d="M145.126,338.353c.2392,.9333,1.8706,1.3213,3.6438,.8667,1.7732-.4546,3.0167-1.5797,2.7775-2.513-.2393-.9332-1.8707-1.3213-3.6439-.8667-1.7732,.4547-3.0167,1.5797-2.7774,2.513Z" style="fill:#fff; stroke:#263238; stroke-linecap:round; stroke-linejoin:round;"></path><path d="M143.4521,382.1883c.2393,.9333,1.8707,1.3213,3.6439,.8667,1.7732-.4546,3.0167-1.5797,2.7774-2.513-.2393-.9332-1.8707-1.3212-3.6439-.8666s-3.0167,1.5797-2.7774,2.5129Z" style="fill:#fff; stroke:#263238; stroke-linecap:round; stroke-linejoin:round;"></path></g></g></svg>
